M48
;GenerationSoftware,Autodesk,EAGLE,9.5.1*%
;CreationDate,2022-10-05T19:44:27Z*%
FMAT,2
ICI,OFF
METRIC,TZ,000.000
T9C0.350
T8C0.762
T7C1.000
T6C1.100
T5C1.295
T4C1.448
T3C1.499
T2C3.300
T1C3.658
%
G90
M71
T1
X279400Y133401
X368300Y133401
X101600Y6299
X368300Y6299
X279400Y6299
X190500Y6299
X12700Y133401
X12700Y6299
X190500Y133401
X101600Y133401
T2
X22860Y30800
X408948Y30800
X408948Y108900
X22860Y108900
X197277Y108900
X65194Y108900
X65194Y30800
X107528Y108900
X107528Y30800
X154943Y108900
X154943Y30800
X197277Y30800
X239611Y108900
X239611Y30800
X281945Y108900
X281945Y30800
X324279Y108900
X324279Y30800
X366614Y108900
X366614Y30800
T3
X164470Y88016
X170820Y88016
X164470Y81666
X170820Y81666
X165049Y75900
X171399Y75900
X165049Y69550
X171399Y69550
X180335Y88478
X186685Y88478
X180335Y82128
X186685Y82128
X179695Y76027
X186045Y76027
X179695Y69677
X186045Y69677
T4
X55880Y55880
X50800Y86614
X55880Y96520
X121920Y71120
X121920Y86614
X50800Y71120
X38100Y86614
X93980Y71120
X93980Y86614
X38100Y71120
X78740Y71120
X78740Y86614
T5
X167645Y84841
X168224Y72725
X183510Y85303
X182870Y72852
T6
X25285Y69850
X20435Y67310
X25285Y67310
X20435Y64770
X25285Y64770
X20435Y62230
X25285Y62230
X20435Y59690
X25285Y59690
X20435Y57150
X25285Y57150
X20435Y54610
X20435Y52070
X25285Y52070
X20435Y49530
X25285Y49530
X20435Y46990
X25285Y46990
X20435Y44450
X25285Y44450
X20435Y41910
X25285Y41910
X20435Y39370
X25285Y39370
X62769Y100330
X67619Y100330
X62769Y97790
X67619Y97790
X62769Y95250
X67619Y95250
X62769Y92710
X67619Y92710
X62769Y90170
X67619Y90170
X62769Y87630
X67619Y87630
X62769Y85090
X67619Y85090
X62769Y82550
X67619Y82550
X62769Y80010
X67619Y80010
X62769Y77470
X67619Y77470
X62769Y74930
X67619Y74930
X62769Y72390
X67619Y72390
X62769Y69850
X67619Y69850
X62769Y67310
X67619Y67310
X62769Y64770
X67619Y64770
X62769Y62230
X67619Y62230
X62769Y59690
X67619Y59690
X62769Y57150
X67619Y57150
X62769Y54610
X67619Y54610
X62769Y52070
X67619Y52070
X62769Y49530
X67619Y49530
X62769Y46990
X67619Y46990
X62769Y44450
X67619Y44450
X62769Y41910
X67619Y41910
X62769Y39370
X67619Y39370
X105103Y100330
X109953Y100330
X105103Y97790
X109953Y97790
X105103Y95250
X109953Y95250
X105103Y92710
X109953Y92710
X105103Y90170
X109953Y90170
X105103Y87630
X109953Y87630
X105103Y85090
X109953Y85090
X105103Y82550
X109953Y82550
X105103Y80010
X109953Y80010
X105103Y77470
X109953Y77470
X105103Y74930
X109953Y74930
X105103Y72390
X109953Y72390
X105103Y69850
X109953Y69850
X105103Y67310
X109953Y67310
X105103Y64770
X109953Y64770
X105103Y62230
X109953Y62230
X105103Y59690
X109953Y59690
X105103Y57150
X109953Y57150
X105103Y54610
X109953Y54610
X105103Y52070
X109953Y52070
X105103Y49530
X109953Y49530
X105103Y46990
X109953Y46990
X105103Y44450
X109953Y44450
X105103Y41910
X109953Y41910
X105103Y39370
X109953Y39370
X152518Y100330
X157368Y100330
X152518Y97790
X157368Y97790
X152518Y95250
X157368Y95250
X152518Y92710
X157368Y92710
X152518Y90170
X157368Y90170
X152518Y87630
X157368Y87630
X152518Y85090
X157368Y85090
X152518Y82550
X157368Y82550
X152518Y80010
X157368Y80010
X152518Y77470
X157368Y77470
X152518Y74930
X157368Y74930
X152518Y72390
X157368Y72390
X152518Y69850
X157368Y69850
X152518Y67310
X157368Y67310
X152518Y64770
X157368Y64770
X152518Y62230
X157368Y62230
X152518Y59690
X157368Y59690
X152518Y57150
X157368Y57150
X152518Y54610
X157368Y54610
X152518Y52070
X157368Y52070
X152518Y49530
X157368Y49530
X152518Y46990
X157368Y46990
X152518Y44450
X157368Y44450
X152518Y41910
X157368Y41910
X152518Y39370
X157368Y39370
X194852Y100330
X199702Y100330
X194852Y97790
X199702Y97790
X194852Y95250
X199702Y95250
X194852Y92710
X199702Y92710
X194852Y90170
X199702Y90170
X194852Y87630
X199702Y87630
X194852Y85090
X199702Y85090
X194852Y82550
X199702Y82550
X194852Y80010
X199702Y80010
X194852Y77470
X199702Y77470
X194852Y74930
X199702Y74930
X194852Y72390
X199702Y72390
X194852Y69850
X199702Y69850
X194852Y67310
X199702Y67310
X194852Y64770
X199702Y64770
X194852Y62230
X199702Y62230
X194852Y59690
X199702Y59690
X194852Y57150
X199702Y57150
X194852Y54610
X199702Y54610
X194852Y52070
X199702Y52070
X194852Y49530
X199702Y49530
X194852Y46990
X199702Y46990
X194852Y44450
X199702Y44450
X194852Y41910
X199702Y41910
X194852Y39370
X199702Y39370
X237186Y100330
X242036Y100330
X237186Y97790
X242036Y97790
X237186Y95250
X242036Y95250
X237186Y92710
X25285Y54610
X237186Y90170
X242036Y90170
X237186Y87630
X242036Y87630
X237186Y85090
X242036Y85090
X237186Y82550
X242036Y82550
X237186Y80010
X242036Y80010
X237186Y77470
X242036Y77470
X237186Y74930
X242036Y74930
X237186Y72390
X242036Y72390
X237186Y69850
X242036Y69850
X237186Y67310
X242036Y67310
X237186Y64770
X242036Y64770
X237186Y62230
X242036Y62230
X237186Y59690
X242036Y59690
X237186Y57150
X242036Y57150
X237186Y54610
X242036Y54610
X237186Y52070
X242036Y52070
X237186Y49530
X242036Y49530
X237186Y46990
X242036Y46990
X237186Y44450
X242036Y44450
X237186Y41910
X242036Y41910
X237186Y39370
X242036Y39370
X279520Y100330
X284370Y100330
X279520Y97790
X284370Y97790
X279520Y95250
X284370Y95250
X279520Y92710
X284370Y92710
X279520Y90170
X284370Y90170
X279520Y87630
X284370Y87630
X279520Y85090
X284370Y85090
X279520Y82550
X284370Y82550
X279520Y80010
X284370Y80010
X279520Y77470
X284370Y77470
X279520Y74930
X284370Y74930
X279520Y72390
X284370Y72390
X279520Y69850
X284370Y69850
X279520Y67310
X284370Y67310
X279520Y64770
X284370Y64770
X279520Y62230
X284370Y62230
X279520Y59690
X284370Y59690
X279520Y57150
X284370Y57150
X279520Y54610
X284370Y54610
X279520Y52070
X284370Y52070
X279520Y49530
X284370Y49530
X279520Y46990
X284370Y46990
X279520Y44450
X284370Y44450
X279520Y41910
X284370Y41910
X279520Y39370
X284370Y39370
X321854Y100330
X326704Y100330
X321854Y97790
X326704Y97790
X321854Y95250
X326704Y95250
X321854Y92710
X326704Y92710
X321854Y90170
X326704Y90170
X321854Y87630
X326704Y87630
X321854Y85090
X326704Y85090
X321854Y82550
X326704Y82550
X321854Y80010
X326704Y80010
X321854Y77470
X326704Y77470
X321854Y74930
X326704Y74930
X321854Y72390
X326704Y72390
X321854Y69850
X326704Y69850
X321854Y67310
X326704Y67310
X321854Y64770
X326704Y64770
X321854Y62230
X326704Y62230
X321854Y59690
X326704Y59690
X321854Y57150
X326704Y57150
X321854Y54610
X326704Y54610
X321854Y52070
X326704Y52070
X321854Y49530
X326704Y49530
X321854Y46990
X326704Y46990
X321854Y44450
X326704Y44450
X321854Y41910
X326704Y41910
X321854Y39370
X326704Y39370
X20435Y100330
X25285Y100330
X364189Y100330
X369039Y100330
X364189Y97790
X369039Y97790
X364189Y95250
X369039Y95250
X364189Y92710
X369039Y92710
X364189Y90170
X369039Y90170
X364189Y87630
X369039Y87630
X364189Y85090
X369039Y85090
X364189Y82550
X369039Y82550
X364189Y80010
X369039Y80010
X364189Y77470
X369039Y77470
X364189Y74930
X369039Y74930
X364189Y72390
X369039Y72390
X364189Y69850
X369039Y69850
X364189Y67310
X369039Y67310
X364189Y64770
X369039Y64770
X364189Y62230
X369039Y62230
X364189Y59690
X369039Y59690
X364189Y57150
X369039Y57150
X364189Y54610
X369039Y54610
X364189Y52070
X369039Y52070
X364189Y49530
X369039Y49530
X364189Y46990
X369039Y46990
X364189Y44450
X369039Y44450
X364189Y41910
X369039Y41910
X364189Y39370
X369039Y39370
X406523Y100330
X411373Y100330
X406523Y97790
X411373Y97790
X406523Y95250
X411373Y95250
X406523Y92710
X411373Y92710
X406523Y90170
X411373Y90170
X406523Y87630
X411373Y87630
X406523Y85090
X411373Y85090
X406523Y82550
X411373Y82550
X242036Y92710
X411373Y80010
X406523Y77470
X411373Y77470
X406523Y74930
X411373Y74930
X406523Y72390
X411373Y72390
X406523Y69850
X411373Y69850
X406523Y67310
X411373Y67310
X406523Y64770
X411373Y64770
X406523Y62230
X411373Y62230
X406523Y59690
X411373Y59690
X406523Y57150
X411373Y57150
X406523Y54610
X411373Y54610
X406523Y52070
X411373Y52070
X406523Y49530
X411373Y49530
X406523Y46990
X411373Y46990
X406523Y44450
X411373Y44450
X406523Y41910
X411373Y41910
X406523Y39370
X411373Y39370
X20435Y97790
X25285Y97790
X20435Y95250
X25285Y95250
X20435Y92710
X25285Y92710
X20435Y90170
X25285Y90170
X20435Y87630
X25285Y87630
X20435Y85090
X25285Y85090
X20435Y82550
X25285Y82550
X20435Y80010
X25285Y80010
X20435Y77470
X25285Y77470
X20435Y74930
X25285Y74930
X20435Y72390
X25285Y72390
X20435Y69850
X406523Y80010
T7
X85113Y106523
X85113Y96363
X95273Y106523
X95273Y96363
T8
X81305Y116840
X76225Y116840
X73685Y116840
X71145Y116840
X71145Y121920
X73685Y121920
X76225Y121920
X81305Y121920
X60985Y116840
X55905Y116840
X53365Y116840
X50825Y116840
X50825Y121920
X53365Y121920
X55905Y121920
X60985Y121920
T9
X171533Y60985
X169017Y63505
X173380Y58381
X161996Y64745
M30