G04 EAGLE Gerber RS-274X export*
G75*
%MOMM*%
%FSLAX34Y34*%
%LPD*%
%INTop Copper*%
%IPPOS*%
%AMOC8*
5,1,8,0,0,1.08239X$1,22.5*%
G01*
%ADD10R,1.650000X1.650000*%
%ADD11C,1.650000*%
%ADD12C,2.171700*%
%ADD13C,1.508000*%
%ADD14C,1.270000*%
%ADD15C,1.943100*%
%ADD16C,2.247900*%
%ADD17C,1.270000*%
%ADD18C,0.508000*%
%ADD19C,0.756400*%

G36*
X4153999Y507115D02*
X4153999Y507115D01*
X4154019Y507113D01*
X4154120Y507135D01*
X4154222Y507152D01*
X4154240Y507161D01*
X4154259Y507165D01*
X4154348Y507218D01*
X4154440Y507267D01*
X4154453Y507281D01*
X4154470Y507291D01*
X4154538Y507370D01*
X4154609Y507445D01*
X4154617Y507463D01*
X4154630Y507478D01*
X4154669Y507574D01*
X4154713Y507668D01*
X4154715Y507688D01*
X4154722Y507706D01*
X4154741Y507873D01*
X4154741Y865188D01*
X4154738Y865207D01*
X4154740Y865227D01*
X4154718Y865328D01*
X4154701Y865430D01*
X4154692Y865448D01*
X4154687Y865467D01*
X4154634Y865556D01*
X4154586Y865648D01*
X4154572Y865661D01*
X4154561Y865678D01*
X4154483Y865746D01*
X4154408Y865817D01*
X4154390Y865825D01*
X4154374Y865838D01*
X4154278Y865877D01*
X4154185Y865921D01*
X4154165Y865923D01*
X4154146Y865930D01*
X4153980Y865949D01*
X952944Y865949D01*
X952925Y865946D01*
X952905Y865948D01*
X952804Y865926D01*
X952702Y865909D01*
X952684Y865900D01*
X952665Y865895D01*
X952576Y865842D01*
X952484Y865794D01*
X952471Y865780D01*
X952454Y865769D01*
X952386Y865691D01*
X952315Y865616D01*
X952307Y865598D01*
X952294Y865582D01*
X952255Y865486D01*
X952211Y865393D01*
X952209Y865373D01*
X952202Y865354D01*
X952183Y865188D01*
X952183Y863677D01*
X950298Y859125D01*
X946815Y855642D01*
X942263Y853757D01*
X937337Y853757D01*
X932785Y855642D01*
X929302Y859125D01*
X927417Y863677D01*
X927417Y865188D01*
X927414Y865207D01*
X927416Y865227D01*
X927394Y865328D01*
X927377Y865430D01*
X927368Y865448D01*
X927363Y865467D01*
X927310Y865556D01*
X927262Y865648D01*
X927248Y865661D01*
X927237Y865678D01*
X927159Y865746D01*
X927084Y865817D01*
X927066Y865825D01*
X927050Y865838D01*
X926954Y865877D01*
X926861Y865921D01*
X926841Y865923D01*
X926822Y865930D01*
X926656Y865949D01*
X800544Y865949D01*
X800525Y865946D01*
X800505Y865948D01*
X800404Y865926D01*
X800302Y865909D01*
X800284Y865900D01*
X800265Y865895D01*
X800176Y865842D01*
X800084Y865794D01*
X800071Y865780D01*
X800054Y865769D01*
X799986Y865691D01*
X799915Y865616D01*
X799907Y865598D01*
X799894Y865582D01*
X799855Y865486D01*
X799811Y865393D01*
X799809Y865373D01*
X799802Y865354D01*
X799783Y865188D01*
X799783Y863677D01*
X797898Y859125D01*
X794415Y855642D01*
X789863Y853757D01*
X784937Y853757D01*
X780385Y855642D01*
X776902Y859125D01*
X775017Y863677D01*
X775017Y865188D01*
X775014Y865207D01*
X775016Y865227D01*
X774994Y865328D01*
X774977Y865430D01*
X774968Y865448D01*
X774963Y865467D01*
X774910Y865556D01*
X774862Y865648D01*
X774848Y865661D01*
X774837Y865678D01*
X774759Y865746D01*
X774684Y865817D01*
X774666Y865825D01*
X774650Y865838D01*
X774554Y865877D01*
X774461Y865921D01*
X774441Y865923D01*
X774422Y865930D01*
X774256Y865949D01*
X567436Y865949D01*
X567416Y865946D01*
X567397Y865948D01*
X567295Y865926D01*
X567193Y865909D01*
X567176Y865900D01*
X567156Y865895D01*
X567067Y865842D01*
X566976Y865794D01*
X566962Y865780D01*
X566945Y865769D01*
X566878Y865691D01*
X566806Y865616D01*
X566798Y865598D01*
X566785Y865582D01*
X566746Y865486D01*
X566703Y865393D01*
X566701Y865373D01*
X566693Y865354D01*
X566675Y865188D01*
X566675Y568753D01*
X566677Y568741D01*
X566676Y568734D01*
X566685Y568693D01*
X566689Y568663D01*
X566697Y568572D01*
X566709Y568542D01*
X566714Y568510D01*
X566757Y568430D01*
X566793Y568346D01*
X566819Y568314D01*
X566830Y568293D01*
X566853Y568271D01*
X566898Y568215D01*
X569298Y565815D01*
X571183Y561263D01*
X571183Y556337D01*
X569298Y551785D01*
X565815Y548302D01*
X561263Y546417D01*
X556337Y546417D01*
X551785Y548302D01*
X548302Y551785D01*
X546417Y556337D01*
X546417Y561263D01*
X548302Y565815D01*
X550702Y568215D01*
X550755Y568289D01*
X550815Y568358D01*
X550827Y568388D01*
X550846Y568415D01*
X550873Y568502D01*
X550907Y568586D01*
X550911Y568627D01*
X550918Y568650D01*
X550917Y568682D01*
X550925Y568753D01*
X550925Y865188D01*
X550922Y865207D01*
X550924Y865227D01*
X550902Y865328D01*
X550886Y865430D01*
X550876Y865448D01*
X550872Y865467D01*
X550819Y865556D01*
X550770Y865648D01*
X550756Y865661D01*
X550746Y865678D01*
X550667Y865746D01*
X550592Y865817D01*
X550574Y865825D01*
X550559Y865838D01*
X550463Y865877D01*
X550369Y865921D01*
X550349Y865923D01*
X550331Y865930D01*
X550164Y865949D01*
X521144Y865949D01*
X521125Y865946D01*
X521105Y865948D01*
X521004Y865926D01*
X520902Y865909D01*
X520884Y865900D01*
X520865Y865895D01*
X520776Y865842D01*
X520684Y865794D01*
X520671Y865780D01*
X520654Y865769D01*
X520586Y865691D01*
X520515Y865616D01*
X520507Y865598D01*
X520494Y865582D01*
X520455Y865486D01*
X520411Y865393D01*
X520409Y865373D01*
X520402Y865354D01*
X520383Y865188D01*
X520383Y863677D01*
X518498Y859125D01*
X515015Y855642D01*
X510463Y853757D01*
X505537Y853757D01*
X500985Y855642D01*
X497502Y859125D01*
X495617Y863677D01*
X495617Y865188D01*
X495614Y865207D01*
X495616Y865227D01*
X495594Y865328D01*
X495577Y865430D01*
X495568Y865448D01*
X495563Y865467D01*
X495510Y865556D01*
X495462Y865648D01*
X495448Y865661D01*
X495437Y865678D01*
X495359Y865746D01*
X495284Y865817D01*
X495266Y865825D01*
X495250Y865838D01*
X495154Y865877D01*
X495061Y865921D01*
X495041Y865923D01*
X495022Y865930D01*
X494856Y865949D01*
X394144Y865949D01*
X394125Y865946D01*
X394105Y865948D01*
X394004Y865926D01*
X393902Y865909D01*
X393884Y865900D01*
X393865Y865895D01*
X393776Y865842D01*
X393684Y865794D01*
X393671Y865780D01*
X393654Y865769D01*
X393586Y865691D01*
X393515Y865616D01*
X393507Y865598D01*
X393494Y865582D01*
X393455Y865486D01*
X393411Y865393D01*
X393409Y865373D01*
X393402Y865354D01*
X393383Y865188D01*
X393383Y863677D01*
X391498Y859125D01*
X388015Y855642D01*
X383463Y853757D01*
X378537Y853757D01*
X373985Y855642D01*
X370502Y859125D01*
X368617Y863677D01*
X368617Y865188D01*
X368614Y865207D01*
X368616Y865227D01*
X368594Y865328D01*
X368577Y865430D01*
X368568Y865448D01*
X368563Y865467D01*
X368510Y865556D01*
X368462Y865648D01*
X368448Y865661D01*
X368437Y865678D01*
X368359Y865746D01*
X368284Y865817D01*
X368266Y865825D01*
X368250Y865838D01*
X368154Y865877D01*
X368061Y865921D01*
X368041Y865923D01*
X368022Y865930D01*
X367856Y865949D01*
X144018Y865949D01*
X143998Y865946D01*
X143979Y865948D01*
X143877Y865926D01*
X143775Y865909D01*
X143758Y865900D01*
X143738Y865895D01*
X143649Y865842D01*
X143558Y865794D01*
X143544Y865780D01*
X143527Y865769D01*
X143460Y865691D01*
X143389Y865616D01*
X143380Y865598D01*
X143367Y865582D01*
X143328Y865486D01*
X143285Y865393D01*
X143283Y865373D01*
X143275Y865354D01*
X143257Y865188D01*
X143257Y507873D01*
X143260Y507853D01*
X143258Y507834D01*
X143280Y507732D01*
X143297Y507630D01*
X143306Y507613D01*
X143310Y507593D01*
X143363Y507504D01*
X143412Y507413D01*
X143426Y507399D01*
X143436Y507382D01*
X143515Y507315D01*
X143590Y507244D01*
X143608Y507235D01*
X143623Y507222D01*
X143719Y507183D01*
X143813Y507140D01*
X143833Y507138D01*
X143851Y507130D01*
X144018Y507112D01*
X4153980Y507112D01*
X4153999Y507115D01*
G37*
G36*
X550184Y913134D02*
X550184Y913134D01*
X550203Y913132D01*
X550305Y913154D01*
X550407Y913171D01*
X550424Y913180D01*
X550444Y913184D01*
X550533Y913237D01*
X550624Y913286D01*
X550638Y913300D01*
X550655Y913310D01*
X550722Y913389D01*
X550794Y913464D01*
X550802Y913482D01*
X550815Y913497D01*
X550854Y913593D01*
X550897Y913687D01*
X550899Y913707D01*
X550907Y913725D01*
X550925Y913892D01*
X550925Y955247D01*
X550911Y955337D01*
X550903Y955428D01*
X550891Y955458D01*
X550886Y955490D01*
X550843Y955570D01*
X550807Y955654D01*
X550781Y955686D01*
X550770Y955707D01*
X550747Y955729D01*
X550702Y955785D01*
X548302Y958185D01*
X546417Y962737D01*
X546417Y967663D01*
X548302Y972215D01*
X551785Y975698D01*
X556337Y977583D01*
X561263Y977583D01*
X565815Y975698D01*
X569298Y972215D01*
X571183Y967663D01*
X571183Y962737D01*
X569298Y958185D01*
X566898Y955785D01*
X566845Y955711D01*
X566785Y955642D01*
X566773Y955612D01*
X566754Y955585D01*
X566727Y955498D01*
X566693Y955414D01*
X566689Y955373D01*
X566682Y955350D01*
X566683Y955318D01*
X566675Y955247D01*
X566675Y913892D01*
X566678Y913872D01*
X566676Y913853D01*
X566698Y913751D01*
X566714Y913649D01*
X566724Y913632D01*
X566728Y913612D01*
X566781Y913523D01*
X566830Y913432D01*
X566844Y913418D01*
X566854Y913401D01*
X566933Y913334D01*
X567008Y913263D01*
X567026Y913254D01*
X567041Y913241D01*
X567137Y913202D01*
X567231Y913159D01*
X567251Y913157D01*
X567269Y913149D01*
X567436Y913131D01*
X4157155Y913131D01*
X4157174Y913134D01*
X4157194Y913132D01*
X4157295Y913154D01*
X4157397Y913171D01*
X4157415Y913180D01*
X4157434Y913184D01*
X4157523Y913237D01*
X4157615Y913286D01*
X4157628Y913300D01*
X4157645Y913310D01*
X4157713Y913389D01*
X4157784Y913464D01*
X4157792Y913482D01*
X4157805Y913497D01*
X4157844Y913593D01*
X4157888Y913687D01*
X4157890Y913707D01*
X4157897Y913725D01*
X4157916Y913892D01*
X4157916Y1042480D01*
X4157913Y1042499D01*
X4157915Y1042519D01*
X4157893Y1042620D01*
X4157876Y1042722D01*
X4157867Y1042740D01*
X4157862Y1042759D01*
X4157809Y1042848D01*
X4157761Y1042940D01*
X4157747Y1042953D01*
X4157736Y1042970D01*
X4157658Y1043038D01*
X4157583Y1043109D01*
X4157565Y1043117D01*
X4157549Y1043130D01*
X4157453Y1043169D01*
X4157360Y1043213D01*
X4157340Y1043215D01*
X4157321Y1043222D01*
X4157155Y1043241D01*
X144018Y1043241D01*
X143998Y1043238D01*
X143979Y1043240D01*
X143877Y1043218D01*
X143775Y1043201D01*
X143758Y1043192D01*
X143738Y1043187D01*
X143649Y1043134D01*
X143558Y1043086D01*
X143544Y1043072D01*
X143527Y1043061D01*
X143460Y1042983D01*
X143389Y1042908D01*
X143380Y1042890D01*
X143367Y1042874D01*
X143328Y1042778D01*
X143285Y1042685D01*
X143283Y1042665D01*
X143275Y1042646D01*
X143257Y1042480D01*
X143257Y913892D01*
X143260Y913872D01*
X143258Y913853D01*
X143280Y913751D01*
X143297Y913649D01*
X143306Y913632D01*
X143310Y913612D01*
X143363Y913523D01*
X143412Y913432D01*
X143426Y913418D01*
X143436Y913401D01*
X143515Y913334D01*
X143590Y913263D01*
X143608Y913254D01*
X143623Y913241D01*
X143719Y913202D01*
X143813Y913159D01*
X143833Y913157D01*
X143851Y913149D01*
X144018Y913131D01*
X550164Y913131D01*
X550184Y913134D01*
G37*
G36*
X198049Y426863D02*
X198049Y426863D01*
X198140Y426870D01*
X198170Y426882D01*
X198202Y426888D01*
X198282Y426930D01*
X198366Y426966D01*
X198398Y426992D01*
X198419Y427003D01*
X198441Y427026D01*
X198497Y427071D01*
X198813Y427387D01*
X202406Y428875D01*
X206294Y428875D01*
X209887Y427387D01*
X210203Y427071D01*
X210277Y427018D01*
X210346Y426958D01*
X210376Y426946D01*
X210403Y426927D01*
X210490Y426900D01*
X210574Y426866D01*
X210615Y426862D01*
X210638Y426855D01*
X210670Y426856D01*
X210741Y426848D01*
X246459Y426848D01*
X246549Y426863D01*
X246640Y426870D01*
X246670Y426882D01*
X246702Y426888D01*
X246782Y426930D01*
X246866Y426966D01*
X246898Y426992D01*
X246919Y427003D01*
X246941Y427026D01*
X246997Y427071D01*
X247313Y427387D01*
X250906Y428875D01*
X254794Y428875D01*
X258387Y427387D01*
X258703Y427071D01*
X258777Y427018D01*
X258846Y426958D01*
X258876Y426946D01*
X258903Y426927D01*
X258990Y426900D01*
X259074Y426866D01*
X259115Y426862D01*
X259138Y426855D01*
X259170Y426856D01*
X259241Y426848D01*
X621301Y426848D01*
X621391Y426863D01*
X621482Y426870D01*
X621511Y426882D01*
X621543Y426888D01*
X621624Y426930D01*
X621708Y426966D01*
X621740Y426992D01*
X621761Y427003D01*
X621783Y427026D01*
X621839Y427071D01*
X622155Y427387D01*
X625747Y428875D01*
X629636Y428875D01*
X633229Y427387D01*
X633545Y427071D01*
X633619Y427018D01*
X633688Y426958D01*
X633718Y426946D01*
X633744Y426927D01*
X633831Y426900D01*
X633916Y426866D01*
X633957Y426862D01*
X633979Y426855D01*
X634012Y426856D01*
X634083Y426848D01*
X669801Y426848D01*
X669891Y426863D01*
X669982Y426870D01*
X670011Y426882D01*
X670043Y426888D01*
X670124Y426930D01*
X670208Y426966D01*
X670240Y426992D01*
X670261Y427003D01*
X670283Y427026D01*
X670339Y427071D01*
X670655Y427387D01*
X674247Y428875D01*
X678136Y428875D01*
X681729Y427387D01*
X682045Y427071D01*
X682119Y427018D01*
X682188Y426958D01*
X682218Y426946D01*
X682244Y426927D01*
X682331Y426900D01*
X682416Y426866D01*
X682457Y426862D01*
X682479Y426855D01*
X682512Y426856D01*
X682583Y426848D01*
X1044642Y426848D01*
X1044733Y426863D01*
X1044823Y426870D01*
X1044853Y426882D01*
X1044885Y426888D01*
X1044966Y426930D01*
X1045050Y426966D01*
X1045082Y426992D01*
X1045103Y427003D01*
X1045125Y427026D01*
X1045181Y427071D01*
X1045497Y427387D01*
X1049089Y428875D01*
X1052978Y428875D01*
X1056571Y427387D01*
X1056886Y427071D01*
X1056960Y427018D01*
X1057030Y426958D01*
X1057060Y426946D01*
X1057086Y426927D01*
X1057173Y426900D01*
X1057258Y426866D01*
X1057299Y426862D01*
X1057321Y426855D01*
X1057353Y426856D01*
X1057425Y426848D01*
X1093142Y426848D01*
X1093233Y426863D01*
X1093323Y426870D01*
X1093353Y426882D01*
X1093385Y426888D01*
X1093466Y426930D01*
X1093550Y426966D01*
X1093582Y426992D01*
X1093603Y427003D01*
X1093625Y427026D01*
X1093681Y427071D01*
X1093997Y427387D01*
X1097589Y428875D01*
X1101478Y428875D01*
X1105071Y427387D01*
X1105386Y427071D01*
X1105460Y427018D01*
X1105530Y426958D01*
X1105560Y426946D01*
X1105586Y426927D01*
X1105673Y426900D01*
X1105758Y426866D01*
X1105799Y426862D01*
X1105821Y426855D01*
X1105853Y426856D01*
X1105925Y426848D01*
X1518784Y426848D01*
X1518874Y426863D01*
X1518965Y426870D01*
X1518995Y426882D01*
X1519027Y426888D01*
X1519108Y426930D01*
X1519192Y426966D01*
X1519224Y426992D01*
X1519244Y427003D01*
X1519267Y427026D01*
X1519323Y427071D01*
X1519638Y427387D01*
X1523231Y428875D01*
X1527120Y428875D01*
X1530712Y427387D01*
X1531028Y427071D01*
X1531102Y427018D01*
X1531172Y426958D01*
X1531202Y426946D01*
X1531228Y426927D01*
X1531315Y426900D01*
X1531400Y426866D01*
X1531441Y426862D01*
X1531463Y426855D01*
X1531495Y426856D01*
X1531567Y426848D01*
X1567284Y426848D01*
X1567374Y426863D01*
X1567465Y426870D01*
X1567495Y426882D01*
X1567527Y426888D01*
X1567608Y426930D01*
X1567692Y426966D01*
X1567724Y426992D01*
X1567744Y427003D01*
X1567767Y427026D01*
X1567823Y427071D01*
X1568138Y427387D01*
X1571731Y428875D01*
X1575620Y428875D01*
X1579212Y427387D01*
X1579528Y427071D01*
X1579602Y427018D01*
X1579672Y426958D01*
X1579702Y426946D01*
X1579728Y426927D01*
X1579815Y426900D01*
X1579900Y426866D01*
X1579941Y426862D01*
X1579963Y426855D01*
X1579995Y426856D01*
X1580067Y426848D01*
X1942126Y426848D01*
X1942216Y426863D01*
X1942307Y426870D01*
X1942337Y426882D01*
X1942369Y426888D01*
X1942449Y426930D01*
X1942533Y426966D01*
X1942565Y426992D01*
X1942586Y427003D01*
X1942608Y427026D01*
X1942664Y427071D01*
X1942980Y427387D01*
X1946573Y428875D01*
X1950462Y428875D01*
X1954054Y427387D01*
X1954370Y427071D01*
X1954444Y427018D01*
X1954513Y426958D01*
X1954544Y426946D01*
X1954570Y426927D01*
X1954657Y426900D01*
X1954742Y426866D01*
X1954783Y426862D01*
X1954805Y426855D01*
X1954837Y426856D01*
X1954908Y426848D01*
X1990626Y426848D01*
X1990716Y426863D01*
X1990807Y426870D01*
X1990837Y426882D01*
X1990869Y426888D01*
X1990949Y426930D01*
X1991033Y426966D01*
X1991065Y426992D01*
X1991086Y427003D01*
X1991108Y427026D01*
X1991164Y427071D01*
X1991480Y427387D01*
X1995073Y428875D01*
X1998962Y428875D01*
X2002554Y427387D01*
X2002870Y427071D01*
X2002944Y427018D01*
X2003013Y426958D01*
X2003044Y426946D01*
X2003070Y426927D01*
X2003157Y426900D01*
X2003242Y426866D01*
X2003283Y426862D01*
X2003305Y426855D01*
X2003337Y426856D01*
X2003408Y426848D01*
X2365468Y426848D01*
X2365558Y426863D01*
X2365649Y426870D01*
X2365679Y426882D01*
X2365711Y426888D01*
X2365791Y426930D01*
X2365875Y426966D01*
X2365907Y426992D01*
X2365928Y427003D01*
X2365950Y427026D01*
X2366006Y427071D01*
X2366322Y427387D01*
X2369915Y428875D01*
X2373803Y428875D01*
X2377396Y427387D01*
X2377712Y427071D01*
X2377786Y427018D01*
X2377855Y426958D01*
X2377885Y426946D01*
X2377912Y426927D01*
X2377999Y426900D01*
X2378083Y426866D01*
X2378124Y426862D01*
X2378147Y426855D01*
X2378179Y426856D01*
X2378250Y426848D01*
X2413968Y426848D01*
X2414058Y426863D01*
X2414149Y426870D01*
X2414179Y426882D01*
X2414211Y426888D01*
X2414291Y426930D01*
X2414375Y426966D01*
X2414407Y426992D01*
X2414428Y427003D01*
X2414450Y427026D01*
X2414506Y427071D01*
X2414822Y427387D01*
X2418415Y428875D01*
X2422303Y428875D01*
X2425896Y427387D01*
X2426212Y427071D01*
X2426286Y427018D01*
X2426355Y426958D01*
X2426385Y426946D01*
X2426412Y426927D01*
X2426499Y426900D01*
X2426583Y426866D01*
X2426624Y426862D01*
X2426647Y426855D01*
X2426679Y426856D01*
X2426750Y426848D01*
X2788810Y426848D01*
X2788900Y426863D01*
X2788991Y426870D01*
X2789020Y426882D01*
X2789052Y426888D01*
X2789133Y426930D01*
X2789217Y426966D01*
X2789249Y426992D01*
X2789270Y427003D01*
X2789292Y427026D01*
X2789348Y427071D01*
X2789664Y427387D01*
X2793256Y428875D01*
X2797145Y428875D01*
X2800738Y427387D01*
X2801054Y427071D01*
X2801128Y427018D01*
X2801197Y426958D01*
X2801227Y426946D01*
X2801253Y426927D01*
X2801340Y426900D01*
X2801425Y426866D01*
X2801466Y426862D01*
X2801488Y426855D01*
X2801521Y426856D01*
X2801592Y426848D01*
X2837310Y426848D01*
X2837400Y426863D01*
X2837491Y426870D01*
X2837520Y426882D01*
X2837552Y426888D01*
X2837633Y426930D01*
X2837717Y426966D01*
X2837749Y426992D01*
X2837770Y427003D01*
X2837792Y427026D01*
X2837848Y427071D01*
X2838164Y427387D01*
X2841756Y428875D01*
X2845645Y428875D01*
X2849238Y427387D01*
X2849554Y427071D01*
X2849628Y427018D01*
X2849697Y426958D01*
X2849727Y426946D01*
X2849753Y426927D01*
X2849840Y426900D01*
X2849925Y426866D01*
X2849966Y426862D01*
X2849988Y426855D01*
X2850021Y426856D01*
X2850092Y426848D01*
X3212151Y426848D01*
X3212242Y426863D01*
X3212332Y426870D01*
X3212362Y426882D01*
X3212394Y426888D01*
X3212475Y426930D01*
X3212559Y426966D01*
X3212591Y426992D01*
X3212612Y427003D01*
X3212634Y427026D01*
X3212690Y427071D01*
X3213006Y427387D01*
X3216598Y428875D01*
X3220487Y428875D01*
X3224080Y427387D01*
X3224395Y427071D01*
X3224469Y427018D01*
X3224539Y426958D01*
X3224569Y426946D01*
X3224595Y426927D01*
X3224682Y426900D01*
X3224767Y426866D01*
X3224808Y426862D01*
X3224830Y426855D01*
X3224862Y426856D01*
X3224934Y426848D01*
X3260651Y426848D01*
X3260742Y426863D01*
X3260832Y426870D01*
X3260862Y426882D01*
X3260894Y426888D01*
X3260975Y426930D01*
X3261059Y426966D01*
X3261091Y426992D01*
X3261112Y427003D01*
X3261134Y427026D01*
X3261190Y427071D01*
X3261506Y427387D01*
X3265098Y428875D01*
X3268987Y428875D01*
X3272580Y427387D01*
X3272895Y427071D01*
X3272969Y427018D01*
X3273039Y426958D01*
X3273069Y426946D01*
X3273095Y426927D01*
X3273182Y426900D01*
X3273267Y426866D01*
X3273308Y426862D01*
X3273330Y426855D01*
X3273362Y426856D01*
X3273434Y426848D01*
X3635501Y426848D01*
X3635591Y426863D01*
X3635682Y426870D01*
X3635712Y426882D01*
X3635744Y426888D01*
X3635824Y426930D01*
X3635908Y426966D01*
X3635940Y426992D01*
X3635961Y427003D01*
X3635983Y427026D01*
X3636039Y427071D01*
X3636355Y427387D01*
X3639948Y428875D01*
X3643836Y428875D01*
X3647429Y427387D01*
X3647745Y427071D01*
X3647819Y427018D01*
X3647888Y426958D01*
X3647918Y426946D01*
X3647945Y426927D01*
X3648032Y426900D01*
X3648116Y426866D01*
X3648157Y426862D01*
X3648180Y426855D01*
X3648212Y426856D01*
X3648283Y426848D01*
X3684001Y426848D01*
X3684091Y426863D01*
X3684182Y426870D01*
X3684212Y426882D01*
X3684244Y426888D01*
X3684324Y426930D01*
X3684408Y426966D01*
X3684440Y426992D01*
X3684461Y427003D01*
X3684483Y427026D01*
X3684539Y427071D01*
X3684855Y427387D01*
X3688448Y428875D01*
X3692336Y428875D01*
X3695929Y427387D01*
X3696245Y427071D01*
X3696319Y427018D01*
X3696388Y426958D01*
X3696418Y426946D01*
X3696445Y426927D01*
X3696532Y426900D01*
X3696616Y426866D01*
X3696657Y426862D01*
X3696680Y426855D01*
X3696712Y426856D01*
X3696783Y426848D01*
X4058835Y426848D01*
X4058925Y426863D01*
X4059016Y426870D01*
X4059046Y426882D01*
X4059078Y426888D01*
X4059158Y426930D01*
X4059242Y426966D01*
X4059274Y426992D01*
X4059295Y427003D01*
X4059317Y427026D01*
X4059373Y427071D01*
X4059689Y427387D01*
X4063282Y428875D01*
X4067171Y428875D01*
X4070763Y427387D01*
X4071079Y427071D01*
X4071153Y427018D01*
X4071222Y426958D01*
X4071253Y426946D01*
X4071279Y426927D01*
X4071366Y426900D01*
X4071451Y426866D01*
X4071492Y426862D01*
X4071514Y426855D01*
X4071546Y426856D01*
X4071617Y426848D01*
X4107335Y426848D01*
X4107425Y426863D01*
X4107516Y426870D01*
X4107546Y426882D01*
X4107578Y426888D01*
X4107658Y426930D01*
X4107742Y426966D01*
X4107774Y426992D01*
X4107795Y427003D01*
X4107817Y427026D01*
X4107873Y427071D01*
X4108189Y427387D01*
X4111782Y428875D01*
X4115671Y428875D01*
X4119263Y427387D01*
X4119579Y427071D01*
X4119653Y427018D01*
X4119722Y426958D01*
X4119753Y426946D01*
X4119779Y426927D01*
X4119866Y426900D01*
X4119951Y426866D01*
X4119992Y426862D01*
X4120014Y426855D01*
X4120046Y426856D01*
X4120117Y426848D01*
X4154678Y426848D01*
X4154698Y426851D01*
X4154718Y426849D01*
X4154819Y426871D01*
X4154921Y426888D01*
X4154939Y426897D01*
X4154958Y426901D01*
X4155047Y426954D01*
X4155138Y427003D01*
X4155152Y427017D01*
X4155169Y427027D01*
X4155237Y427106D01*
X4155308Y427181D01*
X4155316Y427199D01*
X4155329Y427214D01*
X4155368Y427310D01*
X4155411Y427404D01*
X4155414Y427424D01*
X4155421Y427442D01*
X4155439Y427609D01*
X4155439Y487185D01*
X4155436Y487205D01*
X4155438Y487224D01*
X4155416Y487326D01*
X4155400Y487428D01*
X4155390Y487445D01*
X4155386Y487465D01*
X4155333Y487554D01*
X4155285Y487645D01*
X4155270Y487659D01*
X4155260Y487676D01*
X4155181Y487743D01*
X4155106Y487814D01*
X4155088Y487823D01*
X4155073Y487836D01*
X4154977Y487874D01*
X4154883Y487918D01*
X4154863Y487920D01*
X4154845Y487928D01*
X4154678Y487946D01*
X4120502Y487937D01*
X4120412Y487923D01*
X4120322Y487916D01*
X4120292Y487903D01*
X4120260Y487898D01*
X4120179Y487855D01*
X4120095Y487819D01*
X4120063Y487794D01*
X4120042Y487783D01*
X4120020Y487759D01*
X4119964Y487714D01*
X4119263Y487013D01*
X4115671Y485525D01*
X4111782Y485525D01*
X4108189Y487013D01*
X4107492Y487711D01*
X4107417Y487764D01*
X4107348Y487824D01*
X4107318Y487836D01*
X4107292Y487855D01*
X4107205Y487881D01*
X4107120Y487916D01*
X4107079Y487920D01*
X4107057Y487927D01*
X4107024Y487926D01*
X4106953Y487934D01*
X4071990Y487925D01*
X4071900Y487910D01*
X4071809Y487903D01*
X4071779Y487891D01*
X4071747Y487885D01*
X4071667Y487843D01*
X4071583Y487807D01*
X4071551Y487781D01*
X4071530Y487770D01*
X4071508Y487747D01*
X4071452Y487702D01*
X4070763Y487013D01*
X4067171Y485525D01*
X4063282Y485525D01*
X4059689Y487013D01*
X4059004Y487699D01*
X4058930Y487752D01*
X4058860Y487812D01*
X4058830Y487824D01*
X4058804Y487842D01*
X4058717Y487869D01*
X4058632Y487903D01*
X4058591Y487908D01*
X4058569Y487915D01*
X4058537Y487914D01*
X4058465Y487922D01*
X3697062Y487831D01*
X3696972Y487816D01*
X3696881Y487809D01*
X3696851Y487796D01*
X3696819Y487791D01*
X3696738Y487748D01*
X3696654Y487713D01*
X3696622Y487687D01*
X3696601Y487676D01*
X3696579Y487653D01*
X3696523Y487608D01*
X3695929Y487013D01*
X3692336Y485525D01*
X3688448Y485525D01*
X3684855Y487013D01*
X3684264Y487605D01*
X3684190Y487658D01*
X3684120Y487717D01*
X3684090Y487729D01*
X3684064Y487748D01*
X3683977Y487775D01*
X3683892Y487809D01*
X3683851Y487814D01*
X3683829Y487820D01*
X3683797Y487820D01*
X3683725Y487827D01*
X3648549Y487819D01*
X3648459Y487804D01*
X3648369Y487797D01*
X3648339Y487784D01*
X3648307Y487779D01*
X3648226Y487736D01*
X3648142Y487700D01*
X3648110Y487675D01*
X3648089Y487664D01*
X3648067Y487640D01*
X3648011Y487596D01*
X3647429Y487013D01*
X3643836Y485525D01*
X3639948Y485525D01*
X3636355Y487013D01*
X3635776Y487592D01*
X3635702Y487646D01*
X3635633Y487705D01*
X3635603Y487717D01*
X3635576Y487736D01*
X3635489Y487763D01*
X3635404Y487797D01*
X3635364Y487801D01*
X3635341Y487808D01*
X3635309Y487807D01*
X3635238Y487815D01*
X3273606Y487724D01*
X3273516Y487710D01*
X3273425Y487702D01*
X3273395Y487690D01*
X3273363Y487684D01*
X3273282Y487642D01*
X3273198Y487606D01*
X3273166Y487580D01*
X3273145Y487569D01*
X3273123Y487546D01*
X3273067Y487501D01*
X3272580Y487013D01*
X3268987Y485525D01*
X3265098Y485525D01*
X3261506Y487013D01*
X3261021Y487498D01*
X3260947Y487551D01*
X3260877Y487611D01*
X3260847Y487623D01*
X3260821Y487642D01*
X3260734Y487668D01*
X3260649Y487703D01*
X3260609Y487707D01*
X3260586Y487714D01*
X3260554Y487713D01*
X3260483Y487721D01*
X3225093Y487712D01*
X3225003Y487697D01*
X3224913Y487690D01*
X3224883Y487677D01*
X3224851Y487672D01*
X3224770Y487630D01*
X3224686Y487594D01*
X3224654Y487568D01*
X3224633Y487557D01*
X3224611Y487534D01*
X3224555Y487489D01*
X3224080Y487013D01*
X3220487Y485525D01*
X3216598Y485525D01*
X3213006Y487013D01*
X3212533Y487486D01*
X3212459Y487539D01*
X3212390Y487598D01*
X3212360Y487611D01*
X3212334Y487629D01*
X3212246Y487656D01*
X3212161Y487690D01*
X3212121Y487695D01*
X3212098Y487702D01*
X3212066Y487701D01*
X3211995Y487709D01*
X2850157Y487618D01*
X2850067Y487603D01*
X2849976Y487596D01*
X2849947Y487583D01*
X2849914Y487578D01*
X2849834Y487535D01*
X2849750Y487500D01*
X2849718Y487474D01*
X2849697Y487463D01*
X2849675Y487439D01*
X2849619Y487395D01*
X2849238Y487013D01*
X2845645Y485525D01*
X2841756Y485525D01*
X2838164Y487013D01*
X2837786Y487391D01*
X2837712Y487445D01*
X2837642Y487504D01*
X2837612Y487516D01*
X2837586Y487535D01*
X2837499Y487562D01*
X2837414Y487596D01*
X2837373Y487600D01*
X2837351Y487607D01*
X2837319Y487607D01*
X2837247Y487614D01*
X2801645Y487605D01*
X2801555Y487591D01*
X2801464Y487584D01*
X2801434Y487571D01*
X2801402Y487566D01*
X2801322Y487523D01*
X2801238Y487487D01*
X2801206Y487462D01*
X2801185Y487451D01*
X2801163Y487427D01*
X2801107Y487383D01*
X2800738Y487013D01*
X2797145Y485525D01*
X2793256Y485525D01*
X2789664Y487013D01*
X2789298Y487379D01*
X2789224Y487433D01*
X2789154Y487492D01*
X2789124Y487504D01*
X2789098Y487523D01*
X2789011Y487550D01*
X2788926Y487584D01*
X2788886Y487588D01*
X2788863Y487595D01*
X2788831Y487594D01*
X2788760Y487602D01*
X2426709Y487511D01*
X2426619Y487496D01*
X2426528Y487489D01*
X2426498Y487477D01*
X2426466Y487471D01*
X2426386Y487429D01*
X2426302Y487393D01*
X2426269Y487367D01*
X2426249Y487356D01*
X2426226Y487333D01*
X2426171Y487288D01*
X2425896Y487013D01*
X2422303Y485525D01*
X2418415Y485525D01*
X2414822Y487013D01*
X2414550Y487285D01*
X2414476Y487338D01*
X2414407Y487398D01*
X2414377Y487410D01*
X2414351Y487428D01*
X2414264Y487455D01*
X2414179Y487489D01*
X2414138Y487494D01*
X2414116Y487501D01*
X2414083Y487500D01*
X2414012Y487508D01*
X2378197Y487499D01*
X2378107Y487484D01*
X2378016Y487477D01*
X2377986Y487464D01*
X2377954Y487459D01*
X2377873Y487416D01*
X2377789Y487381D01*
X2377757Y487355D01*
X2377736Y487344D01*
X2377714Y487321D01*
X2377658Y487276D01*
X2377396Y487013D01*
X2373803Y485525D01*
X2369915Y485525D01*
X2366322Y487013D01*
X2366063Y487273D01*
X2365989Y487326D01*
X2365919Y487385D01*
X2365889Y487397D01*
X2365863Y487416D01*
X2365776Y487443D01*
X2365691Y487477D01*
X2365650Y487482D01*
X2365628Y487489D01*
X2365596Y487488D01*
X2365524Y487496D01*
X2003260Y487405D01*
X2003170Y487390D01*
X2003080Y487383D01*
X2003050Y487370D01*
X2003018Y487365D01*
X2002937Y487322D01*
X2002853Y487286D01*
X2002821Y487261D01*
X2002800Y487250D01*
X2002778Y487226D01*
X2002722Y487182D01*
X2002554Y487013D01*
X1998962Y485525D01*
X1995073Y485525D01*
X1991480Y487013D01*
X1991315Y487178D01*
X1991241Y487232D01*
X1991172Y487291D01*
X1991142Y487303D01*
X1991116Y487322D01*
X1991028Y487349D01*
X1990943Y487383D01*
X1990903Y487387D01*
X1990880Y487394D01*
X1990848Y487393D01*
X1990777Y487401D01*
X1954748Y487392D01*
X1954658Y487378D01*
X1954567Y487370D01*
X1954538Y487358D01*
X1954505Y487352D01*
X1954425Y487310D01*
X1954341Y487274D01*
X1954309Y487248D01*
X1954288Y487237D01*
X1954266Y487214D01*
X1954210Y487169D01*
X1954054Y487013D01*
X1950462Y485525D01*
X1946573Y485525D01*
X1942980Y487013D01*
X1942827Y487166D01*
X1942753Y487219D01*
X1942684Y487279D01*
X1942654Y487291D01*
X1942628Y487310D01*
X1942540Y487337D01*
X1942456Y487371D01*
X1942415Y487375D01*
X1942393Y487382D01*
X1942360Y487381D01*
X1942289Y487389D01*
X1579812Y487298D01*
X1579722Y487283D01*
X1579631Y487276D01*
X1579601Y487263D01*
X1579569Y487258D01*
X1579489Y487215D01*
X1579405Y487180D01*
X1579373Y487154D01*
X1579352Y487143D01*
X1579330Y487120D01*
X1579274Y487075D01*
X1579212Y487013D01*
X1575620Y485525D01*
X1571731Y485525D01*
X1568138Y487013D01*
X1568080Y487072D01*
X1568006Y487125D01*
X1567936Y487185D01*
X1567906Y487197D01*
X1567880Y487215D01*
X1567793Y487242D01*
X1567708Y487276D01*
X1567668Y487281D01*
X1567645Y487288D01*
X1567613Y487287D01*
X1567541Y487295D01*
X1531300Y487286D01*
X1531210Y487271D01*
X1531119Y487264D01*
X1531089Y487251D01*
X1531057Y487246D01*
X1530977Y487203D01*
X1530893Y487168D01*
X1530861Y487142D01*
X1530840Y487131D01*
X1530817Y487107D01*
X1530762Y487063D01*
X1530712Y487013D01*
X1527120Y485525D01*
X1523231Y485525D01*
X1519638Y487013D01*
X1519592Y487060D01*
X1519518Y487113D01*
X1519449Y487172D01*
X1519419Y487184D01*
X1519393Y487203D01*
X1519305Y487230D01*
X1519220Y487264D01*
X1519180Y487269D01*
X1519157Y487276D01*
X1519125Y487275D01*
X1519054Y487283D01*
X1105551Y487179D01*
X1105461Y487164D01*
X1105370Y487157D01*
X1105340Y487144D01*
X1105308Y487139D01*
X1105228Y487096D01*
X1105144Y487060D01*
X1105111Y487035D01*
X1105091Y487024D01*
X1105088Y487021D01*
X1101478Y485525D01*
X1097589Y485525D01*
X1093954Y487031D01*
X1093914Y487065D01*
X1093884Y487077D01*
X1093858Y487096D01*
X1093770Y487123D01*
X1093686Y487157D01*
X1093645Y487162D01*
X1093623Y487168D01*
X1093591Y487168D01*
X1093519Y487176D01*
X1057039Y487166D01*
X1056949Y487152D01*
X1056858Y487144D01*
X1056828Y487132D01*
X1056796Y487127D01*
X1056715Y487084D01*
X1056631Y487048D01*
X1056607Y487028D01*
X1052978Y485525D01*
X1049089Y485525D01*
X1045450Y487033D01*
X1045426Y487053D01*
X1045396Y487065D01*
X1045370Y487084D01*
X1045283Y487111D01*
X1045198Y487145D01*
X1045157Y487149D01*
X1045135Y487156D01*
X1045103Y487155D01*
X1045031Y487163D01*
X682021Y487072D01*
X681957Y487061D01*
X681891Y487061D01*
X681811Y487037D01*
X681779Y487032D01*
X681762Y487023D01*
X681730Y487014D01*
X678136Y485525D01*
X674247Y485525D01*
X670660Y487011D01*
X670596Y487026D01*
X670536Y487051D01*
X670453Y487060D01*
X670421Y487067D01*
X670402Y487065D01*
X670369Y487069D01*
X633492Y487060D01*
X633427Y487049D01*
X633362Y487049D01*
X633282Y487025D01*
X633249Y487020D01*
X633232Y487011D01*
X633201Y487002D01*
X629636Y485525D01*
X625747Y485525D01*
X622190Y486999D01*
X622126Y487014D01*
X622065Y487038D01*
X621982Y487048D01*
X621950Y487055D01*
X621931Y487053D01*
X621898Y487057D01*
X258422Y486965D01*
X258358Y486955D01*
X258292Y486954D01*
X258212Y486931D01*
X258179Y486926D01*
X258162Y486917D01*
X258131Y486907D01*
X254794Y485525D01*
X250906Y485525D01*
X247576Y486905D01*
X247512Y486920D01*
X247451Y486944D01*
X247368Y486953D01*
X247336Y486961D01*
X247317Y486959D01*
X247284Y486963D01*
X209893Y486953D01*
X209828Y486943D01*
X209763Y486942D01*
X209682Y486919D01*
X209650Y486913D01*
X209633Y486904D01*
X209602Y486895D01*
X206294Y485525D01*
X202406Y485525D01*
X199105Y486892D01*
X199041Y486907D01*
X198980Y486932D01*
X198898Y486941D01*
X198866Y486949D01*
X198846Y486947D01*
X198814Y486950D01*
X143825Y486937D01*
X143802Y486933D01*
X143779Y486935D01*
X143681Y486913D01*
X143582Y486897D01*
X143562Y486886D01*
X143539Y486881D01*
X143454Y486829D01*
X143365Y486782D01*
X143349Y486765D01*
X143329Y486753D01*
X143265Y486676D01*
X143196Y486603D01*
X143186Y486582D01*
X143171Y486564D01*
X143134Y486471D01*
X143092Y486380D01*
X143089Y486357D01*
X143081Y486336D01*
X143064Y486169D01*
X143574Y427602D01*
X143577Y427586D01*
X143575Y427570D01*
X143598Y427465D01*
X143616Y427360D01*
X143624Y427345D01*
X143628Y427329D01*
X143682Y427237D01*
X143733Y427144D01*
X143745Y427132D01*
X143754Y427118D01*
X143835Y427049D01*
X143913Y426976D01*
X143928Y426969D01*
X143941Y426958D01*
X144040Y426918D01*
X144137Y426874D01*
X144153Y426872D01*
X144169Y426866D01*
X144336Y426848D01*
X197959Y426848D01*
X198049Y426863D01*
G37*
%LPC*%
G36*
X1713127Y604547D02*
X1713127Y604547D01*
X1710019Y607656D01*
X1710019Y612052D01*
X1711038Y613071D01*
X1711091Y613145D01*
X1711150Y613215D01*
X1711163Y613245D01*
X1711181Y613271D01*
X1711208Y613358D01*
X1711242Y613443D01*
X1711247Y613484D01*
X1711254Y613506D01*
X1711253Y613538D01*
X1711261Y613609D01*
X1711261Y614497D01*
X1758625Y661861D01*
X1758678Y661935D01*
X1758712Y661975D01*
X1758716Y661979D01*
X1758716Y661980D01*
X1758737Y662004D01*
X1758749Y662034D01*
X1758768Y662060D01*
X1758795Y662147D01*
X1758800Y662159D01*
X1758820Y662202D01*
X1758821Y662211D01*
X1758829Y662232D01*
X1758834Y662273D01*
X1758841Y662296D01*
X1758840Y662328D01*
X1758848Y662399D01*
X1758848Y834092D01*
X1781854Y857098D01*
X1824108Y857098D01*
X1824223Y857117D01*
X1824339Y857134D01*
X1824344Y857137D01*
X1824351Y857138D01*
X1824453Y857192D01*
X1824558Y857246D01*
X1824563Y857250D01*
X1824568Y857253D01*
X1824648Y857337D01*
X1824730Y857421D01*
X1824734Y857428D01*
X1824737Y857432D01*
X1824745Y857448D01*
X1824811Y857568D01*
X1825570Y859401D01*
X1828732Y862563D01*
X1832863Y864274D01*
X1837335Y864274D01*
X1841466Y862563D01*
X1844628Y859401D01*
X1846339Y855269D01*
X1846339Y850798D01*
X1844628Y846666D01*
X1841466Y843505D01*
X1837335Y841793D01*
X1832863Y841793D01*
X1828732Y843505D01*
X1825570Y846666D01*
X1824811Y848499D01*
X1824750Y848598D01*
X1824690Y848699D01*
X1824685Y848703D01*
X1824682Y848708D01*
X1824592Y848782D01*
X1824503Y848858D01*
X1824497Y848861D01*
X1824492Y848865D01*
X1824384Y848906D01*
X1824275Y848950D01*
X1824267Y848951D01*
X1824262Y848953D01*
X1824244Y848954D01*
X1824108Y848969D01*
X1785536Y848969D01*
X1785446Y848954D01*
X1785355Y848947D01*
X1785325Y848934D01*
X1785293Y848929D01*
X1785213Y848886D01*
X1785129Y848851D01*
X1785097Y848825D01*
X1785076Y848814D01*
X1785054Y848791D01*
X1784998Y848746D01*
X1767200Y830948D01*
X1767147Y830874D01*
X1767088Y830805D01*
X1767075Y830775D01*
X1767057Y830748D01*
X1767030Y830661D01*
X1766996Y830577D01*
X1766991Y830536D01*
X1766984Y830513D01*
X1766985Y830481D01*
X1766977Y830410D01*
X1766977Y658716D01*
X1720855Y612594D01*
X1720802Y612520D01*
X1720743Y612451D01*
X1720730Y612421D01*
X1720712Y612395D01*
X1720685Y612308D01*
X1720651Y612223D01*
X1720646Y612182D01*
X1720639Y612160D01*
X1720640Y612127D01*
X1720632Y612056D01*
X1720632Y607656D01*
X1717524Y604547D01*
X1713127Y604547D01*
G37*
%LPD*%
%LPC*%
G36*
X1731606Y578507D02*
X1731606Y578507D01*
X1728497Y581616D01*
X1728497Y586012D01*
X1731606Y589121D01*
X1734185Y589121D01*
X1734275Y589135D01*
X1734366Y589143D01*
X1734396Y589155D01*
X1734428Y589160D01*
X1734508Y589203D01*
X1734592Y589239D01*
X1734624Y589265D01*
X1734645Y589276D01*
X1734667Y589299D01*
X1734723Y589344D01*
X1781840Y636461D01*
X1781893Y636535D01*
X1781953Y636604D01*
X1781965Y636634D01*
X1781984Y636660D01*
X1782011Y636747D01*
X1782045Y636832D01*
X1782049Y636873D01*
X1782056Y636896D01*
X1782055Y636928D01*
X1782063Y636999D01*
X1782063Y665640D01*
X1784444Y668021D01*
X1784485Y668021D01*
X1784575Y668036D01*
X1784666Y668043D01*
X1784695Y668055D01*
X1784727Y668061D01*
X1784808Y668103D01*
X1784892Y668139D01*
X1784924Y668165D01*
X1784945Y668176D01*
X1784967Y668199D01*
X1785023Y668244D01*
X1799488Y682709D01*
X1799530Y682767D01*
X1799580Y682819D01*
X1799602Y682867D01*
X1799632Y682909D01*
X1799653Y682977D01*
X1799683Y683042D01*
X1799689Y683094D01*
X1799704Y683144D01*
X1799702Y683216D01*
X1799710Y683287D01*
X1799699Y683338D01*
X1799698Y683390D01*
X1799673Y683457D01*
X1799658Y683527D01*
X1799631Y683572D01*
X1799613Y683621D01*
X1799569Y683677D01*
X1799532Y683738D01*
X1799492Y683772D01*
X1799460Y683813D01*
X1799399Y683852D01*
X1799345Y683898D01*
X1799297Y683918D01*
X1799253Y683946D01*
X1799183Y683963D01*
X1799117Y683990D01*
X1799045Y683998D01*
X1799014Y684006D01*
X1798991Y684004D01*
X1798950Y684009D01*
X1794409Y684009D01*
X1789718Y685952D01*
X1786127Y689542D01*
X1784184Y694234D01*
X1784184Y699312D01*
X1786127Y704003D01*
X1789718Y707594D01*
X1794409Y709537D01*
X1799487Y709537D01*
X1804179Y707594D01*
X1807769Y704003D01*
X1809713Y699312D01*
X1809713Y694234D01*
X1807732Y689453D01*
X1807724Y689442D01*
X1807714Y689409D01*
X1807711Y689403D01*
X1807709Y689394D01*
X1807703Y689373D01*
X1807672Y689307D01*
X1807667Y689256D01*
X1807651Y689207D01*
X1807653Y689134D01*
X1807645Y689062D01*
X1807656Y689012D01*
X1807657Y688961D01*
X1807682Y688893D01*
X1807697Y688822D01*
X1807724Y688778D01*
X1807741Y688730D01*
X1807787Y688673D01*
X1807824Y688611D01*
X1807863Y688578D01*
X1807895Y688537D01*
X1807956Y688498D01*
X1808011Y688451D01*
X1808058Y688432D01*
X1808102Y688404D01*
X1808172Y688386D01*
X1808239Y688359D01*
X1808309Y688351D01*
X1808340Y688344D01*
X1808364Y688345D01*
X1808405Y688341D01*
X1824838Y688341D01*
X1824857Y688344D01*
X1824877Y688342D01*
X1824978Y688364D01*
X1825080Y688380D01*
X1825098Y688390D01*
X1825117Y688394D01*
X1825206Y688447D01*
X1825298Y688496D01*
X1825311Y688510D01*
X1825329Y688520D01*
X1825396Y688599D01*
X1825467Y688674D01*
X1825475Y688692D01*
X1825488Y688707D01*
X1825527Y688803D01*
X1825571Y688897D01*
X1825573Y688917D01*
X1825580Y688935D01*
X1825599Y689102D01*
X1825599Y717132D01*
X1825580Y717246D01*
X1825563Y717363D01*
X1825560Y717368D01*
X1825559Y717374D01*
X1825505Y717477D01*
X1825451Y717582D01*
X1825447Y717586D01*
X1825444Y717592D01*
X1825360Y717672D01*
X1825276Y717754D01*
X1825269Y717758D01*
X1825266Y717761D01*
X1825249Y717769D01*
X1825129Y717835D01*
X1822331Y718994D01*
X1819169Y722156D01*
X1817458Y726287D01*
X1817458Y730759D01*
X1819169Y734890D01*
X1822331Y738052D01*
X1826463Y739763D01*
X1830934Y739763D01*
X1835066Y738052D01*
X1838227Y734890D01*
X1839939Y730759D01*
X1839939Y726287D01*
X1838227Y722156D01*
X1835066Y718994D01*
X1834198Y718635D01*
X1834098Y718573D01*
X1833999Y718513D01*
X1833995Y718508D01*
X1833989Y718505D01*
X1833914Y718414D01*
X1833839Y718326D01*
X1833836Y718320D01*
X1833832Y718316D01*
X1833790Y718206D01*
X1833747Y718098D01*
X1833746Y718090D01*
X1833744Y718086D01*
X1833743Y718068D01*
X1833728Y717931D01*
X1833728Y682592D01*
X1831347Y680211D01*
X1808803Y680211D01*
X1808712Y680196D01*
X1808622Y680189D01*
X1808592Y680177D01*
X1808560Y680171D01*
X1808479Y680129D01*
X1808395Y680093D01*
X1808363Y680067D01*
X1808342Y680056D01*
X1808320Y680033D01*
X1808264Y679988D01*
X1790416Y662140D01*
X1790363Y662066D01*
X1790303Y661996D01*
X1790291Y661966D01*
X1790272Y661940D01*
X1790245Y661853D01*
X1790211Y661768D01*
X1790207Y661727D01*
X1790200Y661705D01*
X1790201Y661673D01*
X1790193Y661601D01*
X1790193Y633316D01*
X1739334Y582457D01*
X1739281Y582383D01*
X1739221Y582314D01*
X1739209Y582284D01*
X1739190Y582258D01*
X1739163Y582171D01*
X1739129Y582086D01*
X1739125Y582045D01*
X1739118Y582023D01*
X1739119Y581990D01*
X1739111Y581919D01*
X1739111Y581616D01*
X1736002Y578507D01*
X1731606Y578507D01*
G37*
%LPD*%
%LPC*%
G36*
X1617763Y642139D02*
X1617763Y642139D01*
X1614654Y645248D01*
X1614654Y649644D01*
X1615673Y650663D01*
X1615727Y650737D01*
X1615786Y650807D01*
X1615798Y650837D01*
X1615817Y650863D01*
X1615844Y650950D01*
X1615878Y651035D01*
X1615883Y651076D01*
X1615889Y651098D01*
X1615889Y651130D01*
X1615896Y651201D01*
X1615896Y834092D01*
X1632146Y850342D01*
X1664576Y850342D01*
X1664691Y850361D01*
X1664807Y850378D01*
X1664812Y850381D01*
X1664818Y850382D01*
X1664921Y850436D01*
X1665026Y850489D01*
X1665030Y850494D01*
X1665036Y850497D01*
X1665116Y850581D01*
X1665198Y850665D01*
X1665202Y850672D01*
X1665205Y850675D01*
X1665213Y850692D01*
X1665279Y850812D01*
X1666922Y854778D01*
X1670084Y857940D01*
X1674215Y859651D01*
X1678687Y859651D01*
X1682818Y857940D01*
X1685980Y854778D01*
X1687691Y850647D01*
X1687691Y846175D01*
X1685980Y842044D01*
X1682818Y838882D01*
X1678687Y837171D01*
X1674215Y837171D01*
X1670084Y838882D01*
X1666976Y841989D01*
X1666902Y842043D01*
X1666833Y842102D01*
X1666802Y842114D01*
X1666776Y842133D01*
X1666689Y842160D01*
X1666604Y842194D01*
X1666564Y842199D01*
X1666541Y842205D01*
X1666509Y842205D01*
X1666438Y842212D01*
X1635829Y842212D01*
X1635738Y842198D01*
X1635648Y842191D01*
X1635618Y842178D01*
X1635586Y842173D01*
X1635505Y842130D01*
X1635421Y842094D01*
X1635389Y842069D01*
X1635368Y842058D01*
X1635346Y842034D01*
X1635290Y841989D01*
X1624249Y830948D01*
X1624196Y830874D01*
X1624136Y830805D01*
X1624124Y830775D01*
X1624105Y830748D01*
X1624079Y830661D01*
X1624044Y830577D01*
X1624040Y830536D01*
X1624033Y830513D01*
X1624034Y830481D01*
X1624026Y830410D01*
X1624026Y651201D01*
X1624041Y651111D01*
X1624048Y651020D01*
X1624060Y650991D01*
X1624066Y650959D01*
X1624108Y650878D01*
X1624144Y650794D01*
X1624170Y650762D01*
X1624181Y650741D01*
X1624204Y650719D01*
X1624249Y650663D01*
X1625268Y649644D01*
X1625268Y645248D01*
X1622159Y642139D01*
X1617763Y642139D01*
G37*
%LPD*%
%LPC*%
G36*
X1687969Y629744D02*
X1687969Y629744D01*
X1684860Y632853D01*
X1684860Y637249D01*
X1685879Y638268D01*
X1685926Y638333D01*
X1685970Y638380D01*
X1685977Y638394D01*
X1685992Y638411D01*
X1686004Y638442D01*
X1686023Y638468D01*
X1686045Y638541D01*
X1686074Y638603D01*
X1686076Y638620D01*
X1686084Y638640D01*
X1686088Y638680D01*
X1686095Y638703D01*
X1686094Y638735D01*
X1686102Y638806D01*
X1686102Y715546D01*
X1686095Y715591D01*
X1686097Y715637D01*
X1686075Y715712D01*
X1686062Y715789D01*
X1686041Y715829D01*
X1686028Y715873D01*
X1685984Y715937D01*
X1685947Y716006D01*
X1685914Y716038D01*
X1685888Y716076D01*
X1685825Y716122D01*
X1685769Y716176D01*
X1685727Y716195D01*
X1685690Y716222D01*
X1685616Y716246D01*
X1685546Y716279D01*
X1685500Y716284D01*
X1685457Y716298D01*
X1685379Y716298D01*
X1685301Y716306D01*
X1685257Y716297D01*
X1685211Y716296D01*
X1685079Y716258D01*
X1685061Y716254D01*
X1685057Y716251D01*
X1685050Y716249D01*
X1684478Y716013D01*
X1680006Y716013D01*
X1675875Y717724D01*
X1672713Y720886D01*
X1671002Y725017D01*
X1671002Y729489D01*
X1672713Y733620D01*
X1675875Y736782D01*
X1680006Y738493D01*
X1684478Y738493D01*
X1688609Y736782D01*
X1691771Y733620D01*
X1693482Y729489D01*
X1693482Y725017D01*
X1692723Y723185D01*
X1692697Y723071D01*
X1692668Y722957D01*
X1692668Y722951D01*
X1692667Y722945D01*
X1692678Y722828D01*
X1692687Y722712D01*
X1692690Y722707D01*
X1692690Y722700D01*
X1692738Y722593D01*
X1692783Y722486D01*
X1692788Y722480D01*
X1692790Y722475D01*
X1692803Y722462D01*
X1692888Y722355D01*
X1694232Y721012D01*
X1694232Y638806D01*
X1694235Y638787D01*
X1694233Y638769D01*
X1694248Y638699D01*
X1694253Y638625D01*
X1694266Y638595D01*
X1694271Y638564D01*
X1694281Y638545D01*
X1694285Y638528D01*
X1694319Y638471D01*
X1694350Y638399D01*
X1694375Y638367D01*
X1694386Y638346D01*
X1694403Y638330D01*
X1694411Y638317D01*
X1694424Y638306D01*
X1694455Y638268D01*
X1695474Y637249D01*
X1695474Y632853D01*
X1692365Y629744D01*
X1687969Y629744D01*
G37*
%LPD*%
%LPC*%
G36*
X1800810Y808519D02*
X1800810Y808519D01*
X1796119Y810463D01*
X1792528Y814053D01*
X1790585Y818745D01*
X1790585Y823823D01*
X1792528Y828514D01*
X1796119Y832105D01*
X1800810Y834048D01*
X1805888Y834048D01*
X1810580Y832105D01*
X1814170Y828514D01*
X1816113Y823823D01*
X1816113Y818745D01*
X1814170Y814053D01*
X1810580Y810463D01*
X1805888Y808519D01*
X1800810Y808519D01*
G37*
%LPD*%
%LPC*%
G36*
X1642162Y803897D02*
X1642162Y803897D01*
X1637470Y805840D01*
X1633880Y809430D01*
X1631937Y814122D01*
X1631937Y819200D01*
X1633880Y823891D01*
X1637470Y827482D01*
X1642162Y829425D01*
X1647240Y829425D01*
X1651931Y827482D01*
X1655522Y823891D01*
X1657465Y819200D01*
X1657465Y814122D01*
X1655522Y809430D01*
X1651931Y805840D01*
X1647240Y803897D01*
X1642162Y803897D01*
G37*
%LPD*%
%LPC*%
G36*
X1705662Y803897D02*
X1705662Y803897D01*
X1700970Y805840D01*
X1697380Y809430D01*
X1695437Y814122D01*
X1695437Y819200D01*
X1697380Y823891D01*
X1700970Y827482D01*
X1705662Y829425D01*
X1710740Y829425D01*
X1715431Y827482D01*
X1719022Y823891D01*
X1720965Y819200D01*
X1720965Y814122D01*
X1719022Y809430D01*
X1715431Y805840D01*
X1710740Y803897D01*
X1705662Y803897D01*
G37*
%LPD*%
%LPC*%
G36*
X1857909Y747509D02*
X1857909Y747509D01*
X1853218Y749452D01*
X1849627Y753042D01*
X1847684Y757734D01*
X1847684Y762812D01*
X1849627Y767503D01*
X1853218Y771094D01*
X1857909Y773037D01*
X1862987Y773037D01*
X1867679Y771094D01*
X1871269Y767503D01*
X1873213Y762812D01*
X1873213Y757734D01*
X1871269Y753042D01*
X1867679Y749452D01*
X1862987Y747509D01*
X1857909Y747509D01*
G37*
%LPD*%
%LPC*%
G36*
X1794409Y747509D02*
X1794409Y747509D01*
X1789718Y749452D01*
X1786127Y753042D01*
X1784184Y757734D01*
X1784184Y762812D01*
X1786127Y767503D01*
X1789718Y771094D01*
X1794409Y773037D01*
X1799487Y773037D01*
X1804179Y771094D01*
X1807769Y767503D01*
X1809713Y762812D01*
X1809713Y757734D01*
X1807769Y753042D01*
X1804179Y749452D01*
X1799487Y747509D01*
X1794409Y747509D01*
G37*
%LPD*%
%LPC*%
G36*
X1647953Y746239D02*
X1647953Y746239D01*
X1643262Y748182D01*
X1639671Y751772D01*
X1637728Y756464D01*
X1637728Y761542D01*
X1639671Y766233D01*
X1643262Y769824D01*
X1647953Y771767D01*
X1653031Y771767D01*
X1657722Y769824D01*
X1661313Y766233D01*
X1663256Y761542D01*
X1663256Y756464D01*
X1661313Y751772D01*
X1657722Y748182D01*
X1653031Y746239D01*
X1647953Y746239D01*
G37*
%LPD*%
%LPC*%
G36*
X1711453Y746239D02*
X1711453Y746239D01*
X1706762Y748182D01*
X1703171Y751772D01*
X1701228Y756464D01*
X1701228Y761542D01*
X1703171Y766233D01*
X1706762Y769824D01*
X1711453Y771767D01*
X1716531Y771767D01*
X1721222Y769824D01*
X1724813Y766233D01*
X1726756Y761542D01*
X1726756Y756464D01*
X1724813Y751772D01*
X1721222Y748182D01*
X1716531Y746239D01*
X1711453Y746239D01*
G37*
%LPD*%
%LPC*%
G36*
X1864310Y808519D02*
X1864310Y808519D01*
X1859619Y810463D01*
X1856028Y814053D01*
X1854085Y818745D01*
X1854085Y823823D01*
X1856028Y828514D01*
X1859619Y832105D01*
X1864310Y834048D01*
X1869388Y834048D01*
X1874080Y832105D01*
X1877670Y828514D01*
X1879613Y823823D01*
X1879613Y818745D01*
X1877670Y814053D01*
X1874080Y810463D01*
X1869388Y808519D01*
X1864310Y808519D01*
G37*
%LPD*%
%LPC*%
G36*
X1857909Y684009D02*
X1857909Y684009D01*
X1853218Y685952D01*
X1849627Y689542D01*
X1847684Y694234D01*
X1847684Y699312D01*
X1849627Y704003D01*
X1853218Y707594D01*
X1857909Y709537D01*
X1862987Y709537D01*
X1867679Y707594D01*
X1871269Y704003D01*
X1873213Y699312D01*
X1873213Y694234D01*
X1871269Y689542D01*
X1867679Y685952D01*
X1862987Y684009D01*
X1857909Y684009D01*
G37*
%LPD*%
%LPC*%
G36*
X1711453Y682739D02*
X1711453Y682739D01*
X1706762Y684682D01*
X1703171Y688272D01*
X1701228Y692964D01*
X1701228Y698042D01*
X1703171Y702733D01*
X1706762Y706324D01*
X1711453Y708267D01*
X1716531Y708267D01*
X1721222Y706324D01*
X1724813Y702733D01*
X1726756Y698042D01*
X1726756Y692964D01*
X1724813Y688272D01*
X1721222Y684682D01*
X1716531Y682739D01*
X1711453Y682739D01*
G37*
%LPD*%
%LPC*%
G36*
X1647953Y682739D02*
X1647953Y682739D01*
X1643262Y684682D01*
X1639671Y688272D01*
X1637728Y692964D01*
X1637728Y698042D01*
X1639671Y702733D01*
X1643262Y706324D01*
X1647953Y708267D01*
X1653031Y708267D01*
X1657722Y706324D01*
X1661313Y702733D01*
X1663256Y698042D01*
X1663256Y692964D01*
X1661313Y688272D01*
X1657722Y684682D01*
X1653031Y682739D01*
X1647953Y682739D01*
G37*
%LPD*%
%LPC*%
G36*
X378537Y698817D02*
X378537Y698817D01*
X373985Y700702D01*
X370502Y704185D01*
X368617Y708737D01*
X368617Y713663D01*
X370502Y718215D01*
X373985Y721698D01*
X378537Y723583D01*
X383463Y723583D01*
X388015Y721698D01*
X391498Y718215D01*
X393383Y713663D01*
X393383Y708737D01*
X391498Y704185D01*
X388015Y700702D01*
X383463Y698817D01*
X378537Y698817D01*
G37*
%LPD*%
%LPC*%
G36*
X784937Y698817D02*
X784937Y698817D01*
X780385Y700702D01*
X776902Y704185D01*
X775017Y708737D01*
X775017Y713663D01*
X776902Y718215D01*
X780385Y721698D01*
X784937Y723583D01*
X789863Y723583D01*
X794415Y721698D01*
X797898Y718215D01*
X799783Y713663D01*
X799783Y708737D01*
X797898Y704185D01*
X794415Y700702D01*
X789863Y698817D01*
X784937Y698817D01*
G37*
%LPD*%
%LPC*%
G36*
X505537Y698817D02*
X505537Y698817D01*
X500985Y700702D01*
X497502Y704185D01*
X495617Y708737D01*
X495617Y713663D01*
X497502Y718215D01*
X500985Y721698D01*
X505537Y723583D01*
X510463Y723583D01*
X515015Y721698D01*
X518498Y718215D01*
X520383Y713663D01*
X520383Y708737D01*
X518498Y704185D01*
X515015Y700702D01*
X510463Y698817D01*
X505537Y698817D01*
G37*
%LPD*%
%LPC*%
G36*
X937337Y698817D02*
X937337Y698817D01*
X932785Y700702D01*
X929302Y704185D01*
X927417Y708737D01*
X927417Y713663D01*
X929302Y718215D01*
X932785Y721698D01*
X937337Y723583D01*
X942263Y723583D01*
X946815Y721698D01*
X950298Y718215D01*
X952183Y713663D01*
X952183Y708737D01*
X950298Y704185D01*
X946815Y700702D01*
X942263Y698817D01*
X937337Y698817D01*
G37*
%LPD*%
%LPC*%
G36*
X618810Y993525D02*
X618810Y993525D01*
X617917Y994418D01*
X617917Y1012182D01*
X618810Y1013075D01*
X636573Y1013075D01*
X637467Y1012182D01*
X637467Y994418D01*
X636573Y993525D01*
X618810Y993525D01*
G37*
%LPD*%
%LPC*%
G36*
X1042152Y993525D02*
X1042152Y993525D01*
X1041259Y994418D01*
X1041259Y1012182D01*
X1042152Y1013075D01*
X1059915Y1013075D01*
X1060808Y1012182D01*
X1060808Y994418D01*
X1059915Y993525D01*
X1042152Y993525D01*
G37*
%LPD*%
%LPC*%
G36*
X1516294Y993525D02*
X1516294Y993525D01*
X1515401Y994418D01*
X1515401Y1012182D01*
X1516294Y1013075D01*
X1534057Y1013075D01*
X1534950Y1012182D01*
X1534950Y994418D01*
X1534057Y993525D01*
X1516294Y993525D01*
G37*
%LPD*%
%LPC*%
G36*
X1939636Y993525D02*
X1939636Y993525D01*
X1938742Y994418D01*
X1938742Y1012182D01*
X1939636Y1013075D01*
X1957399Y1013075D01*
X1958292Y1012182D01*
X1958292Y994418D01*
X1957399Y993525D01*
X1939636Y993525D01*
G37*
%LPD*%
%LPC*%
G36*
X2362977Y993525D02*
X2362977Y993525D01*
X2362084Y994418D01*
X2362084Y1012182D01*
X2362977Y1013075D01*
X2380741Y1013075D01*
X2381634Y1012182D01*
X2381634Y994418D01*
X2380741Y993525D01*
X2362977Y993525D01*
G37*
%LPD*%
%LPC*%
G36*
X2786319Y993525D02*
X2786319Y993525D01*
X2785426Y994418D01*
X2785426Y1012182D01*
X2786319Y1013075D01*
X2804082Y1013075D01*
X2804976Y1012182D01*
X2804976Y994418D01*
X2804082Y993525D01*
X2786319Y993525D01*
G37*
%LPD*%
%LPC*%
G36*
X195468Y993525D02*
X195468Y993525D01*
X194575Y994418D01*
X194575Y1012182D01*
X195468Y1013075D01*
X213232Y1013075D01*
X214125Y1012182D01*
X214125Y994418D01*
X213232Y993525D01*
X195468Y993525D01*
G37*
%LPD*%
%LPC*%
G36*
X3633010Y993525D02*
X3633010Y993525D01*
X3632117Y994418D01*
X3632117Y1012182D01*
X3633010Y1013075D01*
X3650774Y1013075D01*
X3651667Y1012182D01*
X3651667Y994418D01*
X3650774Y993525D01*
X3633010Y993525D01*
G37*
%LPD*%
%LPC*%
G36*
X4056345Y993525D02*
X4056345Y993525D01*
X4055451Y994418D01*
X4055451Y1012182D01*
X4056345Y1013075D01*
X4074108Y1013075D01*
X4075001Y1012182D01*
X4075001Y994418D01*
X4074108Y993525D01*
X4056345Y993525D01*
G37*
%LPD*%
%LPC*%
G36*
X3209661Y993525D02*
X3209661Y993525D01*
X3208768Y994418D01*
X3208768Y1012182D01*
X3209661Y1013075D01*
X3227424Y1013075D01*
X3228317Y1012182D01*
X3228317Y994418D01*
X3227424Y993525D01*
X3209661Y993525D01*
G37*
%LPD*%
%LPC*%
G36*
X3688448Y993525D02*
X3688448Y993525D01*
X3684855Y995013D01*
X3682105Y997763D01*
X3680617Y1001356D01*
X3680617Y1005244D01*
X3682105Y1008837D01*
X3684855Y1011587D01*
X3688448Y1013075D01*
X3692336Y1013075D01*
X3695929Y1011587D01*
X3698679Y1008837D01*
X3700167Y1005244D01*
X3700167Y1001356D01*
X3698679Y997763D01*
X3695929Y995013D01*
X3692336Y993525D01*
X3688448Y993525D01*
G37*
%LPD*%
%LPC*%
G36*
X250906Y993525D02*
X250906Y993525D01*
X247313Y995013D01*
X244563Y997763D01*
X243075Y1001356D01*
X243075Y1005244D01*
X244563Y1008837D01*
X247313Y1011587D01*
X250906Y1013075D01*
X254794Y1013075D01*
X258387Y1011587D01*
X261137Y1008837D01*
X262625Y1005244D01*
X262625Y1001356D01*
X261137Y997763D01*
X258387Y995013D01*
X254794Y993525D01*
X250906Y993525D01*
G37*
%LPD*%
%LPC*%
G36*
X250906Y968125D02*
X250906Y968125D01*
X247313Y969613D01*
X244563Y972363D01*
X243075Y975956D01*
X243075Y979844D01*
X244563Y983437D01*
X247313Y986187D01*
X250906Y987675D01*
X254794Y987675D01*
X258387Y986187D01*
X261137Y983437D01*
X262625Y979844D01*
X262625Y975956D01*
X261137Y972363D01*
X258387Y969613D01*
X254794Y968125D01*
X250906Y968125D01*
G37*
%LPD*%
%LPC*%
G36*
X202406Y968125D02*
X202406Y968125D01*
X198813Y969613D01*
X196063Y972363D01*
X194575Y975956D01*
X194575Y979844D01*
X196063Y983437D01*
X198813Y986187D01*
X202406Y987675D01*
X206294Y987675D01*
X209887Y986187D01*
X212637Y983437D01*
X214125Y979844D01*
X214125Y975956D01*
X212637Y972363D01*
X209887Y969613D01*
X206294Y968125D01*
X202406Y968125D01*
G37*
%LPD*%
%LPC*%
G36*
X2418415Y968125D02*
X2418415Y968125D01*
X2414822Y969613D01*
X2412072Y972363D01*
X2410584Y975956D01*
X2410584Y979844D01*
X2412072Y983437D01*
X2414822Y986187D01*
X2418415Y987675D01*
X2422303Y987675D01*
X2425896Y986187D01*
X2428646Y983437D01*
X2430134Y979844D01*
X2430134Y975956D01*
X2428646Y972363D01*
X2425896Y969613D01*
X2422303Y968125D01*
X2418415Y968125D01*
G37*
%LPD*%
%LPC*%
G36*
X1523231Y968125D02*
X1523231Y968125D01*
X1519638Y969613D01*
X1516889Y972363D01*
X1515401Y975956D01*
X1515401Y979844D01*
X1516889Y983437D01*
X1519638Y986187D01*
X1523231Y987675D01*
X1527120Y987675D01*
X1530712Y986187D01*
X1533462Y983437D01*
X1534950Y979844D01*
X1534950Y975956D01*
X1533462Y972363D01*
X1530712Y969613D01*
X1527120Y968125D01*
X1523231Y968125D01*
G37*
%LPD*%
%LPC*%
G36*
X1571731Y968125D02*
X1571731Y968125D01*
X1568138Y969613D01*
X1565389Y972363D01*
X1563901Y975956D01*
X1563901Y979844D01*
X1565389Y983437D01*
X1568138Y986187D01*
X1571731Y987675D01*
X1575620Y987675D01*
X1579212Y986187D01*
X1581962Y983437D01*
X1583450Y979844D01*
X1583450Y975956D01*
X1581962Y972363D01*
X1579212Y969613D01*
X1575620Y968125D01*
X1571731Y968125D01*
G37*
%LPD*%
%LPC*%
G36*
X1946573Y968125D02*
X1946573Y968125D01*
X1942980Y969613D01*
X1940231Y972363D01*
X1938742Y975956D01*
X1938742Y979844D01*
X1940231Y983437D01*
X1942980Y986187D01*
X1946573Y987675D01*
X1950462Y987675D01*
X1954054Y986187D01*
X1956804Y983437D01*
X1958292Y979844D01*
X1958292Y975956D01*
X1956804Y972363D01*
X1954054Y969613D01*
X1950462Y968125D01*
X1946573Y968125D01*
G37*
%LPD*%
%LPC*%
G36*
X1995073Y968125D02*
X1995073Y968125D01*
X1991480Y969613D01*
X1988731Y972363D01*
X1987242Y975956D01*
X1987242Y979844D01*
X1988731Y983437D01*
X1991480Y986187D01*
X1995073Y987675D01*
X1998962Y987675D01*
X2002554Y986187D01*
X2005304Y983437D01*
X2006792Y979844D01*
X2006792Y975956D01*
X2005304Y972363D01*
X2002554Y969613D01*
X1998962Y968125D01*
X1995073Y968125D01*
G37*
%LPD*%
%LPC*%
G36*
X2369915Y968125D02*
X2369915Y968125D01*
X2366322Y969613D01*
X2363572Y972363D01*
X2362084Y975956D01*
X2362084Y979844D01*
X2363572Y983437D01*
X2366322Y986187D01*
X2369915Y987675D01*
X2373803Y987675D01*
X2377396Y986187D01*
X2380146Y983437D01*
X2381634Y979844D01*
X2381634Y975956D01*
X2380146Y972363D01*
X2377396Y969613D01*
X2373803Y968125D01*
X2369915Y968125D01*
G37*
%LPD*%
%LPC*%
G36*
X2793256Y968125D02*
X2793256Y968125D01*
X2789664Y969613D01*
X2786914Y972363D01*
X2785426Y975956D01*
X2785426Y979844D01*
X2786914Y983437D01*
X2789664Y986187D01*
X2793256Y987675D01*
X2797145Y987675D01*
X2800738Y986187D01*
X2803487Y983437D01*
X2804976Y979844D01*
X2804976Y975956D01*
X2803487Y972363D01*
X2800738Y969613D01*
X2797145Y968125D01*
X2793256Y968125D01*
G37*
%LPD*%
%LPC*%
G36*
X2841756Y968125D02*
X2841756Y968125D01*
X2838164Y969613D01*
X2835414Y972363D01*
X2833926Y975956D01*
X2833926Y979844D01*
X2835414Y983437D01*
X2838164Y986187D01*
X2841756Y987675D01*
X2845645Y987675D01*
X2849238Y986187D01*
X2851987Y983437D01*
X2853476Y979844D01*
X2853476Y975956D01*
X2851987Y972363D01*
X2849238Y969613D01*
X2845645Y968125D01*
X2841756Y968125D01*
G37*
%LPD*%
%LPC*%
G36*
X3265098Y968125D02*
X3265098Y968125D01*
X3261506Y969613D01*
X3258756Y972363D01*
X3257268Y975956D01*
X3257268Y979844D01*
X3258756Y983437D01*
X3261506Y986187D01*
X3265098Y987675D01*
X3268987Y987675D01*
X3272580Y986187D01*
X3275329Y983437D01*
X3276817Y979844D01*
X3276817Y975956D01*
X3275329Y972363D01*
X3272580Y969613D01*
X3268987Y968125D01*
X3265098Y968125D01*
G37*
%LPD*%
%LPC*%
G36*
X3639948Y968125D02*
X3639948Y968125D01*
X3636355Y969613D01*
X3633605Y972363D01*
X3632117Y975956D01*
X3632117Y979844D01*
X3633605Y983437D01*
X3636355Y986187D01*
X3639948Y987675D01*
X3643836Y987675D01*
X3647429Y986187D01*
X3650179Y983437D01*
X3651667Y979844D01*
X3651667Y975956D01*
X3650179Y972363D01*
X3647429Y969613D01*
X3643836Y968125D01*
X3639948Y968125D01*
G37*
%LPD*%
%LPC*%
G36*
X3688448Y968125D02*
X3688448Y968125D01*
X3684855Y969613D01*
X3682105Y972363D01*
X3680617Y975956D01*
X3680617Y979844D01*
X3682105Y983437D01*
X3684855Y986187D01*
X3688448Y987675D01*
X3692336Y987675D01*
X3695929Y986187D01*
X3698679Y983437D01*
X3700167Y979844D01*
X3700167Y975956D01*
X3698679Y972363D01*
X3695929Y969613D01*
X3692336Y968125D01*
X3688448Y968125D01*
G37*
%LPD*%
%LPC*%
G36*
X4063282Y968125D02*
X4063282Y968125D01*
X4059689Y969613D01*
X4056940Y972363D01*
X4055451Y975956D01*
X4055451Y979844D01*
X4056940Y983437D01*
X4059689Y986187D01*
X4063282Y987675D01*
X4067171Y987675D01*
X4070763Y986187D01*
X4073513Y983437D01*
X4075001Y979844D01*
X4075001Y975956D01*
X4073513Y972363D01*
X4070763Y969613D01*
X4067171Y968125D01*
X4063282Y968125D01*
G37*
%LPD*%
%LPC*%
G36*
X4111782Y968125D02*
X4111782Y968125D01*
X4108189Y969613D01*
X4105440Y972363D01*
X4103951Y975956D01*
X4103951Y979844D01*
X4105440Y983437D01*
X4108189Y986187D01*
X4111782Y987675D01*
X4115671Y987675D01*
X4119263Y986187D01*
X4122013Y983437D01*
X4123501Y979844D01*
X4123501Y975956D01*
X4122013Y972363D01*
X4119263Y969613D01*
X4115671Y968125D01*
X4111782Y968125D01*
G37*
%LPD*%
%LPC*%
G36*
X3216598Y968125D02*
X3216598Y968125D01*
X3213006Y969613D01*
X3210256Y972363D01*
X3208768Y975956D01*
X3208768Y979844D01*
X3210256Y983437D01*
X3213006Y986187D01*
X3216598Y987675D01*
X3220487Y987675D01*
X3224080Y986187D01*
X3226829Y983437D01*
X3228317Y979844D01*
X3228317Y975956D01*
X3226829Y972363D01*
X3224080Y969613D01*
X3220487Y968125D01*
X3216598Y968125D01*
G37*
%LPD*%
%LPC*%
G36*
X674247Y968125D02*
X674247Y968125D01*
X670655Y969613D01*
X667905Y972363D01*
X666417Y975956D01*
X666417Y979844D01*
X667905Y983437D01*
X670655Y986187D01*
X674247Y987675D01*
X678136Y987675D01*
X681729Y986187D01*
X684478Y983437D01*
X685967Y979844D01*
X685967Y975956D01*
X684478Y972363D01*
X681729Y969613D01*
X678136Y968125D01*
X674247Y968125D01*
G37*
%LPD*%
%LPC*%
G36*
X1049089Y968125D02*
X1049089Y968125D01*
X1045497Y969613D01*
X1042747Y972363D01*
X1041259Y975956D01*
X1041259Y979844D01*
X1042747Y983437D01*
X1045497Y986187D01*
X1049089Y987675D01*
X1052978Y987675D01*
X1056571Y986187D01*
X1059320Y983437D01*
X1060808Y979844D01*
X1060808Y975956D01*
X1059320Y972363D01*
X1056571Y969613D01*
X1052978Y968125D01*
X1049089Y968125D01*
G37*
%LPD*%
%LPC*%
G36*
X1097589Y968125D02*
X1097589Y968125D01*
X1093997Y969613D01*
X1091247Y972363D01*
X1089759Y975956D01*
X1089759Y979844D01*
X1091247Y983437D01*
X1093997Y986187D01*
X1097589Y987675D01*
X1101478Y987675D01*
X1105071Y986187D01*
X1107820Y983437D01*
X1109308Y979844D01*
X1109308Y975956D01*
X1107820Y972363D01*
X1105071Y969613D01*
X1101478Y968125D01*
X1097589Y968125D01*
G37*
%LPD*%
%LPC*%
G36*
X625747Y968125D02*
X625747Y968125D01*
X622155Y969613D01*
X619405Y972363D01*
X617917Y975956D01*
X617917Y979844D01*
X619405Y983437D01*
X622155Y986187D01*
X625747Y987675D01*
X629636Y987675D01*
X633229Y986187D01*
X635978Y983437D01*
X637467Y979844D01*
X637467Y975956D01*
X635978Y972363D01*
X633229Y969613D01*
X629636Y968125D01*
X625747Y968125D01*
G37*
%LPD*%
%LPC*%
G36*
X1049089Y841125D02*
X1049089Y841125D01*
X1045497Y842613D01*
X1042747Y845363D01*
X1041259Y848956D01*
X1041259Y852844D01*
X1042747Y856437D01*
X1045497Y859187D01*
X1049089Y860675D01*
X1052978Y860675D01*
X1056571Y859187D01*
X1059320Y856437D01*
X1060808Y852844D01*
X1060808Y848956D01*
X1059320Y845363D01*
X1056571Y842613D01*
X1052978Y841125D01*
X1049089Y841125D01*
G37*
%LPD*%
%LPC*%
G36*
X202406Y841125D02*
X202406Y841125D01*
X198813Y842613D01*
X196063Y845363D01*
X194575Y848956D01*
X194575Y852844D01*
X196063Y856437D01*
X198813Y859187D01*
X202406Y860675D01*
X206294Y860675D01*
X209887Y859187D01*
X212637Y856437D01*
X214125Y852844D01*
X214125Y848956D01*
X212637Y845363D01*
X209887Y842613D01*
X206294Y841125D01*
X202406Y841125D01*
G37*
%LPD*%
%LPC*%
G36*
X4063282Y841125D02*
X4063282Y841125D01*
X4059689Y842613D01*
X4056940Y845363D01*
X4055451Y848956D01*
X4055451Y852844D01*
X4056940Y856437D01*
X4059689Y859187D01*
X4063282Y860675D01*
X4067171Y860675D01*
X4070763Y859187D01*
X4073513Y856437D01*
X4075001Y852844D01*
X4075001Y848956D01*
X4073513Y845363D01*
X4070763Y842613D01*
X4067171Y841125D01*
X4063282Y841125D01*
G37*
%LPD*%
%LPC*%
G36*
X3639948Y841125D02*
X3639948Y841125D01*
X3636355Y842613D01*
X3633605Y845363D01*
X3632117Y848956D01*
X3632117Y852844D01*
X3633605Y856437D01*
X3636355Y859187D01*
X3639948Y860675D01*
X3643836Y860675D01*
X3647429Y859187D01*
X3650179Y856437D01*
X3651667Y852844D01*
X3651667Y848956D01*
X3650179Y845363D01*
X3647429Y842613D01*
X3643836Y841125D01*
X3639948Y841125D01*
G37*
%LPD*%
%LPC*%
G36*
X3216598Y841125D02*
X3216598Y841125D01*
X3213006Y842613D01*
X3210256Y845363D01*
X3208768Y848956D01*
X3208768Y852844D01*
X3210256Y856437D01*
X3213006Y859187D01*
X3216598Y860675D01*
X3220487Y860675D01*
X3224080Y859187D01*
X3226829Y856437D01*
X3228317Y852844D01*
X3228317Y848956D01*
X3226829Y845363D01*
X3224080Y842613D01*
X3220487Y841125D01*
X3216598Y841125D01*
G37*
%LPD*%
%LPC*%
G36*
X2793256Y841125D02*
X2793256Y841125D01*
X2789664Y842613D01*
X2786914Y845363D01*
X2785426Y848956D01*
X2785426Y852844D01*
X2786914Y856437D01*
X2789664Y859187D01*
X2793256Y860675D01*
X2797145Y860675D01*
X2800738Y859187D01*
X2803487Y856437D01*
X2804976Y852844D01*
X2804976Y848956D01*
X2803487Y845363D01*
X2800738Y842613D01*
X2797145Y841125D01*
X2793256Y841125D01*
G37*
%LPD*%
%LPC*%
G36*
X2369915Y841125D02*
X2369915Y841125D01*
X2366322Y842613D01*
X2363572Y845363D01*
X2362084Y848956D01*
X2362084Y852844D01*
X2363572Y856437D01*
X2366322Y859187D01*
X2369915Y860675D01*
X2373803Y860675D01*
X2377396Y859187D01*
X2380146Y856437D01*
X2381634Y852844D01*
X2381634Y848956D01*
X2380146Y845363D01*
X2377396Y842613D01*
X2373803Y841125D01*
X2369915Y841125D01*
G37*
%LPD*%
%LPC*%
G36*
X1946573Y841125D02*
X1946573Y841125D01*
X1942980Y842613D01*
X1940231Y845363D01*
X1938742Y848956D01*
X1938742Y852844D01*
X1940231Y856437D01*
X1942980Y859187D01*
X1946573Y860675D01*
X1950462Y860675D01*
X1954054Y859187D01*
X1956804Y856437D01*
X1958292Y852844D01*
X1958292Y848956D01*
X1956804Y845363D01*
X1954054Y842613D01*
X1950462Y841125D01*
X1946573Y841125D01*
G37*
%LPD*%
%LPC*%
G36*
X1523231Y841125D02*
X1523231Y841125D01*
X1519638Y842613D01*
X1516889Y845363D01*
X1515401Y848956D01*
X1515401Y852844D01*
X1516889Y856437D01*
X1519638Y859187D01*
X1523231Y860675D01*
X1527120Y860675D01*
X1530712Y859187D01*
X1533462Y856437D01*
X1534950Y852844D01*
X1534950Y848956D01*
X1533462Y845363D01*
X1530712Y842613D01*
X1527120Y841125D01*
X1523231Y841125D01*
G37*
%LPD*%
%LPC*%
G36*
X625747Y841125D02*
X625747Y841125D01*
X622155Y842613D01*
X619405Y845363D01*
X617917Y848956D01*
X617917Y852844D01*
X619405Y856437D01*
X622155Y859187D01*
X625747Y860675D01*
X629636Y860675D01*
X633229Y859187D01*
X635978Y856437D01*
X637467Y852844D01*
X637467Y848956D01*
X635978Y845363D01*
X633229Y842613D01*
X629636Y841125D01*
X625747Y841125D01*
G37*
%LPD*%
%LPC*%
G36*
X202406Y815725D02*
X202406Y815725D01*
X198813Y817213D01*
X196063Y819963D01*
X194575Y823556D01*
X194575Y827444D01*
X196063Y831037D01*
X198813Y833787D01*
X202406Y835275D01*
X206294Y835275D01*
X209887Y833787D01*
X212637Y831037D01*
X214125Y827444D01*
X214125Y823556D01*
X212637Y819963D01*
X209887Y817213D01*
X206294Y815725D01*
X202406Y815725D01*
G37*
%LPD*%
%LPC*%
G36*
X625747Y815725D02*
X625747Y815725D01*
X622155Y817213D01*
X619405Y819963D01*
X617917Y823556D01*
X617917Y827444D01*
X619405Y831037D01*
X622155Y833787D01*
X625747Y835275D01*
X629636Y835275D01*
X633229Y833787D01*
X635978Y831037D01*
X637467Y827444D01*
X637467Y823556D01*
X635978Y819963D01*
X633229Y817213D01*
X629636Y815725D01*
X625747Y815725D01*
G37*
%LPD*%
%LPC*%
G36*
X1049089Y815725D02*
X1049089Y815725D01*
X1045497Y817213D01*
X1042747Y819963D01*
X1041259Y823556D01*
X1041259Y827444D01*
X1042747Y831037D01*
X1045497Y833787D01*
X1049089Y835275D01*
X1052978Y835275D01*
X1056571Y833787D01*
X1059320Y831037D01*
X1060808Y827444D01*
X1060808Y823556D01*
X1059320Y819963D01*
X1056571Y817213D01*
X1052978Y815725D01*
X1049089Y815725D01*
G37*
%LPD*%
%LPC*%
G36*
X1523231Y815725D02*
X1523231Y815725D01*
X1519638Y817213D01*
X1516889Y819963D01*
X1515401Y823556D01*
X1515401Y827444D01*
X1516889Y831037D01*
X1519638Y833787D01*
X1523231Y835275D01*
X1527120Y835275D01*
X1530712Y833787D01*
X1533462Y831037D01*
X1534950Y827444D01*
X1534950Y823556D01*
X1533462Y819963D01*
X1530712Y817213D01*
X1527120Y815725D01*
X1523231Y815725D01*
G37*
%LPD*%
%LPC*%
G36*
X1946573Y815725D02*
X1946573Y815725D01*
X1942980Y817213D01*
X1940231Y819963D01*
X1938742Y823556D01*
X1938742Y827444D01*
X1940231Y831037D01*
X1942980Y833787D01*
X1946573Y835275D01*
X1950462Y835275D01*
X1954054Y833787D01*
X1956804Y831037D01*
X1958292Y827444D01*
X1958292Y823556D01*
X1956804Y819963D01*
X1954054Y817213D01*
X1950462Y815725D01*
X1946573Y815725D01*
G37*
%LPD*%
%LPC*%
G36*
X2369915Y815725D02*
X2369915Y815725D01*
X2366322Y817213D01*
X2363572Y819963D01*
X2362084Y823556D01*
X2362084Y827444D01*
X2363572Y831037D01*
X2366322Y833787D01*
X2369915Y835275D01*
X2373803Y835275D01*
X2377396Y833787D01*
X2380146Y831037D01*
X2381634Y827444D01*
X2381634Y823556D01*
X2380146Y819963D01*
X2377396Y817213D01*
X2373803Y815725D01*
X2369915Y815725D01*
G37*
%LPD*%
%LPC*%
G36*
X2793256Y815725D02*
X2793256Y815725D01*
X2789664Y817213D01*
X2786914Y819963D01*
X2785426Y823556D01*
X2785426Y827444D01*
X2786914Y831037D01*
X2789664Y833787D01*
X2793256Y835275D01*
X2797145Y835275D01*
X2800738Y833787D01*
X2803487Y831037D01*
X2804976Y827444D01*
X2804976Y823556D01*
X2803487Y819963D01*
X2800738Y817213D01*
X2797145Y815725D01*
X2793256Y815725D01*
G37*
%LPD*%
%LPC*%
G36*
X3216598Y815725D02*
X3216598Y815725D01*
X3213006Y817213D01*
X3210256Y819963D01*
X3208768Y823556D01*
X3208768Y827444D01*
X3210256Y831037D01*
X3213006Y833787D01*
X3216598Y835275D01*
X3220487Y835275D01*
X3224080Y833787D01*
X3226829Y831037D01*
X3228317Y827444D01*
X3228317Y823556D01*
X3226829Y819963D01*
X3224080Y817213D01*
X3220487Y815725D01*
X3216598Y815725D01*
G37*
%LPD*%
%LPC*%
G36*
X3639948Y815725D02*
X3639948Y815725D01*
X3636355Y817213D01*
X3633605Y819963D01*
X3632117Y823556D01*
X3632117Y827444D01*
X3633605Y831037D01*
X3636355Y833787D01*
X3639948Y835275D01*
X3643836Y835275D01*
X3647429Y833787D01*
X3650179Y831037D01*
X3651667Y827444D01*
X3651667Y823556D01*
X3650179Y819963D01*
X3647429Y817213D01*
X3643836Y815725D01*
X3639948Y815725D01*
G37*
%LPD*%
%LPC*%
G36*
X4063282Y815725D02*
X4063282Y815725D01*
X4059689Y817213D01*
X4056940Y819963D01*
X4055451Y823556D01*
X4055451Y827444D01*
X4056940Y831037D01*
X4059689Y833787D01*
X4063282Y835275D01*
X4067171Y835275D01*
X4070763Y833787D01*
X4073513Y831037D01*
X4075001Y827444D01*
X4075001Y823556D01*
X4073513Y819963D01*
X4070763Y817213D01*
X4067171Y815725D01*
X4063282Y815725D01*
G37*
%LPD*%
%LPC*%
G36*
X3216598Y790325D02*
X3216598Y790325D01*
X3213006Y791813D01*
X3210256Y794563D01*
X3208768Y798156D01*
X3208768Y802044D01*
X3210256Y805637D01*
X3213006Y808387D01*
X3216598Y809875D01*
X3220487Y809875D01*
X3224080Y808387D01*
X3226829Y805637D01*
X3228317Y802044D01*
X3228317Y798156D01*
X3226829Y794563D01*
X3224080Y791813D01*
X3220487Y790325D01*
X3216598Y790325D01*
G37*
%LPD*%
%LPC*%
G36*
X4063282Y790325D02*
X4063282Y790325D01*
X4059689Y791813D01*
X4056940Y794563D01*
X4055451Y798156D01*
X4055451Y802044D01*
X4056940Y805637D01*
X4059689Y808387D01*
X4063282Y809875D01*
X4067171Y809875D01*
X4070763Y808387D01*
X4073513Y805637D01*
X4075001Y802044D01*
X4075001Y798156D01*
X4073513Y794563D01*
X4070763Y791813D01*
X4067171Y790325D01*
X4063282Y790325D01*
G37*
%LPD*%
%LPC*%
G36*
X3639948Y790325D02*
X3639948Y790325D01*
X3636355Y791813D01*
X3633605Y794563D01*
X3632117Y798156D01*
X3632117Y802044D01*
X3633605Y805637D01*
X3636355Y808387D01*
X3639948Y809875D01*
X3643836Y809875D01*
X3647429Y808387D01*
X3650179Y805637D01*
X3651667Y802044D01*
X3651667Y798156D01*
X3650179Y794563D01*
X3647429Y791813D01*
X3643836Y790325D01*
X3639948Y790325D01*
G37*
%LPD*%
%LPC*%
G36*
X202406Y790325D02*
X202406Y790325D01*
X198813Y791813D01*
X196063Y794563D01*
X194575Y798156D01*
X194575Y802044D01*
X196063Y805637D01*
X198813Y808387D01*
X202406Y809875D01*
X206294Y809875D01*
X209887Y808387D01*
X212637Y805637D01*
X214125Y802044D01*
X214125Y798156D01*
X212637Y794563D01*
X209887Y791813D01*
X206294Y790325D01*
X202406Y790325D01*
G37*
%LPD*%
%LPC*%
G36*
X2793256Y790325D02*
X2793256Y790325D01*
X2789664Y791813D01*
X2786914Y794563D01*
X2785426Y798156D01*
X2785426Y802044D01*
X2786914Y805637D01*
X2789664Y808387D01*
X2793256Y809875D01*
X2797145Y809875D01*
X2800738Y808387D01*
X2803487Y805637D01*
X2804976Y802044D01*
X2804976Y798156D01*
X2803487Y794563D01*
X2800738Y791813D01*
X2797145Y790325D01*
X2793256Y790325D01*
G37*
%LPD*%
%LPC*%
G36*
X2369915Y790325D02*
X2369915Y790325D01*
X2366322Y791813D01*
X2363572Y794563D01*
X2362084Y798156D01*
X2362084Y802044D01*
X2363572Y805637D01*
X2366322Y808387D01*
X2369915Y809875D01*
X2373803Y809875D01*
X2377396Y808387D01*
X2380146Y805637D01*
X2381634Y802044D01*
X2381634Y798156D01*
X2380146Y794563D01*
X2377396Y791813D01*
X2373803Y790325D01*
X2369915Y790325D01*
G37*
%LPD*%
%LPC*%
G36*
X1946573Y790325D02*
X1946573Y790325D01*
X1942980Y791813D01*
X1940231Y794563D01*
X1938742Y798156D01*
X1938742Y802044D01*
X1940231Y805637D01*
X1942980Y808387D01*
X1946573Y809875D01*
X1950462Y809875D01*
X1954054Y808387D01*
X1956804Y805637D01*
X1958292Y802044D01*
X1958292Y798156D01*
X1956804Y794563D01*
X1954054Y791813D01*
X1950462Y790325D01*
X1946573Y790325D01*
G37*
%LPD*%
%LPC*%
G36*
X625747Y790325D02*
X625747Y790325D01*
X622155Y791813D01*
X619405Y794563D01*
X617917Y798156D01*
X617917Y802044D01*
X619405Y805637D01*
X622155Y808387D01*
X625747Y809875D01*
X629636Y809875D01*
X633229Y808387D01*
X635978Y805637D01*
X637467Y802044D01*
X637467Y798156D01*
X635978Y794563D01*
X633229Y791813D01*
X629636Y790325D01*
X625747Y790325D01*
G37*
%LPD*%
%LPC*%
G36*
X1049089Y790325D02*
X1049089Y790325D01*
X1045497Y791813D01*
X1042747Y794563D01*
X1041259Y798156D01*
X1041259Y802044D01*
X1042747Y805637D01*
X1045497Y808387D01*
X1049089Y809875D01*
X1052978Y809875D01*
X1056571Y808387D01*
X1059320Y805637D01*
X1060808Y802044D01*
X1060808Y798156D01*
X1059320Y794563D01*
X1056571Y791813D01*
X1052978Y790325D01*
X1049089Y790325D01*
G37*
%LPD*%
%LPC*%
G36*
X1523231Y790325D02*
X1523231Y790325D01*
X1519638Y791813D01*
X1516889Y794563D01*
X1515401Y798156D01*
X1515401Y802044D01*
X1516889Y805637D01*
X1519638Y808387D01*
X1523231Y809875D01*
X1527120Y809875D01*
X1530712Y808387D01*
X1533462Y805637D01*
X1534950Y802044D01*
X1534950Y798156D01*
X1533462Y794563D01*
X1530712Y791813D01*
X1527120Y790325D01*
X1523231Y790325D01*
G37*
%LPD*%
%LPC*%
G36*
X1049089Y764925D02*
X1049089Y764925D01*
X1045497Y766413D01*
X1042747Y769163D01*
X1041259Y772756D01*
X1041259Y776644D01*
X1042747Y780237D01*
X1045497Y782987D01*
X1049089Y784475D01*
X1052978Y784475D01*
X1056571Y782987D01*
X1059320Y780237D01*
X1060808Y776644D01*
X1060808Y772756D01*
X1059320Y769163D01*
X1056571Y766413D01*
X1052978Y764925D01*
X1049089Y764925D01*
G37*
%LPD*%
%LPC*%
G36*
X1523231Y764925D02*
X1523231Y764925D01*
X1519638Y766413D01*
X1516889Y769163D01*
X1515401Y772756D01*
X1515401Y776644D01*
X1516889Y780237D01*
X1519638Y782987D01*
X1523231Y784475D01*
X1527120Y784475D01*
X1530712Y782987D01*
X1533462Y780237D01*
X1534950Y776644D01*
X1534950Y772756D01*
X1533462Y769163D01*
X1530712Y766413D01*
X1527120Y764925D01*
X1523231Y764925D01*
G37*
%LPD*%
%LPC*%
G36*
X1946573Y764925D02*
X1946573Y764925D01*
X1942980Y766413D01*
X1940231Y769163D01*
X1938742Y772756D01*
X1938742Y776644D01*
X1940231Y780237D01*
X1942980Y782987D01*
X1946573Y784475D01*
X1950462Y784475D01*
X1954054Y782987D01*
X1956804Y780237D01*
X1958292Y776644D01*
X1958292Y772756D01*
X1956804Y769163D01*
X1954054Y766413D01*
X1950462Y764925D01*
X1946573Y764925D01*
G37*
%LPD*%
%LPC*%
G36*
X2369915Y764925D02*
X2369915Y764925D01*
X2366322Y766413D01*
X2363572Y769163D01*
X2362084Y772756D01*
X2362084Y776644D01*
X2363572Y780237D01*
X2366322Y782987D01*
X2369915Y784475D01*
X2373803Y784475D01*
X2377396Y782987D01*
X2380146Y780237D01*
X2381634Y776644D01*
X2381634Y772756D01*
X2380146Y769163D01*
X2377396Y766413D01*
X2373803Y764925D01*
X2369915Y764925D01*
G37*
%LPD*%
%LPC*%
G36*
X2793256Y764925D02*
X2793256Y764925D01*
X2789664Y766413D01*
X2786914Y769163D01*
X2785426Y772756D01*
X2785426Y776644D01*
X2786914Y780237D01*
X2789664Y782987D01*
X2793256Y784475D01*
X2797145Y784475D01*
X2800738Y782987D01*
X2803487Y780237D01*
X2804976Y776644D01*
X2804976Y772756D01*
X2803487Y769163D01*
X2800738Y766413D01*
X2797145Y764925D01*
X2793256Y764925D01*
G37*
%LPD*%
%LPC*%
G36*
X3216598Y764925D02*
X3216598Y764925D01*
X3213006Y766413D01*
X3210256Y769163D01*
X3208768Y772756D01*
X3208768Y776644D01*
X3210256Y780237D01*
X3213006Y782987D01*
X3216598Y784475D01*
X3220487Y784475D01*
X3224080Y782987D01*
X3226829Y780237D01*
X3228317Y776644D01*
X3228317Y772756D01*
X3226829Y769163D01*
X3224080Y766413D01*
X3220487Y764925D01*
X3216598Y764925D01*
G37*
%LPD*%
%LPC*%
G36*
X3639948Y764925D02*
X3639948Y764925D01*
X3636355Y766413D01*
X3633605Y769163D01*
X3632117Y772756D01*
X3632117Y776644D01*
X3633605Y780237D01*
X3636355Y782987D01*
X3639948Y784475D01*
X3643836Y784475D01*
X3647429Y782987D01*
X3650179Y780237D01*
X3651667Y776644D01*
X3651667Y772756D01*
X3650179Y769163D01*
X3647429Y766413D01*
X3643836Y764925D01*
X3639948Y764925D01*
G37*
%LPD*%
%LPC*%
G36*
X4063282Y764925D02*
X4063282Y764925D01*
X4059689Y766413D01*
X4056940Y769163D01*
X4055451Y772756D01*
X4055451Y776644D01*
X4056940Y780237D01*
X4059689Y782987D01*
X4063282Y784475D01*
X4067171Y784475D01*
X4070763Y782987D01*
X4073513Y780237D01*
X4075001Y776644D01*
X4075001Y772756D01*
X4073513Y769163D01*
X4070763Y766413D01*
X4067171Y764925D01*
X4063282Y764925D01*
G37*
%LPD*%
%LPC*%
G36*
X202406Y764925D02*
X202406Y764925D01*
X198813Y766413D01*
X196063Y769163D01*
X194575Y772756D01*
X194575Y776644D01*
X196063Y780237D01*
X198813Y782987D01*
X202406Y784475D01*
X206294Y784475D01*
X209887Y782987D01*
X212637Y780237D01*
X214125Y776644D01*
X214125Y772756D01*
X212637Y769163D01*
X209887Y766413D01*
X206294Y764925D01*
X202406Y764925D01*
G37*
%LPD*%
%LPC*%
G36*
X625747Y764925D02*
X625747Y764925D01*
X622155Y766413D01*
X619405Y769163D01*
X617917Y772756D01*
X617917Y776644D01*
X619405Y780237D01*
X622155Y782987D01*
X625747Y784475D01*
X629636Y784475D01*
X633229Y782987D01*
X635978Y780237D01*
X637467Y776644D01*
X637467Y772756D01*
X635978Y769163D01*
X633229Y766413D01*
X629636Y764925D01*
X625747Y764925D01*
G37*
%LPD*%
%LPC*%
G36*
X3639948Y739525D02*
X3639948Y739525D01*
X3636355Y741013D01*
X3633605Y743763D01*
X3632117Y747356D01*
X3632117Y751244D01*
X3633605Y754837D01*
X3636355Y757587D01*
X3639948Y759075D01*
X3643836Y759075D01*
X3647429Y757587D01*
X3650179Y754837D01*
X3651667Y751244D01*
X3651667Y747356D01*
X3650179Y743763D01*
X3647429Y741013D01*
X3643836Y739525D01*
X3639948Y739525D01*
G37*
%LPD*%
%LPC*%
G36*
X3216598Y739525D02*
X3216598Y739525D01*
X3213006Y741013D01*
X3210256Y743763D01*
X3208768Y747356D01*
X3208768Y751244D01*
X3210256Y754837D01*
X3213006Y757587D01*
X3216598Y759075D01*
X3220487Y759075D01*
X3224080Y757587D01*
X3226829Y754837D01*
X3228317Y751244D01*
X3228317Y747356D01*
X3226829Y743763D01*
X3224080Y741013D01*
X3220487Y739525D01*
X3216598Y739525D01*
G37*
%LPD*%
%LPC*%
G36*
X2793256Y739525D02*
X2793256Y739525D01*
X2789664Y741013D01*
X2786914Y743763D01*
X2785426Y747356D01*
X2785426Y751244D01*
X2786914Y754837D01*
X2789664Y757587D01*
X2793256Y759075D01*
X2797145Y759075D01*
X2800738Y757587D01*
X2803487Y754837D01*
X2804976Y751244D01*
X2804976Y747356D01*
X2803487Y743763D01*
X2800738Y741013D01*
X2797145Y739525D01*
X2793256Y739525D01*
G37*
%LPD*%
%LPC*%
G36*
X2369915Y739525D02*
X2369915Y739525D01*
X2366322Y741013D01*
X2363572Y743763D01*
X2362084Y747356D01*
X2362084Y751244D01*
X2363572Y754837D01*
X2366322Y757587D01*
X2369915Y759075D01*
X2373803Y759075D01*
X2377396Y757587D01*
X2380146Y754837D01*
X2381634Y751244D01*
X2381634Y747356D01*
X2380146Y743763D01*
X2377396Y741013D01*
X2373803Y739525D01*
X2369915Y739525D01*
G37*
%LPD*%
%LPC*%
G36*
X1946573Y739525D02*
X1946573Y739525D01*
X1942980Y741013D01*
X1940231Y743763D01*
X1938742Y747356D01*
X1938742Y751244D01*
X1940231Y754837D01*
X1942980Y757587D01*
X1946573Y759075D01*
X1950462Y759075D01*
X1954054Y757587D01*
X1956804Y754837D01*
X1958292Y751244D01*
X1958292Y747356D01*
X1956804Y743763D01*
X1954054Y741013D01*
X1950462Y739525D01*
X1946573Y739525D01*
G37*
%LPD*%
%LPC*%
G36*
X1523231Y739525D02*
X1523231Y739525D01*
X1519638Y741013D01*
X1516889Y743763D01*
X1515401Y747356D01*
X1515401Y751244D01*
X1516889Y754837D01*
X1519638Y757587D01*
X1523231Y759075D01*
X1527120Y759075D01*
X1530712Y757587D01*
X1533462Y754837D01*
X1534950Y751244D01*
X1534950Y747356D01*
X1533462Y743763D01*
X1530712Y741013D01*
X1527120Y739525D01*
X1523231Y739525D01*
G37*
%LPD*%
%LPC*%
G36*
X1049089Y739525D02*
X1049089Y739525D01*
X1045497Y741013D01*
X1042747Y743763D01*
X1041259Y747356D01*
X1041259Y751244D01*
X1042747Y754837D01*
X1045497Y757587D01*
X1049089Y759075D01*
X1052978Y759075D01*
X1056571Y757587D01*
X1059320Y754837D01*
X1060808Y751244D01*
X1060808Y747356D01*
X1059320Y743763D01*
X1056571Y741013D01*
X1052978Y739525D01*
X1049089Y739525D01*
G37*
%LPD*%
%LPC*%
G36*
X625747Y739525D02*
X625747Y739525D01*
X622155Y741013D01*
X619405Y743763D01*
X617917Y747356D01*
X617917Y751244D01*
X619405Y754837D01*
X622155Y757587D01*
X625747Y759075D01*
X629636Y759075D01*
X633229Y757587D01*
X635978Y754837D01*
X637467Y751244D01*
X637467Y747356D01*
X635978Y743763D01*
X633229Y741013D01*
X629636Y739525D01*
X625747Y739525D01*
G37*
%LPD*%
%LPC*%
G36*
X202406Y739525D02*
X202406Y739525D01*
X198813Y741013D01*
X196063Y743763D01*
X194575Y747356D01*
X194575Y751244D01*
X196063Y754837D01*
X198813Y757587D01*
X202406Y759075D01*
X206294Y759075D01*
X209887Y757587D01*
X212637Y754837D01*
X214125Y751244D01*
X214125Y747356D01*
X212637Y743763D01*
X209887Y741013D01*
X206294Y739525D01*
X202406Y739525D01*
G37*
%LPD*%
%LPC*%
G36*
X4063282Y739525D02*
X4063282Y739525D01*
X4059689Y741013D01*
X4056940Y743763D01*
X4055451Y747356D01*
X4055451Y751244D01*
X4056940Y754837D01*
X4059689Y757587D01*
X4063282Y759075D01*
X4067171Y759075D01*
X4070763Y757587D01*
X4073513Y754837D01*
X4075001Y751244D01*
X4075001Y747356D01*
X4073513Y743763D01*
X4070763Y741013D01*
X4067171Y739525D01*
X4063282Y739525D01*
G37*
%LPD*%
%LPC*%
G36*
X2369915Y714125D02*
X2369915Y714125D01*
X2366322Y715613D01*
X2363572Y718363D01*
X2362084Y721956D01*
X2362084Y725844D01*
X2363572Y729437D01*
X2366322Y732187D01*
X2369915Y733675D01*
X2373803Y733675D01*
X2377396Y732187D01*
X2380146Y729437D01*
X2381634Y725844D01*
X2381634Y721956D01*
X2380146Y718363D01*
X2377396Y715613D01*
X2373803Y714125D01*
X2369915Y714125D01*
G37*
%LPD*%
%LPC*%
G36*
X1049089Y714125D02*
X1049089Y714125D01*
X1045497Y715613D01*
X1042747Y718363D01*
X1041259Y721956D01*
X1041259Y725844D01*
X1042747Y729437D01*
X1045497Y732187D01*
X1049089Y733675D01*
X1052978Y733675D01*
X1056571Y732187D01*
X1059320Y729437D01*
X1060808Y725844D01*
X1060808Y721956D01*
X1059320Y718363D01*
X1056571Y715613D01*
X1052978Y714125D01*
X1049089Y714125D01*
G37*
%LPD*%
%LPC*%
G36*
X1946573Y714125D02*
X1946573Y714125D01*
X1942980Y715613D01*
X1940231Y718363D01*
X1938742Y721956D01*
X1938742Y725844D01*
X1940231Y729437D01*
X1942980Y732187D01*
X1946573Y733675D01*
X1950462Y733675D01*
X1954054Y732187D01*
X1956804Y729437D01*
X1958292Y725844D01*
X1958292Y721956D01*
X1956804Y718363D01*
X1954054Y715613D01*
X1950462Y714125D01*
X1946573Y714125D01*
G37*
%LPD*%
%LPC*%
G36*
X1523231Y714125D02*
X1523231Y714125D01*
X1519638Y715613D01*
X1516889Y718363D01*
X1515401Y721956D01*
X1515401Y725844D01*
X1516889Y729437D01*
X1519638Y732187D01*
X1523231Y733675D01*
X1527120Y733675D01*
X1530712Y732187D01*
X1533462Y729437D01*
X1534950Y725844D01*
X1534950Y721956D01*
X1533462Y718363D01*
X1530712Y715613D01*
X1527120Y714125D01*
X1523231Y714125D01*
G37*
%LPD*%
%LPC*%
G36*
X625747Y714125D02*
X625747Y714125D01*
X622155Y715613D01*
X619405Y718363D01*
X617917Y721956D01*
X617917Y725844D01*
X619405Y729437D01*
X622155Y732187D01*
X625747Y733675D01*
X629636Y733675D01*
X633229Y732187D01*
X635978Y729437D01*
X637467Y725844D01*
X637467Y721956D01*
X635978Y718363D01*
X633229Y715613D01*
X629636Y714125D01*
X625747Y714125D01*
G37*
%LPD*%
%LPC*%
G36*
X202406Y714125D02*
X202406Y714125D01*
X198813Y715613D01*
X196063Y718363D01*
X194575Y721956D01*
X194575Y725844D01*
X196063Y729437D01*
X198813Y732187D01*
X202406Y733675D01*
X206294Y733675D01*
X209887Y732187D01*
X212637Y729437D01*
X214125Y725844D01*
X214125Y721956D01*
X212637Y718363D01*
X209887Y715613D01*
X206294Y714125D01*
X202406Y714125D01*
G37*
%LPD*%
%LPC*%
G36*
X4063282Y714125D02*
X4063282Y714125D01*
X4059689Y715613D01*
X4056940Y718363D01*
X4055451Y721956D01*
X4055451Y725844D01*
X4056940Y729437D01*
X4059689Y732187D01*
X4063282Y733675D01*
X4067171Y733675D01*
X4070763Y732187D01*
X4073513Y729437D01*
X4075001Y725844D01*
X4075001Y721956D01*
X4073513Y718363D01*
X4070763Y715613D01*
X4067171Y714125D01*
X4063282Y714125D01*
G37*
%LPD*%
%LPC*%
G36*
X3639948Y714125D02*
X3639948Y714125D01*
X3636355Y715613D01*
X3633605Y718363D01*
X3632117Y721956D01*
X3632117Y725844D01*
X3633605Y729437D01*
X3636355Y732187D01*
X3639948Y733675D01*
X3643836Y733675D01*
X3647429Y732187D01*
X3650179Y729437D01*
X3651667Y725844D01*
X3651667Y721956D01*
X3650179Y718363D01*
X3647429Y715613D01*
X3643836Y714125D01*
X3639948Y714125D01*
G37*
%LPD*%
%LPC*%
G36*
X3216598Y714125D02*
X3216598Y714125D01*
X3213006Y715613D01*
X3210256Y718363D01*
X3208768Y721956D01*
X3208768Y725844D01*
X3210256Y729437D01*
X3213006Y732187D01*
X3216598Y733675D01*
X3220487Y733675D01*
X3224080Y732187D01*
X3226829Y729437D01*
X3228317Y725844D01*
X3228317Y721956D01*
X3226829Y718363D01*
X3224080Y715613D01*
X3220487Y714125D01*
X3216598Y714125D01*
G37*
%LPD*%
%LPC*%
G36*
X2793256Y714125D02*
X2793256Y714125D01*
X2789664Y715613D01*
X2786914Y718363D01*
X2785426Y721956D01*
X2785426Y725844D01*
X2786914Y729437D01*
X2789664Y732187D01*
X2793256Y733675D01*
X2797145Y733675D01*
X2800738Y732187D01*
X2803487Y729437D01*
X2804976Y725844D01*
X2804976Y721956D01*
X2803487Y718363D01*
X2800738Y715613D01*
X2797145Y714125D01*
X2793256Y714125D01*
G37*
%LPD*%
%LPC*%
G36*
X674247Y993525D02*
X674247Y993525D01*
X670655Y995013D01*
X667905Y997763D01*
X666417Y1001356D01*
X666417Y1005244D01*
X667905Y1008837D01*
X670655Y1011587D01*
X674247Y1013075D01*
X678136Y1013075D01*
X681729Y1011587D01*
X684478Y1008837D01*
X685967Y1005244D01*
X685967Y1001356D01*
X684478Y997763D01*
X681729Y995013D01*
X678136Y993525D01*
X674247Y993525D01*
G37*
%LPD*%
%LPC*%
G36*
X1097589Y993525D02*
X1097589Y993525D01*
X1093997Y995013D01*
X1091247Y997763D01*
X1089759Y1001356D01*
X1089759Y1005244D01*
X1091247Y1008837D01*
X1093997Y1011587D01*
X1097589Y1013075D01*
X1101478Y1013075D01*
X1105071Y1011587D01*
X1107820Y1008837D01*
X1109308Y1005244D01*
X1109308Y1001356D01*
X1107820Y997763D01*
X1105071Y995013D01*
X1101478Y993525D01*
X1097589Y993525D01*
G37*
%LPD*%
%LPC*%
G36*
X1571731Y993525D02*
X1571731Y993525D01*
X1568138Y995013D01*
X1565389Y997763D01*
X1563901Y1001356D01*
X1563901Y1005244D01*
X1565389Y1008837D01*
X1568138Y1011587D01*
X1571731Y1013075D01*
X1575620Y1013075D01*
X1579212Y1011587D01*
X1581962Y1008837D01*
X1583450Y1005244D01*
X1583450Y1001356D01*
X1581962Y997763D01*
X1579212Y995013D01*
X1575620Y993525D01*
X1571731Y993525D01*
G37*
%LPD*%
%LPC*%
G36*
X1995073Y993525D02*
X1995073Y993525D01*
X1991480Y995013D01*
X1988731Y997763D01*
X1987242Y1001356D01*
X1987242Y1005244D01*
X1988731Y1008837D01*
X1991480Y1011587D01*
X1995073Y1013075D01*
X1998962Y1013075D01*
X2002554Y1011587D01*
X2005304Y1008837D01*
X2006792Y1005244D01*
X2006792Y1001356D01*
X2005304Y997763D01*
X2002554Y995013D01*
X1998962Y993525D01*
X1995073Y993525D01*
G37*
%LPD*%
%LPC*%
G36*
X2418415Y993525D02*
X2418415Y993525D01*
X2414822Y995013D01*
X2412072Y997763D01*
X2410584Y1001356D01*
X2410584Y1005244D01*
X2412072Y1008837D01*
X2414822Y1011587D01*
X2418415Y1013075D01*
X2422303Y1013075D01*
X2425896Y1011587D01*
X2428646Y1008837D01*
X2430134Y1005244D01*
X2430134Y1001356D01*
X2428646Y997763D01*
X2425896Y995013D01*
X2422303Y993525D01*
X2418415Y993525D01*
G37*
%LPD*%
%LPC*%
G36*
X3216598Y688725D02*
X3216598Y688725D01*
X3213006Y690213D01*
X3210256Y692963D01*
X3208768Y696556D01*
X3208768Y700444D01*
X3210256Y704037D01*
X3213006Y706787D01*
X3216598Y708275D01*
X3220487Y708275D01*
X3224080Y706787D01*
X3226829Y704037D01*
X3228317Y700444D01*
X3228317Y696556D01*
X3226829Y692963D01*
X3224080Y690213D01*
X3220487Y688725D01*
X3216598Y688725D01*
G37*
%LPD*%
%LPC*%
G36*
X3639948Y688725D02*
X3639948Y688725D01*
X3636355Y690213D01*
X3633605Y692963D01*
X3632117Y696556D01*
X3632117Y700444D01*
X3633605Y704037D01*
X3636355Y706787D01*
X3639948Y708275D01*
X3643836Y708275D01*
X3647429Y706787D01*
X3650179Y704037D01*
X3651667Y700444D01*
X3651667Y696556D01*
X3650179Y692963D01*
X3647429Y690213D01*
X3643836Y688725D01*
X3639948Y688725D01*
G37*
%LPD*%
%LPC*%
G36*
X2793256Y688725D02*
X2793256Y688725D01*
X2789664Y690213D01*
X2786914Y692963D01*
X2785426Y696556D01*
X2785426Y700444D01*
X2786914Y704037D01*
X2789664Y706787D01*
X2793256Y708275D01*
X2797145Y708275D01*
X2800738Y706787D01*
X2803487Y704037D01*
X2804976Y700444D01*
X2804976Y696556D01*
X2803487Y692963D01*
X2800738Y690213D01*
X2797145Y688725D01*
X2793256Y688725D01*
G37*
%LPD*%
%LPC*%
G36*
X2369915Y688725D02*
X2369915Y688725D01*
X2366322Y690213D01*
X2363572Y692963D01*
X2362084Y696556D01*
X2362084Y700444D01*
X2363572Y704037D01*
X2366322Y706787D01*
X2369915Y708275D01*
X2373803Y708275D01*
X2377396Y706787D01*
X2380146Y704037D01*
X2381634Y700444D01*
X2381634Y696556D01*
X2380146Y692963D01*
X2377396Y690213D01*
X2373803Y688725D01*
X2369915Y688725D01*
G37*
%LPD*%
%LPC*%
G36*
X1523231Y688725D02*
X1523231Y688725D01*
X1519638Y690213D01*
X1516889Y692963D01*
X1515401Y696556D01*
X1515401Y700444D01*
X1516889Y704037D01*
X1519638Y706787D01*
X1523231Y708275D01*
X1527120Y708275D01*
X1530712Y706787D01*
X1533462Y704037D01*
X1534950Y700444D01*
X1534950Y696556D01*
X1533462Y692963D01*
X1530712Y690213D01*
X1527120Y688725D01*
X1523231Y688725D01*
G37*
%LPD*%
%LPC*%
G36*
X1049089Y688725D02*
X1049089Y688725D01*
X1045497Y690213D01*
X1042747Y692963D01*
X1041259Y696556D01*
X1041259Y700444D01*
X1042747Y704037D01*
X1045497Y706787D01*
X1049089Y708275D01*
X1052978Y708275D01*
X1056571Y706787D01*
X1059320Y704037D01*
X1060808Y700444D01*
X1060808Y696556D01*
X1059320Y692963D01*
X1056571Y690213D01*
X1052978Y688725D01*
X1049089Y688725D01*
G37*
%LPD*%
%LPC*%
G36*
X625747Y688725D02*
X625747Y688725D01*
X622155Y690213D01*
X619405Y692963D01*
X617917Y696556D01*
X617917Y700444D01*
X619405Y704037D01*
X622155Y706787D01*
X625747Y708275D01*
X629636Y708275D01*
X633229Y706787D01*
X635978Y704037D01*
X637467Y700444D01*
X637467Y696556D01*
X635978Y692963D01*
X633229Y690213D01*
X629636Y688725D01*
X625747Y688725D01*
G37*
%LPD*%
%LPC*%
G36*
X202406Y688725D02*
X202406Y688725D01*
X198813Y690213D01*
X196063Y692963D01*
X194575Y696556D01*
X194575Y700444D01*
X196063Y704037D01*
X198813Y706787D01*
X202406Y708275D01*
X206294Y708275D01*
X209887Y706787D01*
X212637Y704037D01*
X214125Y700444D01*
X214125Y696556D01*
X212637Y692963D01*
X209887Y690213D01*
X206294Y688725D01*
X202406Y688725D01*
G37*
%LPD*%
%LPC*%
G36*
X4063282Y688725D02*
X4063282Y688725D01*
X4059689Y690213D01*
X4056940Y692963D01*
X4055451Y696556D01*
X4055451Y700444D01*
X4056940Y704037D01*
X4059689Y706787D01*
X4063282Y708275D01*
X4067171Y708275D01*
X4070763Y706787D01*
X4073513Y704037D01*
X4075001Y700444D01*
X4075001Y696556D01*
X4073513Y692963D01*
X4070763Y690213D01*
X4067171Y688725D01*
X4063282Y688725D01*
G37*
%LPD*%
%LPC*%
G36*
X1946573Y688725D02*
X1946573Y688725D01*
X1942980Y690213D01*
X1940231Y692963D01*
X1938742Y696556D01*
X1938742Y700444D01*
X1940231Y704037D01*
X1942980Y706787D01*
X1946573Y708275D01*
X1950462Y708275D01*
X1954054Y706787D01*
X1956804Y704037D01*
X1958292Y700444D01*
X1958292Y696556D01*
X1956804Y692963D01*
X1954054Y690213D01*
X1950462Y688725D01*
X1946573Y688725D01*
G37*
%LPD*%
%LPC*%
G36*
X4111782Y993525D02*
X4111782Y993525D01*
X4108189Y995013D01*
X4105440Y997763D01*
X4103951Y1001356D01*
X4103951Y1005244D01*
X4105440Y1008837D01*
X4108189Y1011587D01*
X4111782Y1013075D01*
X4115671Y1013075D01*
X4119263Y1011587D01*
X4122013Y1008837D01*
X4123501Y1005244D01*
X4123501Y1001356D01*
X4122013Y997763D01*
X4119263Y995013D01*
X4115671Y993525D01*
X4111782Y993525D01*
G37*
%LPD*%
%LPC*%
G36*
X2841756Y993525D02*
X2841756Y993525D01*
X2838164Y995013D01*
X2835414Y997763D01*
X2833926Y1001356D01*
X2833926Y1005244D01*
X2835414Y1008837D01*
X2838164Y1011587D01*
X2841756Y1013075D01*
X2845645Y1013075D01*
X2849238Y1011587D01*
X2851987Y1008837D01*
X2853476Y1005244D01*
X2853476Y1001356D01*
X2851987Y997763D01*
X2849238Y995013D01*
X2845645Y993525D01*
X2841756Y993525D01*
G37*
%LPD*%
%LPC*%
G36*
X2793256Y663325D02*
X2793256Y663325D01*
X2789664Y664813D01*
X2786914Y667563D01*
X2785426Y671156D01*
X2785426Y675044D01*
X2786914Y678637D01*
X2789664Y681387D01*
X2793256Y682875D01*
X2797145Y682875D01*
X2800738Y681387D01*
X2803487Y678637D01*
X2804976Y675044D01*
X2804976Y671156D01*
X2803487Y667563D01*
X2800738Y664813D01*
X2797145Y663325D01*
X2793256Y663325D01*
G37*
%LPD*%
%LPC*%
G36*
X3216598Y663325D02*
X3216598Y663325D01*
X3213006Y664813D01*
X3210256Y667563D01*
X3208768Y671156D01*
X3208768Y675044D01*
X3210256Y678637D01*
X3213006Y681387D01*
X3216598Y682875D01*
X3220487Y682875D01*
X3224080Y681387D01*
X3226829Y678637D01*
X3228317Y675044D01*
X3228317Y671156D01*
X3226829Y667563D01*
X3224080Y664813D01*
X3220487Y663325D01*
X3216598Y663325D01*
G37*
%LPD*%
%LPC*%
G36*
X3639948Y663325D02*
X3639948Y663325D01*
X3636355Y664813D01*
X3633605Y667563D01*
X3632117Y671156D01*
X3632117Y675044D01*
X3633605Y678637D01*
X3636355Y681387D01*
X3639948Y682875D01*
X3643836Y682875D01*
X3647429Y681387D01*
X3650179Y678637D01*
X3651667Y675044D01*
X3651667Y671156D01*
X3650179Y667563D01*
X3647429Y664813D01*
X3643836Y663325D01*
X3639948Y663325D01*
G37*
%LPD*%
%LPC*%
G36*
X1946573Y663325D02*
X1946573Y663325D01*
X1942980Y664813D01*
X1940231Y667563D01*
X1938742Y671156D01*
X1938742Y675044D01*
X1940231Y678637D01*
X1942980Y681387D01*
X1946573Y682875D01*
X1950462Y682875D01*
X1954054Y681387D01*
X1956804Y678637D01*
X1958292Y675044D01*
X1958292Y671156D01*
X1956804Y667563D01*
X1954054Y664813D01*
X1950462Y663325D01*
X1946573Y663325D01*
G37*
%LPD*%
%LPC*%
G36*
X1523231Y663325D02*
X1523231Y663325D01*
X1519638Y664813D01*
X1516889Y667563D01*
X1515401Y671156D01*
X1515401Y675044D01*
X1516889Y678637D01*
X1519638Y681387D01*
X1523231Y682875D01*
X1527120Y682875D01*
X1530712Y681387D01*
X1533462Y678637D01*
X1534950Y675044D01*
X1534950Y671156D01*
X1533462Y667563D01*
X1530712Y664813D01*
X1527120Y663325D01*
X1523231Y663325D01*
G37*
%LPD*%
%LPC*%
G36*
X1049089Y663325D02*
X1049089Y663325D01*
X1045497Y664813D01*
X1042747Y667563D01*
X1041259Y671156D01*
X1041259Y675044D01*
X1042747Y678637D01*
X1045497Y681387D01*
X1049089Y682875D01*
X1052978Y682875D01*
X1056571Y681387D01*
X1059320Y678637D01*
X1060808Y675044D01*
X1060808Y671156D01*
X1059320Y667563D01*
X1056571Y664813D01*
X1052978Y663325D01*
X1049089Y663325D01*
G37*
%LPD*%
%LPC*%
G36*
X625747Y663325D02*
X625747Y663325D01*
X622155Y664813D01*
X619405Y667563D01*
X617917Y671156D01*
X617917Y675044D01*
X619405Y678637D01*
X622155Y681387D01*
X625747Y682875D01*
X629636Y682875D01*
X633229Y681387D01*
X635978Y678637D01*
X637467Y675044D01*
X637467Y671156D01*
X635978Y667563D01*
X633229Y664813D01*
X629636Y663325D01*
X625747Y663325D01*
G37*
%LPD*%
%LPC*%
G36*
X202406Y663325D02*
X202406Y663325D01*
X198813Y664813D01*
X196063Y667563D01*
X194575Y671156D01*
X194575Y675044D01*
X196063Y678637D01*
X198813Y681387D01*
X202406Y682875D01*
X206294Y682875D01*
X209887Y681387D01*
X212637Y678637D01*
X214125Y675044D01*
X214125Y671156D01*
X212637Y667563D01*
X209887Y664813D01*
X206294Y663325D01*
X202406Y663325D01*
G37*
%LPD*%
%LPC*%
G36*
X4063282Y663325D02*
X4063282Y663325D01*
X4059689Y664813D01*
X4056940Y667563D01*
X4055451Y671156D01*
X4055451Y675044D01*
X4056940Y678637D01*
X4059689Y681387D01*
X4063282Y682875D01*
X4067171Y682875D01*
X4070763Y681387D01*
X4073513Y678637D01*
X4075001Y675044D01*
X4075001Y671156D01*
X4073513Y667563D01*
X4070763Y664813D01*
X4067171Y663325D01*
X4063282Y663325D01*
G37*
%LPD*%
%LPC*%
G36*
X2369915Y663325D02*
X2369915Y663325D01*
X2366322Y664813D01*
X2363572Y667563D01*
X2362084Y671156D01*
X2362084Y675044D01*
X2363572Y678637D01*
X2366322Y681387D01*
X2369915Y682875D01*
X2373803Y682875D01*
X2377396Y681387D01*
X2380146Y678637D01*
X2381634Y675044D01*
X2381634Y671156D01*
X2380146Y667563D01*
X2377396Y664813D01*
X2373803Y663325D01*
X2369915Y663325D01*
G37*
%LPD*%
%LPC*%
G36*
X2793256Y637925D02*
X2793256Y637925D01*
X2789664Y639413D01*
X2786914Y642163D01*
X2785426Y645756D01*
X2785426Y649644D01*
X2786914Y653237D01*
X2789664Y655987D01*
X2793256Y657475D01*
X2797145Y657475D01*
X2800738Y655987D01*
X2803487Y653237D01*
X2804976Y649644D01*
X2804976Y645756D01*
X2803487Y642163D01*
X2800738Y639413D01*
X2797145Y637925D01*
X2793256Y637925D01*
G37*
%LPD*%
%LPC*%
G36*
X3216598Y637925D02*
X3216598Y637925D01*
X3213006Y639413D01*
X3210256Y642163D01*
X3208768Y645756D01*
X3208768Y649644D01*
X3210256Y653237D01*
X3213006Y655987D01*
X3216598Y657475D01*
X3220487Y657475D01*
X3224080Y655987D01*
X3226829Y653237D01*
X3228317Y649644D01*
X3228317Y645756D01*
X3226829Y642163D01*
X3224080Y639413D01*
X3220487Y637925D01*
X3216598Y637925D01*
G37*
%LPD*%
%LPC*%
G36*
X3639948Y637925D02*
X3639948Y637925D01*
X3636355Y639413D01*
X3633605Y642163D01*
X3632117Y645756D01*
X3632117Y649644D01*
X3633605Y653237D01*
X3636355Y655987D01*
X3639948Y657475D01*
X3643836Y657475D01*
X3647429Y655987D01*
X3650179Y653237D01*
X3651667Y649644D01*
X3651667Y645756D01*
X3650179Y642163D01*
X3647429Y639413D01*
X3643836Y637925D01*
X3639948Y637925D01*
G37*
%LPD*%
%LPC*%
G36*
X4063282Y637925D02*
X4063282Y637925D01*
X4059689Y639413D01*
X4056940Y642163D01*
X4055451Y645756D01*
X4055451Y649644D01*
X4056940Y653237D01*
X4059689Y655987D01*
X4063282Y657475D01*
X4067171Y657475D01*
X4070763Y655987D01*
X4073513Y653237D01*
X4075001Y649644D01*
X4075001Y645756D01*
X4073513Y642163D01*
X4070763Y639413D01*
X4067171Y637925D01*
X4063282Y637925D01*
G37*
%LPD*%
%LPC*%
G36*
X2369915Y637925D02*
X2369915Y637925D01*
X2366322Y639413D01*
X2363572Y642163D01*
X2362084Y645756D01*
X2362084Y649644D01*
X2363572Y653237D01*
X2366322Y655987D01*
X2369915Y657475D01*
X2373803Y657475D01*
X2377396Y655987D01*
X2380146Y653237D01*
X2381634Y649644D01*
X2381634Y645756D01*
X2380146Y642163D01*
X2377396Y639413D01*
X2373803Y637925D01*
X2369915Y637925D01*
G37*
%LPD*%
%LPC*%
G36*
X1946573Y637925D02*
X1946573Y637925D01*
X1942980Y639413D01*
X1940231Y642163D01*
X1938742Y645756D01*
X1938742Y649644D01*
X1940231Y653237D01*
X1942980Y655987D01*
X1946573Y657475D01*
X1950462Y657475D01*
X1954054Y655987D01*
X1956804Y653237D01*
X1958292Y649644D01*
X1958292Y645756D01*
X1956804Y642163D01*
X1954054Y639413D01*
X1950462Y637925D01*
X1946573Y637925D01*
G37*
%LPD*%
%LPC*%
G36*
X1523231Y637925D02*
X1523231Y637925D01*
X1519638Y639413D01*
X1516889Y642163D01*
X1515401Y645756D01*
X1515401Y649644D01*
X1516889Y653237D01*
X1519638Y655987D01*
X1523231Y657475D01*
X1527120Y657475D01*
X1530712Y655987D01*
X1533462Y653237D01*
X1534950Y649644D01*
X1534950Y645756D01*
X1533462Y642163D01*
X1530712Y639413D01*
X1527120Y637925D01*
X1523231Y637925D01*
G37*
%LPD*%
%LPC*%
G36*
X1049089Y637925D02*
X1049089Y637925D01*
X1045497Y639413D01*
X1042747Y642163D01*
X1041259Y645756D01*
X1041259Y649644D01*
X1042747Y653237D01*
X1045497Y655987D01*
X1049089Y657475D01*
X1052978Y657475D01*
X1056571Y655987D01*
X1059320Y653237D01*
X1060808Y649644D01*
X1060808Y645756D01*
X1059320Y642163D01*
X1056571Y639413D01*
X1052978Y637925D01*
X1049089Y637925D01*
G37*
%LPD*%
%LPC*%
G36*
X625747Y637925D02*
X625747Y637925D01*
X622155Y639413D01*
X619405Y642163D01*
X617917Y645756D01*
X617917Y649644D01*
X619405Y653237D01*
X622155Y655987D01*
X625747Y657475D01*
X629636Y657475D01*
X633229Y655987D01*
X635978Y653237D01*
X637467Y649644D01*
X637467Y645756D01*
X635978Y642163D01*
X633229Y639413D01*
X629636Y637925D01*
X625747Y637925D01*
G37*
%LPD*%
%LPC*%
G36*
X202406Y637925D02*
X202406Y637925D01*
X198813Y639413D01*
X196063Y642163D01*
X194575Y645756D01*
X194575Y649644D01*
X196063Y653237D01*
X198813Y655987D01*
X202406Y657475D01*
X206294Y657475D01*
X209887Y655987D01*
X212637Y653237D01*
X214125Y649644D01*
X214125Y645756D01*
X212637Y642163D01*
X209887Y639413D01*
X206294Y637925D01*
X202406Y637925D01*
G37*
%LPD*%
%LPC*%
G36*
X3265098Y993525D02*
X3265098Y993525D01*
X3261506Y995013D01*
X3258756Y997763D01*
X3257268Y1001356D01*
X3257268Y1005244D01*
X3258756Y1008837D01*
X3261506Y1011587D01*
X3265098Y1013075D01*
X3268987Y1013075D01*
X3272580Y1011587D01*
X3275329Y1008837D01*
X3276817Y1005244D01*
X3276817Y1001356D01*
X3275329Y997763D01*
X3272580Y995013D01*
X3268987Y993525D01*
X3265098Y993525D01*
G37*
%LPD*%
%LPC*%
G36*
X4063282Y612525D02*
X4063282Y612525D01*
X4059689Y614013D01*
X4056940Y616763D01*
X4055451Y620356D01*
X4055451Y624244D01*
X4056940Y627837D01*
X4059689Y630587D01*
X4063282Y632075D01*
X4067171Y632075D01*
X4070763Y630587D01*
X4073513Y627837D01*
X4075001Y624244D01*
X4075001Y620356D01*
X4073513Y616763D01*
X4070763Y614013D01*
X4067171Y612525D01*
X4063282Y612525D01*
G37*
%LPD*%
%LPC*%
G36*
X3639948Y612525D02*
X3639948Y612525D01*
X3636355Y614013D01*
X3633605Y616763D01*
X3632117Y620356D01*
X3632117Y624244D01*
X3633605Y627837D01*
X3636355Y630587D01*
X3639948Y632075D01*
X3643836Y632075D01*
X3647429Y630587D01*
X3650179Y627837D01*
X3651667Y624244D01*
X3651667Y620356D01*
X3650179Y616763D01*
X3647429Y614013D01*
X3643836Y612525D01*
X3639948Y612525D01*
G37*
%LPD*%
%LPC*%
G36*
X3216598Y612525D02*
X3216598Y612525D01*
X3213006Y614013D01*
X3210256Y616763D01*
X3208768Y620356D01*
X3208768Y624244D01*
X3210256Y627837D01*
X3213006Y630587D01*
X3216598Y632075D01*
X3220487Y632075D01*
X3224080Y630587D01*
X3226829Y627837D01*
X3228317Y624244D01*
X3228317Y620356D01*
X3226829Y616763D01*
X3224080Y614013D01*
X3220487Y612525D01*
X3216598Y612525D01*
G37*
%LPD*%
%LPC*%
G36*
X2369915Y612525D02*
X2369915Y612525D01*
X2366322Y614013D01*
X2363572Y616763D01*
X2362084Y620356D01*
X2362084Y624244D01*
X2363572Y627837D01*
X2366322Y630587D01*
X2369915Y632075D01*
X2373803Y632075D01*
X2377396Y630587D01*
X2380146Y627837D01*
X2381634Y624244D01*
X2381634Y620356D01*
X2380146Y616763D01*
X2377396Y614013D01*
X2373803Y612525D01*
X2369915Y612525D01*
G37*
%LPD*%
%LPC*%
G36*
X1946573Y612525D02*
X1946573Y612525D01*
X1942980Y614013D01*
X1940231Y616763D01*
X1938742Y620356D01*
X1938742Y624244D01*
X1940231Y627837D01*
X1942980Y630587D01*
X1946573Y632075D01*
X1950462Y632075D01*
X1954054Y630587D01*
X1956804Y627837D01*
X1958292Y624244D01*
X1958292Y620356D01*
X1956804Y616763D01*
X1954054Y614013D01*
X1950462Y612525D01*
X1946573Y612525D01*
G37*
%LPD*%
%LPC*%
G36*
X1523231Y612525D02*
X1523231Y612525D01*
X1519638Y614013D01*
X1516889Y616763D01*
X1515401Y620356D01*
X1515401Y624244D01*
X1516889Y627837D01*
X1519638Y630587D01*
X1523231Y632075D01*
X1527120Y632075D01*
X1530712Y630587D01*
X1533462Y627837D01*
X1534950Y624244D01*
X1534950Y620356D01*
X1533462Y616763D01*
X1530712Y614013D01*
X1527120Y612525D01*
X1523231Y612525D01*
G37*
%LPD*%
%LPC*%
G36*
X202406Y612525D02*
X202406Y612525D01*
X198813Y614013D01*
X196063Y616763D01*
X194575Y620356D01*
X194575Y624244D01*
X196063Y627837D01*
X198813Y630587D01*
X202406Y632075D01*
X206294Y632075D01*
X209887Y630587D01*
X212637Y627837D01*
X214125Y624244D01*
X214125Y620356D01*
X212637Y616763D01*
X209887Y614013D01*
X206294Y612525D01*
X202406Y612525D01*
G37*
%LPD*%
%LPC*%
G36*
X1049089Y612525D02*
X1049089Y612525D01*
X1045497Y614013D01*
X1042747Y616763D01*
X1041259Y620356D01*
X1041259Y624244D01*
X1042747Y627837D01*
X1045497Y630587D01*
X1049089Y632075D01*
X1052978Y632075D01*
X1056571Y630587D01*
X1059320Y627837D01*
X1060808Y624244D01*
X1060808Y620356D01*
X1059320Y616763D01*
X1056571Y614013D01*
X1052978Y612525D01*
X1049089Y612525D01*
G37*
%LPD*%
%LPC*%
G36*
X625747Y612525D02*
X625747Y612525D01*
X622155Y614013D01*
X619405Y616763D01*
X617917Y620356D01*
X617917Y624244D01*
X619405Y627837D01*
X622155Y630587D01*
X625747Y632075D01*
X629636Y632075D01*
X633229Y630587D01*
X635978Y627837D01*
X637467Y624244D01*
X637467Y620356D01*
X635978Y616763D01*
X633229Y614013D01*
X629636Y612525D01*
X625747Y612525D01*
G37*
%LPD*%
%LPC*%
G36*
X625747Y587125D02*
X625747Y587125D01*
X622155Y588613D01*
X619405Y591363D01*
X617917Y594956D01*
X617917Y598844D01*
X619405Y602437D01*
X622155Y605187D01*
X625747Y606675D01*
X629636Y606675D01*
X633229Y605187D01*
X635978Y602437D01*
X637467Y598844D01*
X637467Y594956D01*
X635978Y591363D01*
X633229Y588613D01*
X629636Y587125D01*
X625747Y587125D01*
G37*
%LPD*%
%LPC*%
G36*
X202406Y587125D02*
X202406Y587125D01*
X198813Y588613D01*
X196063Y591363D01*
X194575Y594956D01*
X194575Y598844D01*
X196063Y602437D01*
X198813Y605187D01*
X202406Y606675D01*
X206294Y606675D01*
X209887Y605187D01*
X212637Y602437D01*
X214125Y598844D01*
X214125Y594956D01*
X212637Y591363D01*
X209887Y588613D01*
X206294Y587125D01*
X202406Y587125D01*
G37*
%LPD*%
%LPC*%
G36*
X3639948Y587125D02*
X3639948Y587125D01*
X3636355Y588613D01*
X3633605Y591363D01*
X3632117Y594956D01*
X3632117Y598844D01*
X3633605Y602437D01*
X3636355Y605187D01*
X3639948Y606675D01*
X3643836Y606675D01*
X3647429Y605187D01*
X3650179Y602437D01*
X3651667Y598844D01*
X3651667Y594956D01*
X3650179Y591363D01*
X3647429Y588613D01*
X3643836Y587125D01*
X3639948Y587125D01*
G37*
%LPD*%
%LPC*%
G36*
X1523231Y587125D02*
X1523231Y587125D01*
X1519638Y588613D01*
X1516889Y591363D01*
X1515401Y594956D01*
X1515401Y598844D01*
X1516889Y602437D01*
X1519638Y605187D01*
X1523231Y606675D01*
X1527120Y606675D01*
X1530712Y605187D01*
X1533462Y602437D01*
X1534950Y598844D01*
X1534950Y594956D01*
X1533462Y591363D01*
X1530712Y588613D01*
X1527120Y587125D01*
X1523231Y587125D01*
G37*
%LPD*%
%LPC*%
G36*
X3216598Y587125D02*
X3216598Y587125D01*
X3213006Y588613D01*
X3210256Y591363D01*
X3208768Y594956D01*
X3208768Y598844D01*
X3210256Y602437D01*
X3213006Y605187D01*
X3216598Y606675D01*
X3220487Y606675D01*
X3224080Y605187D01*
X3226829Y602437D01*
X3228317Y598844D01*
X3228317Y594956D01*
X3226829Y591363D01*
X3224080Y588613D01*
X3220487Y587125D01*
X3216598Y587125D01*
G37*
%LPD*%
%LPC*%
G36*
X2793256Y587125D02*
X2793256Y587125D01*
X2789664Y588613D01*
X2786914Y591363D01*
X2785426Y594956D01*
X2785426Y598844D01*
X2786914Y602437D01*
X2789664Y605187D01*
X2793256Y606675D01*
X2797145Y606675D01*
X2800738Y605187D01*
X2803487Y602437D01*
X2804976Y598844D01*
X2804976Y594956D01*
X2803487Y591363D01*
X2800738Y588613D01*
X2797145Y587125D01*
X2793256Y587125D01*
G37*
%LPD*%
%LPC*%
G36*
X2369915Y587125D02*
X2369915Y587125D01*
X2366322Y588613D01*
X2363572Y591363D01*
X2362084Y594956D01*
X2362084Y598844D01*
X2363572Y602437D01*
X2366322Y605187D01*
X2369915Y606675D01*
X2373803Y606675D01*
X2377396Y605187D01*
X2380146Y602437D01*
X2381634Y598844D01*
X2381634Y594956D01*
X2380146Y591363D01*
X2377396Y588613D01*
X2373803Y587125D01*
X2369915Y587125D01*
G37*
%LPD*%
%LPC*%
G36*
X4063282Y587125D02*
X4063282Y587125D01*
X4059689Y588613D01*
X4056940Y591363D01*
X4055451Y594956D01*
X4055451Y598844D01*
X4056940Y602437D01*
X4059689Y605187D01*
X4063282Y606675D01*
X4067171Y606675D01*
X4070763Y605187D01*
X4073513Y602437D01*
X4075001Y598844D01*
X4075001Y594956D01*
X4073513Y591363D01*
X4070763Y588613D01*
X4067171Y587125D01*
X4063282Y587125D01*
G37*
%LPD*%
%LPC*%
G36*
X1946573Y587125D02*
X1946573Y587125D01*
X1942980Y588613D01*
X1940231Y591363D01*
X1938742Y594956D01*
X1938742Y598844D01*
X1940231Y602437D01*
X1942980Y605187D01*
X1946573Y606675D01*
X1950462Y606675D01*
X1954054Y605187D01*
X1956804Y602437D01*
X1958292Y598844D01*
X1958292Y594956D01*
X1956804Y591363D01*
X1954054Y588613D01*
X1950462Y587125D01*
X1946573Y587125D01*
G37*
%LPD*%
%LPC*%
G36*
X1049089Y587125D02*
X1049089Y587125D01*
X1045497Y588613D01*
X1042747Y591363D01*
X1041259Y594956D01*
X1041259Y598844D01*
X1042747Y602437D01*
X1045497Y605187D01*
X1049089Y606675D01*
X1052978Y606675D01*
X1056571Y605187D01*
X1059320Y602437D01*
X1060808Y598844D01*
X1060808Y594956D01*
X1059320Y591363D01*
X1056571Y588613D01*
X1052978Y587125D01*
X1049089Y587125D01*
G37*
%LPD*%
%LPC*%
G36*
X1523231Y561725D02*
X1523231Y561725D01*
X1519638Y563213D01*
X1516889Y565963D01*
X1515401Y569556D01*
X1515401Y573444D01*
X1516889Y577037D01*
X1519638Y579787D01*
X1523231Y581275D01*
X1527120Y581275D01*
X1530712Y579787D01*
X1533462Y577037D01*
X1534950Y573444D01*
X1534950Y569556D01*
X1533462Y565963D01*
X1530712Y563213D01*
X1527120Y561725D01*
X1523231Y561725D01*
G37*
%LPD*%
%LPC*%
G36*
X1049089Y561725D02*
X1049089Y561725D01*
X1045497Y563213D01*
X1042747Y565963D01*
X1041259Y569556D01*
X1041259Y573444D01*
X1042747Y577037D01*
X1045497Y579787D01*
X1049089Y581275D01*
X1052978Y581275D01*
X1056571Y579787D01*
X1059320Y577037D01*
X1060808Y573444D01*
X1060808Y569556D01*
X1059320Y565963D01*
X1056571Y563213D01*
X1052978Y561725D01*
X1049089Y561725D01*
G37*
%LPD*%
%LPC*%
G36*
X625747Y561725D02*
X625747Y561725D01*
X622155Y563213D01*
X619405Y565963D01*
X617917Y569556D01*
X617917Y573444D01*
X619405Y577037D01*
X622155Y579787D01*
X625747Y581275D01*
X629636Y581275D01*
X633229Y579787D01*
X635978Y577037D01*
X637467Y573444D01*
X637467Y569556D01*
X635978Y565963D01*
X633229Y563213D01*
X629636Y561725D01*
X625747Y561725D01*
G37*
%LPD*%
%LPC*%
G36*
X2793256Y561725D02*
X2793256Y561725D01*
X2789664Y563213D01*
X2786914Y565963D01*
X2785426Y569556D01*
X2785426Y573444D01*
X2786914Y577037D01*
X2789664Y579787D01*
X2793256Y581275D01*
X2797145Y581275D01*
X2800738Y579787D01*
X2803487Y577037D01*
X2804976Y573444D01*
X2804976Y569556D01*
X2803487Y565963D01*
X2800738Y563213D01*
X2797145Y561725D01*
X2793256Y561725D01*
G37*
%LPD*%
%LPC*%
G36*
X202406Y561725D02*
X202406Y561725D01*
X198813Y563213D01*
X196063Y565963D01*
X194575Y569556D01*
X194575Y573444D01*
X196063Y577037D01*
X198813Y579787D01*
X202406Y581275D01*
X206294Y581275D01*
X209887Y579787D01*
X212637Y577037D01*
X214125Y573444D01*
X214125Y569556D01*
X212637Y565963D01*
X209887Y563213D01*
X206294Y561725D01*
X202406Y561725D01*
G37*
%LPD*%
%LPC*%
G36*
X2793256Y612525D02*
X2793256Y612525D01*
X2789664Y614013D01*
X2786914Y616763D01*
X2785426Y620356D01*
X2785426Y624244D01*
X2786914Y627837D01*
X2789664Y630587D01*
X2793256Y632075D01*
X2797145Y632075D01*
X2800738Y630587D01*
X2803487Y627837D01*
X2804976Y624244D01*
X2804976Y620356D01*
X2803487Y616763D01*
X2800738Y614013D01*
X2797145Y612525D01*
X2793256Y612525D01*
G37*
%LPD*%
%LPC*%
G36*
X3639948Y561725D02*
X3639948Y561725D01*
X3636355Y563213D01*
X3633605Y565963D01*
X3632117Y569556D01*
X3632117Y573444D01*
X3633605Y577037D01*
X3636355Y579787D01*
X3639948Y581275D01*
X3643836Y581275D01*
X3647429Y579787D01*
X3650179Y577037D01*
X3651667Y573444D01*
X3651667Y569556D01*
X3650179Y565963D01*
X3647429Y563213D01*
X3643836Y561725D01*
X3639948Y561725D01*
G37*
%LPD*%
%LPC*%
G36*
X3216598Y561725D02*
X3216598Y561725D01*
X3213006Y563213D01*
X3210256Y565963D01*
X3208768Y569556D01*
X3208768Y573444D01*
X3210256Y577037D01*
X3213006Y579787D01*
X3216598Y581275D01*
X3220487Y581275D01*
X3224080Y579787D01*
X3226829Y577037D01*
X3228317Y573444D01*
X3228317Y569556D01*
X3226829Y565963D01*
X3224080Y563213D01*
X3220487Y561725D01*
X3216598Y561725D01*
G37*
%LPD*%
%LPC*%
G36*
X2369915Y561725D02*
X2369915Y561725D01*
X2366322Y563213D01*
X2363572Y565963D01*
X2362084Y569556D01*
X2362084Y573444D01*
X2363572Y577037D01*
X2366322Y579787D01*
X2369915Y581275D01*
X2373803Y581275D01*
X2377396Y579787D01*
X2380146Y577037D01*
X2381634Y573444D01*
X2381634Y569556D01*
X2380146Y565963D01*
X2377396Y563213D01*
X2373803Y561725D01*
X2369915Y561725D01*
G37*
%LPD*%
%LPC*%
G36*
X1946573Y561725D02*
X1946573Y561725D01*
X1942980Y563213D01*
X1940231Y565963D01*
X1938742Y569556D01*
X1938742Y573444D01*
X1940231Y577037D01*
X1942980Y579787D01*
X1946573Y581275D01*
X1950462Y581275D01*
X1954054Y579787D01*
X1956804Y577037D01*
X1958292Y573444D01*
X1958292Y569556D01*
X1956804Y565963D01*
X1954054Y563213D01*
X1950462Y561725D01*
X1946573Y561725D01*
G37*
%LPD*%
%LPC*%
G36*
X674247Y510925D02*
X674247Y510925D01*
X670655Y512413D01*
X667905Y515163D01*
X666417Y518756D01*
X666417Y522644D01*
X667905Y526237D01*
X670655Y528987D01*
X674247Y530475D01*
X678136Y530475D01*
X681729Y528987D01*
X684478Y526237D01*
X685967Y522644D01*
X685967Y518756D01*
X684478Y515163D01*
X681729Y512413D01*
X678136Y510925D01*
X674247Y510925D01*
G37*
%LPD*%
%LPC*%
G36*
X3216598Y510925D02*
X3216598Y510925D01*
X3213006Y512413D01*
X3210256Y515163D01*
X3208768Y518756D01*
X3208768Y522644D01*
X3210256Y526237D01*
X3213006Y528987D01*
X3216598Y530475D01*
X3220487Y530475D01*
X3224080Y528987D01*
X3226829Y526237D01*
X3228317Y522644D01*
X3228317Y518756D01*
X3226829Y515163D01*
X3224080Y512413D01*
X3220487Y510925D01*
X3216598Y510925D01*
G37*
%LPD*%
%LPC*%
G36*
X625747Y510925D02*
X625747Y510925D01*
X622155Y512413D01*
X619405Y515163D01*
X617917Y518756D01*
X617917Y522644D01*
X619405Y526237D01*
X622155Y528987D01*
X625747Y530475D01*
X629636Y530475D01*
X633229Y528987D01*
X635978Y526237D01*
X637467Y522644D01*
X637467Y518756D01*
X635978Y515163D01*
X633229Y512413D01*
X629636Y510925D01*
X625747Y510925D01*
G37*
%LPD*%
%LPC*%
G36*
X1995073Y510925D02*
X1995073Y510925D01*
X1991480Y512413D01*
X1988731Y515163D01*
X1987242Y518756D01*
X1987242Y522644D01*
X1988731Y526237D01*
X1991480Y528987D01*
X1995073Y530475D01*
X1998962Y530475D01*
X2002554Y528987D01*
X2005304Y526237D01*
X2006792Y522644D01*
X2006792Y518756D01*
X2005304Y515163D01*
X2002554Y512413D01*
X1998962Y510925D01*
X1995073Y510925D01*
G37*
%LPD*%
%LPC*%
G36*
X1049089Y510925D02*
X1049089Y510925D01*
X1045497Y512413D01*
X1042747Y515163D01*
X1041259Y518756D01*
X1041259Y522644D01*
X1042747Y526237D01*
X1045497Y528987D01*
X1049089Y530475D01*
X1052978Y530475D01*
X1056571Y528987D01*
X1059320Y526237D01*
X1060808Y522644D01*
X1060808Y518756D01*
X1059320Y515163D01*
X1056571Y512413D01*
X1052978Y510925D01*
X1049089Y510925D01*
G37*
%LPD*%
%LPC*%
G36*
X1097589Y510925D02*
X1097589Y510925D01*
X1093997Y512413D01*
X1091247Y515163D01*
X1089759Y518756D01*
X1089759Y522644D01*
X1091247Y526237D01*
X1093997Y528987D01*
X1097589Y530475D01*
X1101478Y530475D01*
X1105071Y528987D01*
X1107820Y526237D01*
X1109308Y522644D01*
X1109308Y518756D01*
X1107820Y515163D01*
X1105071Y512413D01*
X1101478Y510925D01*
X1097589Y510925D01*
G37*
%LPD*%
%LPC*%
G36*
X1523231Y510925D02*
X1523231Y510925D01*
X1519638Y512413D01*
X1516889Y515163D01*
X1515401Y518756D01*
X1515401Y522644D01*
X1516889Y526237D01*
X1519638Y528987D01*
X1523231Y530475D01*
X1527120Y530475D01*
X1530712Y528987D01*
X1533462Y526237D01*
X1534950Y522644D01*
X1534950Y518756D01*
X1533462Y515163D01*
X1530712Y512413D01*
X1527120Y510925D01*
X1523231Y510925D01*
G37*
%LPD*%
%LPC*%
G36*
X1571731Y510925D02*
X1571731Y510925D01*
X1568138Y512413D01*
X1565389Y515163D01*
X1563901Y518756D01*
X1563901Y522644D01*
X1565389Y526237D01*
X1568138Y528987D01*
X1571731Y530475D01*
X1575620Y530475D01*
X1579212Y528987D01*
X1581962Y526237D01*
X1583450Y522644D01*
X1583450Y518756D01*
X1581962Y515163D01*
X1579212Y512413D01*
X1575620Y510925D01*
X1571731Y510925D01*
G37*
%LPD*%
%LPC*%
G36*
X1946573Y510925D02*
X1946573Y510925D01*
X1942980Y512413D01*
X1940231Y515163D01*
X1938742Y518756D01*
X1938742Y522644D01*
X1940231Y526237D01*
X1942980Y528987D01*
X1946573Y530475D01*
X1950462Y530475D01*
X1954054Y528987D01*
X1956804Y526237D01*
X1958292Y522644D01*
X1958292Y518756D01*
X1956804Y515163D01*
X1954054Y512413D01*
X1950462Y510925D01*
X1946573Y510925D01*
G37*
%LPD*%
%LPC*%
G36*
X250906Y510925D02*
X250906Y510925D01*
X247313Y512413D01*
X244563Y515163D01*
X243075Y518756D01*
X243075Y522644D01*
X244563Y526237D01*
X247313Y528987D01*
X250906Y530475D01*
X254794Y530475D01*
X258387Y528987D01*
X261137Y526237D01*
X262625Y522644D01*
X262625Y518756D01*
X261137Y515163D01*
X258387Y512413D01*
X254794Y510925D01*
X250906Y510925D01*
G37*
%LPD*%
%LPC*%
G36*
X202406Y510925D02*
X202406Y510925D01*
X198813Y512413D01*
X196063Y515163D01*
X194575Y518756D01*
X194575Y522644D01*
X196063Y526237D01*
X198813Y528987D01*
X202406Y530475D01*
X206294Y530475D01*
X209887Y528987D01*
X212637Y526237D01*
X214125Y522644D01*
X214125Y518756D01*
X212637Y515163D01*
X209887Y512413D01*
X206294Y510925D01*
X202406Y510925D01*
G37*
%LPD*%
%LPC*%
G36*
X4111782Y510925D02*
X4111782Y510925D01*
X4108189Y512413D01*
X4105440Y515163D01*
X4103951Y518756D01*
X4103951Y522644D01*
X4105440Y526237D01*
X4108189Y528987D01*
X4111782Y530475D01*
X4115671Y530475D01*
X4119263Y528987D01*
X4122013Y526237D01*
X4123501Y522644D01*
X4123501Y518756D01*
X4122013Y515163D01*
X4119263Y512413D01*
X4115671Y510925D01*
X4111782Y510925D01*
G37*
%LPD*%
%LPC*%
G36*
X4063282Y510925D02*
X4063282Y510925D01*
X4059689Y512413D01*
X4056940Y515163D01*
X4055451Y518756D01*
X4055451Y522644D01*
X4056940Y526237D01*
X4059689Y528987D01*
X4063282Y530475D01*
X4067171Y530475D01*
X4070763Y528987D01*
X4073513Y526237D01*
X4075001Y522644D01*
X4075001Y518756D01*
X4073513Y515163D01*
X4070763Y512413D01*
X4067171Y510925D01*
X4063282Y510925D01*
G37*
%LPD*%
%LPC*%
G36*
X3688448Y510925D02*
X3688448Y510925D01*
X3684855Y512413D01*
X3682105Y515163D01*
X3680617Y518756D01*
X3680617Y522644D01*
X3682105Y526237D01*
X3684855Y528987D01*
X3688448Y530475D01*
X3692336Y530475D01*
X3695929Y528987D01*
X3698679Y526237D01*
X3700167Y522644D01*
X3700167Y518756D01*
X3698679Y515163D01*
X3695929Y512413D01*
X3692336Y510925D01*
X3688448Y510925D01*
G37*
%LPD*%
%LPC*%
G36*
X2793256Y510925D02*
X2793256Y510925D01*
X2789664Y512413D01*
X2786914Y515163D01*
X2785426Y518756D01*
X2785426Y522644D01*
X2786914Y526237D01*
X2789664Y528987D01*
X2793256Y530475D01*
X2797145Y530475D01*
X2800738Y528987D01*
X2803487Y526237D01*
X2804976Y522644D01*
X2804976Y518756D01*
X2803487Y515163D01*
X2800738Y512413D01*
X2797145Y510925D01*
X2793256Y510925D01*
G37*
%LPD*%
%LPC*%
G36*
X3639948Y510925D02*
X3639948Y510925D01*
X3636355Y512413D01*
X3633605Y515163D01*
X3632117Y518756D01*
X3632117Y522644D01*
X3633605Y526237D01*
X3636355Y528987D01*
X3639948Y530475D01*
X3643836Y530475D01*
X3647429Y528987D01*
X3650179Y526237D01*
X3651667Y522644D01*
X3651667Y518756D01*
X3650179Y515163D01*
X3647429Y512413D01*
X3643836Y510925D01*
X3639948Y510925D01*
G37*
%LPD*%
%LPC*%
G36*
X3265098Y510925D02*
X3265098Y510925D01*
X3261506Y512413D01*
X3258756Y515163D01*
X3257268Y518756D01*
X3257268Y522644D01*
X3258756Y526237D01*
X3261506Y528987D01*
X3265098Y530475D01*
X3268987Y530475D01*
X3272580Y528987D01*
X3275329Y526237D01*
X3276817Y522644D01*
X3276817Y518756D01*
X3275329Y515163D01*
X3272580Y512413D01*
X3268987Y510925D01*
X3265098Y510925D01*
G37*
%LPD*%
%LPC*%
G36*
X2841756Y510925D02*
X2841756Y510925D01*
X2838164Y512413D01*
X2835414Y515163D01*
X2833926Y518756D01*
X2833926Y522644D01*
X2835414Y526237D01*
X2838164Y528987D01*
X2841756Y530475D01*
X2845645Y530475D01*
X2849238Y528987D01*
X2851987Y526237D01*
X2853476Y522644D01*
X2853476Y518756D01*
X2851987Y515163D01*
X2849238Y512413D01*
X2845645Y510925D01*
X2841756Y510925D01*
G37*
%LPD*%
%LPC*%
G36*
X2418415Y510925D02*
X2418415Y510925D01*
X2414822Y512413D01*
X2412072Y515163D01*
X2410584Y518756D01*
X2410584Y522644D01*
X2412072Y526237D01*
X2414822Y528987D01*
X2418415Y530475D01*
X2422303Y530475D01*
X2425896Y528987D01*
X2428646Y526237D01*
X2430134Y522644D01*
X2430134Y518756D01*
X2428646Y515163D01*
X2425896Y512413D01*
X2422303Y510925D01*
X2418415Y510925D01*
G37*
%LPD*%
%LPC*%
G36*
X2369915Y510925D02*
X2369915Y510925D01*
X2366322Y512413D01*
X2363572Y515163D01*
X2362084Y518756D01*
X2362084Y522644D01*
X2363572Y526237D01*
X2366322Y528987D01*
X2369915Y530475D01*
X2373803Y530475D01*
X2377396Y528987D01*
X2380146Y526237D01*
X2381634Y522644D01*
X2381634Y518756D01*
X2380146Y515163D01*
X2377396Y512413D01*
X2373803Y510925D01*
X2369915Y510925D01*
G37*
%LPD*%
%LPC*%
G36*
X4063282Y561725D02*
X4063282Y561725D01*
X4059689Y563213D01*
X4056940Y565963D01*
X4055451Y569556D01*
X4055451Y573444D01*
X4056940Y577037D01*
X4059689Y579787D01*
X4063282Y581275D01*
X4067171Y581275D01*
X4070763Y579787D01*
X4073513Y577037D01*
X4075001Y573444D01*
X4075001Y569556D01*
X4073513Y565963D01*
X4070763Y563213D01*
X4067171Y561725D01*
X4063282Y561725D01*
G37*
%LPD*%
%LPC*%
G36*
X950926Y954560D02*
X950926Y954560D01*
X947594Y955940D01*
X945044Y958490D01*
X943664Y961822D01*
X943664Y965428D01*
X945044Y968760D01*
X947594Y971310D01*
X950926Y972690D01*
X954532Y972690D01*
X957863Y971310D01*
X960413Y968760D01*
X961793Y965428D01*
X961793Y961822D01*
X960413Y958490D01*
X957863Y955940D01*
X954532Y954560D01*
X950926Y954560D01*
G37*
%LPD*%
%LPC*%
G36*
X849326Y954560D02*
X849326Y954560D01*
X845994Y955940D01*
X843444Y958490D01*
X842064Y961822D01*
X842064Y965428D01*
X843444Y968760D01*
X845994Y971310D01*
X849326Y972690D01*
X852932Y972690D01*
X856263Y971310D01*
X858813Y968760D01*
X860193Y965428D01*
X860193Y961822D01*
X858813Y958490D01*
X856263Y955940D01*
X852932Y954560D01*
X849326Y954560D01*
G37*
%LPD*%
D10*
X204350Y1003300D03*
D11*
X252850Y1003300D03*
X204350Y977900D03*
X252850Y977900D03*
X204350Y952500D03*
X252850Y952500D03*
X204350Y927100D03*
X252850Y927100D03*
X204350Y901700D03*
X252850Y901700D03*
X204350Y876300D03*
X252850Y876300D03*
X204350Y850900D03*
X252850Y850900D03*
X204350Y825500D03*
X252850Y825500D03*
X204350Y800100D03*
X252850Y800100D03*
X204350Y774700D03*
X252850Y774700D03*
X204350Y749300D03*
X252850Y749300D03*
X204350Y723900D03*
X252850Y723900D03*
X204350Y698500D03*
X252850Y698500D03*
X204350Y673100D03*
X252850Y673100D03*
X204350Y647700D03*
X252850Y647700D03*
X204350Y622300D03*
X252850Y622300D03*
X204350Y596900D03*
X252850Y596900D03*
X204350Y571500D03*
X252850Y571500D03*
X204350Y546100D03*
X252850Y546100D03*
X204350Y520700D03*
X252850Y520700D03*
X204350Y495300D03*
X252850Y495300D03*
X204350Y469900D03*
X252850Y469900D03*
X204350Y444500D03*
X252850Y444500D03*
X204350Y419100D03*
X252850Y419100D03*
X204350Y393700D03*
X252850Y393700D03*
D10*
X627692Y1003300D03*
D11*
X676192Y1003300D03*
X627692Y977900D03*
X676192Y977900D03*
X627692Y952500D03*
X676192Y952500D03*
X627692Y927100D03*
X676192Y927100D03*
X627692Y901700D03*
X676192Y901700D03*
X627692Y876300D03*
X676192Y876300D03*
X627692Y850900D03*
X676192Y850900D03*
X627692Y825500D03*
X676192Y825500D03*
X627692Y800100D03*
X676192Y800100D03*
X627692Y774700D03*
X676192Y774700D03*
X627692Y749300D03*
X676192Y749300D03*
X627692Y723900D03*
X676192Y723900D03*
X627692Y698500D03*
X676192Y698500D03*
X627692Y673100D03*
X676192Y673100D03*
X627692Y647700D03*
X676192Y647700D03*
X627692Y622300D03*
X676192Y622300D03*
X627692Y596900D03*
X676192Y596900D03*
X627692Y571500D03*
X676192Y571500D03*
X627692Y546100D03*
X676192Y546100D03*
X627692Y520700D03*
X676192Y520700D03*
X627692Y495300D03*
X676192Y495300D03*
X627692Y469900D03*
X676192Y469900D03*
X627692Y444500D03*
X676192Y444500D03*
X627692Y419100D03*
X676192Y419100D03*
X627692Y393700D03*
X676192Y393700D03*
D10*
X1051034Y1003300D03*
D11*
X1099534Y1003300D03*
X1051034Y977900D03*
X1099534Y977900D03*
X1051034Y952500D03*
X1099534Y952500D03*
X1051034Y927100D03*
X1099534Y927100D03*
X1051034Y901700D03*
X1099534Y901700D03*
X1051034Y876300D03*
X1099534Y876300D03*
X1051034Y850900D03*
X1099534Y850900D03*
X1051034Y825500D03*
X1099534Y825500D03*
X1051034Y800100D03*
X1099534Y800100D03*
X1051034Y774700D03*
X1099534Y774700D03*
X1051034Y749300D03*
X1099534Y749300D03*
X1051034Y723900D03*
X1099534Y723900D03*
X1051034Y698500D03*
X1099534Y698500D03*
X1051034Y673100D03*
X1099534Y673100D03*
X1051034Y647700D03*
X1099534Y647700D03*
X1051034Y622300D03*
X1099534Y622300D03*
X1051034Y596900D03*
X1099534Y596900D03*
X1051034Y571500D03*
X1099534Y571500D03*
X1051034Y546100D03*
X1099534Y546100D03*
X1051034Y520700D03*
X1099534Y520700D03*
X1051034Y495300D03*
X1099534Y495300D03*
X1051034Y469900D03*
X1099534Y469900D03*
X1051034Y444500D03*
X1099534Y444500D03*
X1051034Y419100D03*
X1099534Y419100D03*
X1051034Y393700D03*
X1099534Y393700D03*
D10*
X1525175Y1003300D03*
D11*
X1573675Y1003300D03*
X1525175Y977900D03*
X1573675Y977900D03*
X1525175Y952500D03*
X1573675Y952500D03*
X1525175Y927100D03*
X1573675Y927100D03*
X1525175Y901700D03*
X1573675Y901700D03*
X1525175Y876300D03*
X1573675Y876300D03*
X1525175Y850900D03*
X1573675Y850900D03*
X1525175Y825500D03*
X1573675Y825500D03*
X1525175Y800100D03*
X1573675Y800100D03*
X1525175Y774700D03*
X1573675Y774700D03*
X1525175Y749300D03*
X1573675Y749300D03*
X1525175Y723900D03*
X1573675Y723900D03*
X1525175Y698500D03*
X1573675Y698500D03*
X1525175Y673100D03*
X1573675Y673100D03*
X1525175Y647700D03*
X1573675Y647700D03*
X1525175Y622300D03*
X1573675Y622300D03*
X1525175Y596900D03*
X1573675Y596900D03*
X1525175Y571500D03*
X1573675Y571500D03*
X1525175Y546100D03*
X1573675Y546100D03*
X1525175Y520700D03*
X1573675Y520700D03*
X1525175Y495300D03*
X1573675Y495300D03*
X1525175Y469900D03*
X1573675Y469900D03*
X1525175Y444500D03*
X1573675Y444500D03*
X1525175Y419100D03*
X1573675Y419100D03*
X1525175Y393700D03*
X1573675Y393700D03*
D10*
X1948517Y1003300D03*
D11*
X1997017Y1003300D03*
X1948517Y977900D03*
X1997017Y977900D03*
X1948517Y952500D03*
X1997017Y952500D03*
X1948517Y927100D03*
X1997017Y927100D03*
X1948517Y901700D03*
X1997017Y901700D03*
X1948517Y876300D03*
X1997017Y876300D03*
X1948517Y850900D03*
X1997017Y850900D03*
X1948517Y825500D03*
X1997017Y825500D03*
X1948517Y800100D03*
X1997017Y800100D03*
X1948517Y774700D03*
X1997017Y774700D03*
X1948517Y749300D03*
X1997017Y749300D03*
X1948517Y723900D03*
X1997017Y723900D03*
X1948517Y698500D03*
X1997017Y698500D03*
X1948517Y673100D03*
X1997017Y673100D03*
X1948517Y647700D03*
X1997017Y647700D03*
X1948517Y622300D03*
X1997017Y622300D03*
X1948517Y596900D03*
X1997017Y596900D03*
X1948517Y571500D03*
X1997017Y571500D03*
X1948517Y546100D03*
X1997017Y546100D03*
X1948517Y520700D03*
X1997017Y520700D03*
X1948517Y495300D03*
X1997017Y495300D03*
X1948517Y469900D03*
X1997017Y469900D03*
X1948517Y444500D03*
X1997017Y444500D03*
X1948517Y419100D03*
X1997017Y419100D03*
X1948517Y393700D03*
X1997017Y393700D03*
D10*
X2371859Y1003300D03*
D11*
X2420359Y1003300D03*
X2371859Y977900D03*
X2420359Y977900D03*
X2371859Y952500D03*
X2420359Y952500D03*
X2371859Y927100D03*
X2420359Y927100D03*
X2371859Y901700D03*
X2420359Y901700D03*
X2371859Y876300D03*
X2420359Y876300D03*
X2371859Y850900D03*
X2420359Y850900D03*
X2371859Y825500D03*
X2420359Y825500D03*
X2371859Y800100D03*
X2420359Y800100D03*
X2371859Y774700D03*
X2420359Y774700D03*
X2371859Y749300D03*
X2420359Y749300D03*
X2371859Y723900D03*
X2420359Y723900D03*
X2371859Y698500D03*
X2420359Y698500D03*
X2371859Y673100D03*
X2420359Y673100D03*
X2371859Y647700D03*
X2420359Y647700D03*
X2371859Y622300D03*
X2420359Y622300D03*
X2371859Y596900D03*
X2420359Y596900D03*
X2371859Y571500D03*
X2420359Y571500D03*
X2371859Y546100D03*
X2420359Y546100D03*
X2371859Y520700D03*
X2420359Y520700D03*
X2371859Y495300D03*
X2420359Y495300D03*
X2371859Y469900D03*
X2420359Y469900D03*
X2371859Y444500D03*
X2420359Y444500D03*
X2371859Y419100D03*
X2420359Y419100D03*
X2371859Y393700D03*
X2420359Y393700D03*
D10*
X2795201Y1003300D03*
D11*
X2843701Y1003300D03*
X2795201Y977900D03*
X2843701Y977900D03*
X2795201Y952500D03*
X2843701Y952500D03*
X2795201Y927100D03*
X2843701Y927100D03*
X2795201Y901700D03*
X2843701Y901700D03*
X2795201Y876300D03*
X2843701Y876300D03*
X2795201Y850900D03*
X2843701Y850900D03*
X2795201Y825500D03*
X2843701Y825500D03*
X2795201Y800100D03*
X2843701Y800100D03*
X2795201Y774700D03*
X2843701Y774700D03*
X2795201Y749300D03*
X2843701Y749300D03*
X2795201Y723900D03*
X2843701Y723900D03*
X2795201Y698500D03*
X2843701Y698500D03*
X2795201Y673100D03*
X2843701Y673100D03*
X2795201Y647700D03*
X2843701Y647700D03*
X2795201Y622300D03*
X2843701Y622300D03*
X2795201Y596900D03*
X2843701Y596900D03*
X2795201Y571500D03*
X2843701Y571500D03*
X2795201Y546100D03*
X2843701Y546100D03*
X2795201Y520700D03*
X2843701Y520700D03*
X2795201Y495300D03*
X2843701Y495300D03*
X2795201Y469900D03*
X2843701Y469900D03*
X2795201Y444500D03*
X2843701Y444500D03*
X2795201Y419100D03*
X2843701Y419100D03*
X2795201Y393700D03*
X2843701Y393700D03*
D10*
X3218543Y1003300D03*
D11*
X3267043Y1003300D03*
X3218543Y977900D03*
X3267043Y977900D03*
X3218543Y952500D03*
X3267043Y952500D03*
X3218543Y927100D03*
X3267043Y927100D03*
X3218543Y901700D03*
X3267043Y901700D03*
X3218543Y876300D03*
X3267043Y876300D03*
X3218543Y850900D03*
X3267043Y850900D03*
X3218543Y825500D03*
X3267043Y825500D03*
X3218543Y800100D03*
X3267043Y800100D03*
X3218543Y774700D03*
X3267043Y774700D03*
X3218543Y749300D03*
X3267043Y749300D03*
X3218543Y723900D03*
X3267043Y723900D03*
X3218543Y698500D03*
X3267043Y698500D03*
X3218543Y673100D03*
X3267043Y673100D03*
X3218543Y647700D03*
X3267043Y647700D03*
X3218543Y622300D03*
X3267043Y622300D03*
X3218543Y596900D03*
X3267043Y596900D03*
X3218543Y571500D03*
X3267043Y571500D03*
X3218543Y546100D03*
X3267043Y546100D03*
X3218543Y520700D03*
X3267043Y520700D03*
X3218543Y495300D03*
X3267043Y495300D03*
X3218543Y469900D03*
X3267043Y469900D03*
X3218543Y444500D03*
X3267043Y444500D03*
X3218543Y419100D03*
X3267043Y419100D03*
X3218543Y393700D03*
X3267043Y393700D03*
D12*
X1219200Y711200D03*
X1219200Y866140D03*
X508000Y711200D03*
X508000Y866140D03*
X939800Y711200D03*
X939800Y866140D03*
D13*
X851129Y1065225D03*
X851129Y963625D03*
X952729Y1065225D03*
X952729Y963625D03*
D10*
X3641892Y1003300D03*
D11*
X3690392Y1003300D03*
X3641892Y977900D03*
X3690392Y977900D03*
X3641892Y952500D03*
X3690392Y952500D03*
X3641892Y927100D03*
X3690392Y927100D03*
X3641892Y901700D03*
X3690392Y901700D03*
X3641892Y876300D03*
X3690392Y876300D03*
X3641892Y850900D03*
X3690392Y850900D03*
X3641892Y825500D03*
X3690392Y825500D03*
X3641892Y800100D03*
X3690392Y800100D03*
X3641892Y774700D03*
X3690392Y774700D03*
X3641892Y749300D03*
X3690392Y749300D03*
X3641892Y723900D03*
X3690392Y723900D03*
X3641892Y698500D03*
X3690392Y698500D03*
X3641892Y673100D03*
X3690392Y673100D03*
X3641892Y647700D03*
X3690392Y647700D03*
X3641892Y622300D03*
X3690392Y622300D03*
X3641892Y596900D03*
X3690392Y596900D03*
X3641892Y571500D03*
X3690392Y571500D03*
X3641892Y546100D03*
X3690392Y546100D03*
X3641892Y520700D03*
X3690392Y520700D03*
X3641892Y495300D03*
X3690392Y495300D03*
X3641892Y469900D03*
X3690392Y469900D03*
X3641892Y444500D03*
X3690392Y444500D03*
X3641892Y419100D03*
X3690392Y419100D03*
X3641892Y393700D03*
X3690392Y393700D03*
D10*
X4065226Y1003300D03*
D11*
X4113726Y1003300D03*
X4065226Y977900D03*
X4113726Y977900D03*
X4065226Y952500D03*
X4113726Y952500D03*
X4065226Y927100D03*
X4113726Y927100D03*
X4065226Y901700D03*
X4113726Y901700D03*
X4065226Y876300D03*
X4113726Y876300D03*
X4065226Y850900D03*
X4113726Y850900D03*
X4065226Y825500D03*
X4113726Y825500D03*
X4065226Y800100D03*
X4113726Y800100D03*
X4065226Y774700D03*
X4113726Y774700D03*
X4065226Y749300D03*
X4113726Y749300D03*
X4065226Y723900D03*
X4113726Y723900D03*
X4065226Y698500D03*
X4113726Y698500D03*
X4065226Y673100D03*
X4113726Y673100D03*
X4065226Y647700D03*
X4113726Y647700D03*
X4065226Y622300D03*
X4113726Y622300D03*
X4065226Y596900D03*
X4113726Y596900D03*
X4065226Y571500D03*
X4113726Y571500D03*
X4065226Y546100D03*
X4113726Y546100D03*
X4065226Y520700D03*
X4113726Y520700D03*
X4065226Y495300D03*
X4113726Y495300D03*
X4065226Y469900D03*
X4113726Y469900D03*
X4065226Y444500D03*
X4113726Y444500D03*
X4065226Y419100D03*
X4113726Y419100D03*
X4065226Y393700D03*
X4113726Y393700D03*
D14*
X813054Y1168400D03*
X762254Y1168400D03*
X736854Y1168400D03*
X711454Y1168400D03*
X711454Y1219200D03*
X736854Y1219200D03*
X762254Y1219200D03*
X813054Y1219200D03*
X609854Y1168400D03*
X559054Y1168400D03*
X533654Y1168400D03*
X508254Y1168400D03*
X508254Y1219200D03*
X533654Y1219200D03*
X559054Y1219200D03*
X609854Y1219200D03*
D15*
X1676451Y848411D03*
D16*
X1644701Y880161D03*
X1708201Y880161D03*
X1644701Y816661D03*
X1708201Y816661D03*
D15*
X1682242Y727253D03*
D16*
X1650492Y759003D03*
X1713992Y759003D03*
X1650492Y695503D03*
X1713992Y695503D03*
D15*
X1835099Y853034D03*
D16*
X1803349Y884784D03*
X1866849Y884784D03*
X1803349Y821284D03*
X1866849Y821284D03*
D15*
X1828698Y728523D03*
D16*
X1796948Y760273D03*
X1860448Y760273D03*
X1796948Y696773D03*
X1860448Y696773D03*
D12*
X787400Y711200D03*
X787400Y866140D03*
X381000Y711200D03*
X381000Y866140D03*
X558800Y965200D03*
D17*
X558800Y558800D01*
D12*
X558800Y558800D03*
D17*
X101600Y457200D02*
X101600Y1193800D01*
X101600Y457200D02*
X152400Y457200D01*
X101600Y1193800D02*
X508254Y1193800D01*
X533654Y1168400D01*
X736854Y1168400D02*
X762000Y1143254D01*
X762000Y1143000D01*
X838200Y1143000D01*
X889000Y1092200D01*
X889000Y1041400D01*
D18*
X1682242Y727253D02*
X1690167Y719328D01*
X1690167Y635051D01*
D19*
X1690167Y635051D03*
X1715326Y609854D03*
D18*
X1783537Y853034D02*
X1835099Y853034D01*
X1783537Y853034D02*
X1762912Y832409D01*
X1762912Y660400D01*
X1715326Y612813D01*
X1715326Y609854D01*
X1674317Y846277D02*
X1676451Y848411D01*
X1674317Y846277D02*
X1633830Y846277D01*
X1619961Y832409D01*
D19*
X1619961Y647446D03*
D18*
X1619961Y832409D01*
D19*
X1733804Y583814D03*
D18*
X1786128Y635000D02*
X1786128Y663956D01*
X1829664Y727558D02*
X1828698Y728523D01*
X1786484Y663956D02*
X1786128Y663956D01*
X1829664Y684276D02*
X1829664Y727558D01*
X1829664Y684276D02*
X1806804Y684276D01*
X1786484Y663956D01*
X1734942Y583814D02*
X1733804Y583814D01*
X1734942Y583814D02*
X1786128Y635000D01*
D17*
X544830Y1182624D02*
X508254Y1219200D01*
X544830Y1182624D02*
X564946Y1182624D01*
X604570Y1143000D01*
X685800Y1143000D01*
X711200Y1117600D01*
X812800Y1117600D01*
X851129Y1079271D01*
X851129Y1065225D01*
D18*
X952729Y1065225D02*
X952729Y1092200D01*
X876529Y1168400D01*
X813054Y1168400D01*
X812800Y1168400D01*
X787400Y1193800D01*
X635254Y1193800D01*
X609854Y1168400D01*
M02*
