G04 EAGLE Gerber RS-274X export*
G75*
%MOMM*%
%FSLAX34Y34*%
%LPD*%
%IN*%
%IPPOS*%
%AMOC8*
5,1,8,0,0,1.08239X$1,22.5*%
G01*
%ADD10C,0.254000*%


D10*
X0Y124460D02*
X88900Y124460D01*
X88900Y35560D01*
X4102100Y35560D01*
X4102100Y124460D01*
X4191000Y124460D01*
X4191000Y1272540D01*
X4102100Y1272540D01*
X4102100Y1361440D01*
X88900Y1361440D01*
X88900Y1272540D01*
X0Y1272540D01*
X0Y124460D01*
X145288Y1333409D02*
X145210Y1332215D01*
X145053Y1331027D01*
X144820Y1329853D01*
X144510Y1328696D01*
X144125Y1327563D01*
X143667Y1326456D01*
X143137Y1325382D01*
X142539Y1324346D01*
X141873Y1323350D01*
X141144Y1322400D01*
X140355Y1321500D01*
X139508Y1320653D01*
X138608Y1319864D01*
X137658Y1319135D01*
X136662Y1318469D01*
X135626Y1317871D01*
X134552Y1317341D01*
X133445Y1316883D01*
X132312Y1316498D01*
X131155Y1316188D01*
X129981Y1315955D01*
X128794Y1315798D01*
X127599Y1315720D01*
X126401Y1315720D01*
X125207Y1315798D01*
X124019Y1315955D01*
X122845Y1316188D01*
X121688Y1316498D01*
X120555Y1316883D01*
X119448Y1317341D01*
X118374Y1317871D01*
X117338Y1318469D01*
X116342Y1319135D01*
X115392Y1319864D01*
X114492Y1320653D01*
X113645Y1321500D01*
X112856Y1322400D01*
X112127Y1323350D01*
X111461Y1324346D01*
X110863Y1325382D01*
X110333Y1326456D01*
X109875Y1327563D01*
X109490Y1328696D01*
X109180Y1329853D01*
X108947Y1331027D01*
X108790Y1332215D01*
X108712Y1333409D01*
X108712Y1334607D01*
X108790Y1335802D01*
X108947Y1336989D01*
X109180Y1338163D01*
X109490Y1339320D01*
X109875Y1340453D01*
X110333Y1341560D01*
X110863Y1342634D01*
X111461Y1343670D01*
X112127Y1344666D01*
X112856Y1345616D01*
X113645Y1346516D01*
X114492Y1347363D01*
X115392Y1348152D01*
X116342Y1348881D01*
X117338Y1349547D01*
X118374Y1350145D01*
X119448Y1350675D01*
X120555Y1351133D01*
X121688Y1351518D01*
X122845Y1351828D01*
X124019Y1352061D01*
X125207Y1352218D01*
X126401Y1352296D01*
X127599Y1352296D01*
X128794Y1352218D01*
X129981Y1352061D01*
X131155Y1351828D01*
X132312Y1351518D01*
X133445Y1351133D01*
X134552Y1350675D01*
X135626Y1350145D01*
X136662Y1349547D01*
X137658Y1348881D01*
X138608Y1348152D01*
X139508Y1347363D01*
X140355Y1346516D01*
X141144Y1345616D01*
X141873Y1344666D01*
X142539Y1343670D01*
X143137Y1342634D01*
X143667Y1341560D01*
X144125Y1340453D01*
X144510Y1339320D01*
X144820Y1338163D01*
X145053Y1336989D01*
X145210Y1335802D01*
X145288Y1334607D01*
X145288Y1333409D01*
X1923288Y1333409D02*
X1923210Y1332215D01*
X1923053Y1331027D01*
X1922820Y1329853D01*
X1922510Y1328696D01*
X1922125Y1327563D01*
X1921667Y1326456D01*
X1921137Y1325382D01*
X1920539Y1324346D01*
X1919873Y1323350D01*
X1919144Y1322400D01*
X1918355Y1321500D01*
X1917508Y1320653D01*
X1916608Y1319864D01*
X1915658Y1319135D01*
X1914662Y1318469D01*
X1913626Y1317871D01*
X1912552Y1317341D01*
X1911445Y1316883D01*
X1910312Y1316498D01*
X1909155Y1316188D01*
X1907981Y1315955D01*
X1906794Y1315798D01*
X1905599Y1315720D01*
X1904401Y1315720D01*
X1903207Y1315798D01*
X1902019Y1315955D01*
X1900845Y1316188D01*
X1899688Y1316498D01*
X1898555Y1316883D01*
X1897448Y1317341D01*
X1896374Y1317871D01*
X1895338Y1318469D01*
X1894342Y1319135D01*
X1893392Y1319864D01*
X1892492Y1320653D01*
X1891645Y1321500D01*
X1890856Y1322400D01*
X1890127Y1323350D01*
X1889461Y1324346D01*
X1888863Y1325382D01*
X1888333Y1326456D01*
X1887875Y1327563D01*
X1887490Y1328696D01*
X1887180Y1329853D01*
X1886947Y1331027D01*
X1886790Y1332215D01*
X1886712Y1333409D01*
X1886712Y1334607D01*
X1886790Y1335802D01*
X1886947Y1336989D01*
X1887180Y1338163D01*
X1887490Y1339320D01*
X1887875Y1340453D01*
X1888333Y1341560D01*
X1888863Y1342634D01*
X1889461Y1343670D01*
X1890127Y1344666D01*
X1890856Y1345616D01*
X1891645Y1346516D01*
X1892492Y1347363D01*
X1893392Y1348152D01*
X1894342Y1348881D01*
X1895338Y1349547D01*
X1896374Y1350145D01*
X1897448Y1350675D01*
X1898555Y1351133D01*
X1899688Y1351518D01*
X1900845Y1351828D01*
X1902019Y1352061D01*
X1903207Y1352218D01*
X1904401Y1352296D01*
X1905599Y1352296D01*
X1906794Y1352218D01*
X1907981Y1352061D01*
X1909155Y1351828D01*
X1910312Y1351518D01*
X1911445Y1351133D01*
X1912552Y1350675D01*
X1913626Y1350145D01*
X1914662Y1349547D01*
X1915658Y1348881D01*
X1916608Y1348152D01*
X1917508Y1347363D01*
X1918355Y1346516D01*
X1919144Y1345616D01*
X1919873Y1344666D01*
X1920539Y1343670D01*
X1921137Y1342634D01*
X1921667Y1341560D01*
X1922125Y1340453D01*
X1922510Y1339320D01*
X1922820Y1338163D01*
X1923053Y1336989D01*
X1923210Y1335802D01*
X1923288Y1334607D01*
X1923288Y1333409D01*
X1034288Y1333409D02*
X1034210Y1332215D01*
X1034053Y1331027D01*
X1033820Y1329853D01*
X1033510Y1328696D01*
X1033125Y1327563D01*
X1032667Y1326456D01*
X1032137Y1325382D01*
X1031539Y1324346D01*
X1030873Y1323350D01*
X1030144Y1322400D01*
X1029355Y1321500D01*
X1028508Y1320653D01*
X1027608Y1319864D01*
X1026658Y1319135D01*
X1025662Y1318469D01*
X1024626Y1317871D01*
X1023552Y1317341D01*
X1022445Y1316883D01*
X1021312Y1316498D01*
X1020155Y1316188D01*
X1018981Y1315955D01*
X1017794Y1315798D01*
X1016599Y1315720D01*
X1015401Y1315720D01*
X1014207Y1315798D01*
X1013019Y1315955D01*
X1011845Y1316188D01*
X1010688Y1316498D01*
X1009555Y1316883D01*
X1008448Y1317341D01*
X1007374Y1317871D01*
X1006338Y1318469D01*
X1005342Y1319135D01*
X1004392Y1319864D01*
X1003492Y1320653D01*
X1002645Y1321500D01*
X1001856Y1322400D01*
X1001127Y1323350D01*
X1000461Y1324346D01*
X999863Y1325382D01*
X999333Y1326456D01*
X998875Y1327563D01*
X998490Y1328696D01*
X998180Y1329853D01*
X997947Y1331027D01*
X997790Y1332215D01*
X997712Y1333409D01*
X997712Y1334607D01*
X997790Y1335802D01*
X997947Y1336989D01*
X998180Y1338163D01*
X998490Y1339320D01*
X998875Y1340453D01*
X999333Y1341560D01*
X999863Y1342634D01*
X1000461Y1343670D01*
X1001127Y1344666D01*
X1001856Y1345616D01*
X1002645Y1346516D01*
X1003492Y1347363D01*
X1004392Y1348152D01*
X1005342Y1348881D01*
X1006338Y1349547D01*
X1007374Y1350145D01*
X1008448Y1350675D01*
X1009555Y1351133D01*
X1010688Y1351518D01*
X1011845Y1351828D01*
X1013019Y1352061D01*
X1014207Y1352218D01*
X1015401Y1352296D01*
X1016599Y1352296D01*
X1017794Y1352218D01*
X1018981Y1352061D01*
X1020155Y1351828D01*
X1021312Y1351518D01*
X1022445Y1351133D01*
X1023552Y1350675D01*
X1024626Y1350145D01*
X1025662Y1349547D01*
X1026658Y1348881D01*
X1027608Y1348152D01*
X1028508Y1347363D01*
X1029355Y1346516D01*
X1030144Y1345616D01*
X1030873Y1344666D01*
X1031539Y1343670D01*
X1032137Y1342634D01*
X1032667Y1341560D01*
X1033125Y1340453D01*
X1033510Y1339320D01*
X1033820Y1338163D01*
X1034053Y1336989D01*
X1034210Y1335802D01*
X1034288Y1334607D01*
X1034288Y1333409D01*
X2812288Y1333409D02*
X2812210Y1332215D01*
X2812053Y1331027D01*
X2811820Y1329853D01*
X2811510Y1328696D01*
X2811125Y1327563D01*
X2810667Y1326456D01*
X2810137Y1325382D01*
X2809539Y1324346D01*
X2808873Y1323350D01*
X2808144Y1322400D01*
X2807355Y1321500D01*
X2806508Y1320653D01*
X2805608Y1319864D01*
X2804658Y1319135D01*
X2803662Y1318469D01*
X2802626Y1317871D01*
X2801552Y1317341D01*
X2800445Y1316883D01*
X2799312Y1316498D01*
X2798155Y1316188D01*
X2796981Y1315955D01*
X2795794Y1315798D01*
X2794599Y1315720D01*
X2793401Y1315720D01*
X2792207Y1315798D01*
X2791019Y1315955D01*
X2789845Y1316188D01*
X2788688Y1316498D01*
X2787555Y1316883D01*
X2786448Y1317341D01*
X2785374Y1317871D01*
X2784338Y1318469D01*
X2783342Y1319135D01*
X2782392Y1319864D01*
X2781492Y1320653D01*
X2780645Y1321500D01*
X2779856Y1322400D01*
X2779127Y1323350D01*
X2778461Y1324346D01*
X2777863Y1325382D01*
X2777333Y1326456D01*
X2776875Y1327563D01*
X2776490Y1328696D01*
X2776180Y1329853D01*
X2775947Y1331027D01*
X2775790Y1332215D01*
X2775712Y1333409D01*
X2775712Y1334607D01*
X2775790Y1335802D01*
X2775947Y1336989D01*
X2776180Y1338163D01*
X2776490Y1339320D01*
X2776875Y1340453D01*
X2777333Y1341560D01*
X2777863Y1342634D01*
X2778461Y1343670D01*
X2779127Y1344666D01*
X2779856Y1345616D01*
X2780645Y1346516D01*
X2781492Y1347363D01*
X2782392Y1348152D01*
X2783342Y1348881D01*
X2784338Y1349547D01*
X2785374Y1350145D01*
X2786448Y1350675D01*
X2787555Y1351133D01*
X2788688Y1351518D01*
X2789845Y1351828D01*
X2791019Y1352061D01*
X2792207Y1352218D01*
X2793401Y1352296D01*
X2794599Y1352296D01*
X2795794Y1352218D01*
X2796981Y1352061D01*
X2798155Y1351828D01*
X2799312Y1351518D01*
X2800445Y1351133D01*
X2801552Y1350675D01*
X2802626Y1350145D01*
X2803662Y1349547D01*
X2804658Y1348881D01*
X2805608Y1348152D01*
X2806508Y1347363D01*
X2807355Y1346516D01*
X2808144Y1345616D01*
X2808873Y1344666D01*
X2809539Y1343670D01*
X2810137Y1342634D01*
X2810667Y1341560D01*
X2811125Y1340453D01*
X2811510Y1339320D01*
X2811820Y1338163D01*
X2812053Y1336989D01*
X2812210Y1335802D01*
X2812288Y1334607D01*
X2812288Y1333409D01*
X1034288Y62393D02*
X1034210Y61199D01*
X1034053Y60011D01*
X1033820Y58837D01*
X1033510Y57680D01*
X1033125Y56547D01*
X1032667Y55440D01*
X1032137Y54366D01*
X1031539Y53330D01*
X1030873Y52334D01*
X1030144Y51384D01*
X1029355Y50484D01*
X1028508Y49637D01*
X1027608Y48848D01*
X1026658Y48119D01*
X1025662Y47453D01*
X1024626Y46855D01*
X1023552Y46325D01*
X1022445Y45867D01*
X1021312Y45482D01*
X1020155Y45172D01*
X1018981Y44939D01*
X1017794Y44782D01*
X1016599Y44704D01*
X1015401Y44704D01*
X1014207Y44782D01*
X1013019Y44939D01*
X1011845Y45172D01*
X1010688Y45482D01*
X1009555Y45867D01*
X1008448Y46325D01*
X1007374Y46855D01*
X1006338Y47453D01*
X1005342Y48119D01*
X1004392Y48848D01*
X1003492Y49637D01*
X1002645Y50484D01*
X1001856Y51384D01*
X1001127Y52334D01*
X1000461Y53330D01*
X999863Y54366D01*
X999333Y55440D01*
X998875Y56547D01*
X998490Y57680D01*
X998180Y58837D01*
X997947Y60011D01*
X997790Y61199D01*
X997712Y62393D01*
X997712Y63591D01*
X997790Y64786D01*
X997947Y65973D01*
X998180Y67147D01*
X998490Y68304D01*
X998875Y69437D01*
X999333Y70544D01*
X999863Y71618D01*
X1000461Y72654D01*
X1001127Y73650D01*
X1001856Y74600D01*
X1002645Y75500D01*
X1003492Y76347D01*
X1004392Y77136D01*
X1005342Y77865D01*
X1006338Y78531D01*
X1007374Y79129D01*
X1008448Y79659D01*
X1009555Y80117D01*
X1010688Y80502D01*
X1011845Y80812D01*
X1013019Y81045D01*
X1014207Y81202D01*
X1015401Y81280D01*
X1016599Y81280D01*
X1017794Y81202D01*
X1018981Y81045D01*
X1020155Y80812D01*
X1021312Y80502D01*
X1022445Y80117D01*
X1023552Y79659D01*
X1024626Y79129D01*
X1025662Y78531D01*
X1026658Y77865D01*
X1027608Y77136D01*
X1028508Y76347D01*
X1029355Y75500D01*
X1030144Y74600D01*
X1030873Y73650D01*
X1031539Y72654D01*
X1032137Y71618D01*
X1032667Y70544D01*
X1033125Y69437D01*
X1033510Y68304D01*
X1033820Y67147D01*
X1034053Y65973D01*
X1034210Y64786D01*
X1034288Y63591D01*
X1034288Y62393D01*
X3701288Y1333409D02*
X3701210Y1332215D01*
X3701053Y1331027D01*
X3700820Y1329853D01*
X3700510Y1328696D01*
X3700125Y1327563D01*
X3699667Y1326456D01*
X3699137Y1325382D01*
X3698539Y1324346D01*
X3697873Y1323350D01*
X3697144Y1322400D01*
X3696355Y1321500D01*
X3695508Y1320653D01*
X3694608Y1319864D01*
X3693658Y1319135D01*
X3692662Y1318469D01*
X3691626Y1317871D01*
X3690552Y1317341D01*
X3689445Y1316883D01*
X3688312Y1316498D01*
X3687155Y1316188D01*
X3685981Y1315955D01*
X3684794Y1315798D01*
X3683599Y1315720D01*
X3682401Y1315720D01*
X3681207Y1315798D01*
X3680019Y1315955D01*
X3678845Y1316188D01*
X3677688Y1316498D01*
X3676555Y1316883D01*
X3675448Y1317341D01*
X3674374Y1317871D01*
X3673338Y1318469D01*
X3672342Y1319135D01*
X3671392Y1319864D01*
X3670492Y1320653D01*
X3669645Y1321500D01*
X3668856Y1322400D01*
X3668127Y1323350D01*
X3667461Y1324346D01*
X3666863Y1325382D01*
X3666333Y1326456D01*
X3665875Y1327563D01*
X3665490Y1328696D01*
X3665180Y1329853D01*
X3664947Y1331027D01*
X3664790Y1332215D01*
X3664712Y1333409D01*
X3664712Y1334607D01*
X3664790Y1335802D01*
X3664947Y1336989D01*
X3665180Y1338163D01*
X3665490Y1339320D01*
X3665875Y1340453D01*
X3666333Y1341560D01*
X3666863Y1342634D01*
X3667461Y1343670D01*
X3668127Y1344666D01*
X3668856Y1345616D01*
X3669645Y1346516D01*
X3670492Y1347363D01*
X3671392Y1348152D01*
X3672342Y1348881D01*
X3673338Y1349547D01*
X3674374Y1350145D01*
X3675448Y1350675D01*
X3676555Y1351133D01*
X3677688Y1351518D01*
X3678845Y1351828D01*
X3680019Y1352061D01*
X3681207Y1352218D01*
X3682401Y1352296D01*
X3683599Y1352296D01*
X3684794Y1352218D01*
X3685981Y1352061D01*
X3687155Y1351828D01*
X3688312Y1351518D01*
X3689445Y1351133D01*
X3690552Y1350675D01*
X3691626Y1350145D01*
X3692662Y1349547D01*
X3693658Y1348881D01*
X3694608Y1348152D01*
X3695508Y1347363D01*
X3696355Y1346516D01*
X3697144Y1345616D01*
X3697873Y1344666D01*
X3698539Y1343670D01*
X3699137Y1342634D01*
X3699667Y1341560D01*
X3700125Y1340453D01*
X3700510Y1339320D01*
X3700820Y1338163D01*
X3701053Y1336989D01*
X3701210Y1335802D01*
X3701288Y1334607D01*
X3701288Y1333409D01*
X145288Y62393D02*
X145210Y61199D01*
X145053Y60011D01*
X144820Y58837D01*
X144510Y57680D01*
X144125Y56547D01*
X143667Y55440D01*
X143137Y54366D01*
X142539Y53330D01*
X141873Y52334D01*
X141144Y51384D01*
X140355Y50484D01*
X139508Y49637D01*
X138608Y48848D01*
X137658Y48119D01*
X136662Y47453D01*
X135626Y46855D01*
X134552Y46325D01*
X133445Y45867D01*
X132312Y45482D01*
X131155Y45172D01*
X129981Y44939D01*
X128794Y44782D01*
X127599Y44704D01*
X126401Y44704D01*
X125207Y44782D01*
X124019Y44939D01*
X122845Y45172D01*
X121688Y45482D01*
X120555Y45867D01*
X119448Y46325D01*
X118374Y46855D01*
X117338Y47453D01*
X116342Y48119D01*
X115392Y48848D01*
X114492Y49637D01*
X113645Y50484D01*
X112856Y51384D01*
X112127Y52334D01*
X111461Y53330D01*
X110863Y54366D01*
X110333Y55440D01*
X109875Y56547D01*
X109490Y57680D01*
X109180Y58837D01*
X108947Y60011D01*
X108790Y61199D01*
X108712Y62393D01*
X108712Y63591D01*
X108790Y64786D01*
X108947Y65973D01*
X109180Y67147D01*
X109490Y68304D01*
X109875Y69437D01*
X110333Y70544D01*
X110863Y71618D01*
X111461Y72654D01*
X112127Y73650D01*
X112856Y74600D01*
X113645Y75500D01*
X114492Y76347D01*
X115392Y77136D01*
X116342Y77865D01*
X117338Y78531D01*
X118374Y79129D01*
X119448Y79659D01*
X120555Y80117D01*
X121688Y80502D01*
X122845Y80812D01*
X124019Y81045D01*
X125207Y81202D01*
X126401Y81280D01*
X127599Y81280D01*
X128794Y81202D01*
X129981Y81045D01*
X131155Y80812D01*
X132312Y80502D01*
X133445Y80117D01*
X134552Y79659D01*
X135626Y79129D01*
X136662Y78531D01*
X137658Y77865D01*
X138608Y77136D01*
X139508Y76347D01*
X140355Y75500D01*
X141144Y74600D01*
X141873Y73650D01*
X142539Y72654D01*
X143137Y71618D01*
X143667Y70544D01*
X144125Y69437D01*
X144510Y68304D01*
X144820Y67147D01*
X145053Y65973D01*
X145210Y64786D01*
X145288Y63591D01*
X145288Y62393D01*
X1923288Y62393D02*
X1923210Y61199D01*
X1923053Y60011D01*
X1922820Y58837D01*
X1922510Y57680D01*
X1922125Y56547D01*
X1921667Y55440D01*
X1921137Y54366D01*
X1920539Y53330D01*
X1919873Y52334D01*
X1919144Y51384D01*
X1918355Y50484D01*
X1917508Y49637D01*
X1916608Y48848D01*
X1915658Y48119D01*
X1914662Y47453D01*
X1913626Y46855D01*
X1912552Y46325D01*
X1911445Y45867D01*
X1910312Y45482D01*
X1909155Y45172D01*
X1907981Y44939D01*
X1906794Y44782D01*
X1905599Y44704D01*
X1904401Y44704D01*
X1903207Y44782D01*
X1902019Y44939D01*
X1900845Y45172D01*
X1899688Y45482D01*
X1898555Y45867D01*
X1897448Y46325D01*
X1896374Y46855D01*
X1895338Y47453D01*
X1894342Y48119D01*
X1893392Y48848D01*
X1892492Y49637D01*
X1891645Y50484D01*
X1890856Y51384D01*
X1890127Y52334D01*
X1889461Y53330D01*
X1888863Y54366D01*
X1888333Y55440D01*
X1887875Y56547D01*
X1887490Y57680D01*
X1887180Y58837D01*
X1886947Y60011D01*
X1886790Y61199D01*
X1886712Y62393D01*
X1886712Y63591D01*
X1886790Y64786D01*
X1886947Y65973D01*
X1887180Y67147D01*
X1887490Y68304D01*
X1887875Y69437D01*
X1888333Y70544D01*
X1888863Y71618D01*
X1889461Y72654D01*
X1890127Y73650D01*
X1890856Y74600D01*
X1891645Y75500D01*
X1892492Y76347D01*
X1893392Y77136D01*
X1894342Y77865D01*
X1895338Y78531D01*
X1896374Y79129D01*
X1897448Y79659D01*
X1898555Y80117D01*
X1899688Y80502D01*
X1900845Y80812D01*
X1902019Y81045D01*
X1903207Y81202D01*
X1904401Y81280D01*
X1905599Y81280D01*
X1906794Y81202D01*
X1907981Y81045D01*
X1909155Y80812D01*
X1910312Y80502D01*
X1911445Y80117D01*
X1912552Y79659D01*
X1913626Y79129D01*
X1914662Y78531D01*
X1915658Y77865D01*
X1916608Y77136D01*
X1917508Y76347D01*
X1918355Y75500D01*
X1919144Y74600D01*
X1919873Y73650D01*
X1920539Y72654D01*
X1921137Y71618D01*
X1921667Y70544D01*
X1922125Y69437D01*
X1922510Y68304D01*
X1922820Y67147D01*
X1923053Y65973D01*
X1923210Y64786D01*
X1923288Y63591D01*
X1923288Y62393D01*
X2812288Y62393D02*
X2812210Y61199D01*
X2812053Y60011D01*
X2811820Y58837D01*
X2811510Y57680D01*
X2811125Y56547D01*
X2810667Y55440D01*
X2810137Y54366D01*
X2809539Y53330D01*
X2808873Y52334D01*
X2808144Y51384D01*
X2807355Y50484D01*
X2806508Y49637D01*
X2805608Y48848D01*
X2804658Y48119D01*
X2803662Y47453D01*
X2802626Y46855D01*
X2801552Y46325D01*
X2800445Y45867D01*
X2799312Y45482D01*
X2798155Y45172D01*
X2796981Y44939D01*
X2795794Y44782D01*
X2794599Y44704D01*
X2793401Y44704D01*
X2792207Y44782D01*
X2791019Y44939D01*
X2789845Y45172D01*
X2788688Y45482D01*
X2787555Y45867D01*
X2786448Y46325D01*
X2785374Y46855D01*
X2784338Y47453D01*
X2783342Y48119D01*
X2782392Y48848D01*
X2781492Y49637D01*
X2780645Y50484D01*
X2779856Y51384D01*
X2779127Y52334D01*
X2778461Y53330D01*
X2777863Y54366D01*
X2777333Y55440D01*
X2776875Y56547D01*
X2776490Y57680D01*
X2776180Y58837D01*
X2775947Y60011D01*
X2775790Y61199D01*
X2775712Y62393D01*
X2775712Y63591D01*
X2775790Y64786D01*
X2775947Y65973D01*
X2776180Y67147D01*
X2776490Y68304D01*
X2776875Y69437D01*
X2777333Y70544D01*
X2777863Y71618D01*
X2778461Y72654D01*
X2779127Y73650D01*
X2779856Y74600D01*
X2780645Y75500D01*
X2781492Y76347D01*
X2782392Y77136D01*
X2783342Y77865D01*
X2784338Y78531D01*
X2785374Y79129D01*
X2786448Y79659D01*
X2787555Y80117D01*
X2788688Y80502D01*
X2789845Y80812D01*
X2791019Y81045D01*
X2792207Y81202D01*
X2793401Y81280D01*
X2794599Y81280D01*
X2795794Y81202D01*
X2796981Y81045D01*
X2798155Y80812D01*
X2799312Y80502D01*
X2800445Y80117D01*
X2801552Y79659D01*
X2802626Y79129D01*
X2803662Y78531D01*
X2804658Y77865D01*
X2805608Y77136D01*
X2806508Y76347D01*
X2807355Y75500D01*
X2808144Y74600D01*
X2808873Y73650D01*
X2809539Y72654D01*
X2810137Y71618D01*
X2810667Y70544D01*
X2811125Y69437D01*
X2811510Y68304D01*
X2811820Y67147D01*
X2812053Y65973D01*
X2812210Y64786D01*
X2812288Y63591D01*
X2812288Y62393D01*
X3701288Y62393D02*
X3701210Y61199D01*
X3701053Y60011D01*
X3700820Y58837D01*
X3700510Y57680D01*
X3700125Y56547D01*
X3699667Y55440D01*
X3699137Y54366D01*
X3698539Y53330D01*
X3697873Y52334D01*
X3697144Y51384D01*
X3696355Y50484D01*
X3695508Y49637D01*
X3694608Y48848D01*
X3693658Y48119D01*
X3692662Y47453D01*
X3691626Y46855D01*
X3690552Y46325D01*
X3689445Y45867D01*
X3688312Y45482D01*
X3687155Y45172D01*
X3685981Y44939D01*
X3684794Y44782D01*
X3683599Y44704D01*
X3682401Y44704D01*
X3681207Y44782D01*
X3680019Y44939D01*
X3678845Y45172D01*
X3677688Y45482D01*
X3676555Y45867D01*
X3675448Y46325D01*
X3674374Y46855D01*
X3673338Y47453D01*
X3672342Y48119D01*
X3671392Y48848D01*
X3670492Y49637D01*
X3669645Y50484D01*
X3668856Y51384D01*
X3668127Y52334D01*
X3667461Y53330D01*
X3666863Y54366D01*
X3666333Y55440D01*
X3665875Y56547D01*
X3665490Y57680D01*
X3665180Y58837D01*
X3664947Y60011D01*
X3664790Y61199D01*
X3664712Y62393D01*
X3664712Y63591D01*
X3664790Y64786D01*
X3664947Y65973D01*
X3665180Y67147D01*
X3665490Y68304D01*
X3665875Y69437D01*
X3666333Y70544D01*
X3666863Y71618D01*
X3667461Y72654D01*
X3668127Y73650D01*
X3668856Y74600D01*
X3669645Y75500D01*
X3670492Y76347D01*
X3671392Y77136D01*
X3672342Y77865D01*
X3673338Y78531D01*
X3674374Y79129D01*
X3675448Y79659D01*
X3676555Y80117D01*
X3677688Y80502D01*
X3678845Y80812D01*
X3680019Y81045D01*
X3681207Y81202D01*
X3682401Y81280D01*
X3683599Y81280D01*
X3684794Y81202D01*
X3685981Y81045D01*
X3687155Y80812D01*
X3688312Y80502D01*
X3689445Y80117D01*
X3690552Y79659D01*
X3691626Y79129D01*
X3692662Y78531D01*
X3693658Y77865D01*
X3694608Y77136D01*
X3695508Y76347D01*
X3696355Y75500D01*
X3697144Y74600D01*
X3697873Y73650D01*
X3698539Y72654D01*
X3699137Y71618D01*
X3699667Y70544D01*
X3700125Y69437D01*
X3700510Y68304D01*
X3700820Y67147D01*
X3701053Y65973D01*
X3701210Y64786D01*
X3701288Y63591D01*
X3701288Y62393D01*
X228060Y1072500D02*
X226982Y1072571D01*
X225911Y1072712D01*
X224851Y1072922D01*
X223808Y1073202D01*
X222785Y1073549D01*
X221787Y1073963D01*
X220818Y1074441D01*
X219882Y1074981D01*
X218984Y1075581D01*
X218127Y1076239D01*
X217315Y1076951D01*
X216551Y1077715D01*
X215839Y1078527D01*
X215181Y1079384D01*
X214581Y1080282D01*
X214041Y1081218D01*
X213563Y1082187D01*
X213149Y1083185D01*
X212802Y1084208D01*
X212522Y1085251D01*
X212312Y1086311D01*
X212171Y1087382D01*
X212100Y1088460D01*
X212100Y1089540D01*
X212171Y1090618D01*
X212312Y1091689D01*
X212522Y1092749D01*
X212802Y1093792D01*
X213149Y1094815D01*
X213563Y1095813D01*
X214041Y1096782D01*
X214581Y1097718D01*
X215181Y1098616D01*
X215839Y1099473D01*
X216551Y1100285D01*
X217315Y1101049D01*
X218127Y1101762D01*
X218984Y1102419D01*
X219882Y1103019D01*
X220818Y1103560D01*
X221787Y1104037D01*
X222785Y1104451D01*
X223808Y1104798D01*
X224851Y1105078D01*
X225911Y1105288D01*
X226982Y1105429D01*
X228060Y1105500D01*
X229140Y1105500D01*
X230218Y1105429D01*
X231289Y1105288D01*
X232349Y1105078D01*
X233392Y1104798D01*
X234415Y1104451D01*
X235413Y1104037D01*
X236382Y1103560D01*
X237318Y1103019D01*
X238216Y1102419D01*
X239073Y1101762D01*
X239885Y1101049D01*
X240649Y1100285D01*
X241362Y1099473D01*
X242019Y1098616D01*
X242619Y1097718D01*
X243160Y1096782D01*
X243637Y1095813D01*
X244051Y1094815D01*
X244398Y1093792D01*
X244678Y1092749D01*
X244888Y1091689D01*
X245029Y1090618D01*
X245100Y1089540D01*
X245100Y1088460D01*
X245029Y1087382D01*
X244888Y1086311D01*
X244678Y1085251D01*
X244398Y1084208D01*
X244051Y1083185D01*
X243637Y1082187D01*
X243160Y1081218D01*
X242619Y1080282D01*
X242019Y1079384D01*
X241362Y1078527D01*
X240649Y1077715D01*
X239885Y1076951D01*
X239073Y1076239D01*
X238216Y1075581D01*
X237318Y1074981D01*
X236382Y1074441D01*
X235413Y1073963D01*
X234415Y1073549D01*
X233392Y1073202D01*
X232349Y1072922D01*
X231289Y1072712D01*
X230218Y1072571D01*
X229140Y1072500D01*
X228060Y1072500D01*
X228060Y291500D02*
X226982Y291571D01*
X225911Y291712D01*
X224851Y291922D01*
X223808Y292202D01*
X222785Y292549D01*
X221787Y292963D01*
X220818Y293441D01*
X219882Y293981D01*
X218984Y294581D01*
X218127Y295239D01*
X217315Y295951D01*
X216551Y296715D01*
X215839Y297527D01*
X215181Y298384D01*
X214581Y299282D01*
X214041Y300218D01*
X213563Y301187D01*
X213149Y302185D01*
X212802Y303208D01*
X212522Y304251D01*
X212312Y305311D01*
X212171Y306382D01*
X212100Y307460D01*
X212100Y308540D01*
X212171Y309618D01*
X212312Y310689D01*
X212522Y311749D01*
X212802Y312792D01*
X213149Y313815D01*
X213563Y314813D01*
X214041Y315782D01*
X214581Y316718D01*
X215181Y317616D01*
X215839Y318473D01*
X216551Y319285D01*
X217315Y320049D01*
X218127Y320762D01*
X218984Y321419D01*
X219882Y322019D01*
X220818Y322560D01*
X221787Y323037D01*
X222785Y323451D01*
X223808Y323798D01*
X224851Y324078D01*
X225911Y324288D01*
X226982Y324429D01*
X228060Y324500D01*
X229140Y324500D01*
X230218Y324429D01*
X231289Y324288D01*
X232349Y324078D01*
X233392Y323798D01*
X234415Y323451D01*
X235413Y323037D01*
X236382Y322560D01*
X237318Y322019D01*
X238216Y321419D01*
X239073Y320762D01*
X239885Y320049D01*
X240649Y319285D01*
X241362Y318473D01*
X242019Y317616D01*
X242619Y316718D01*
X243160Y315782D01*
X243637Y314813D01*
X244051Y313815D01*
X244398Y312792D01*
X244678Y311749D01*
X244888Y310689D01*
X245029Y309618D01*
X245100Y308540D01*
X245100Y307460D01*
X245029Y306382D01*
X244888Y305311D01*
X244678Y304251D01*
X244398Y303208D01*
X244051Y302185D01*
X243637Y301187D01*
X243160Y300218D01*
X242619Y299282D01*
X242019Y298384D01*
X241362Y297527D01*
X240649Y296715D01*
X239885Y295951D01*
X239073Y295239D01*
X238216Y294581D01*
X237318Y293981D01*
X236382Y293441D01*
X235413Y292963D01*
X234415Y292549D01*
X233392Y292202D01*
X232349Y291922D01*
X231289Y291712D01*
X230218Y291571D01*
X229140Y291500D01*
X228060Y291500D01*
X651402Y1072500D02*
X650324Y1072571D01*
X649253Y1072712D01*
X648193Y1072922D01*
X647150Y1073202D01*
X646127Y1073549D01*
X645129Y1073963D01*
X644160Y1074441D01*
X643224Y1074981D01*
X642326Y1075581D01*
X641469Y1076239D01*
X640657Y1076951D01*
X639893Y1077715D01*
X639180Y1078527D01*
X638523Y1079384D01*
X637922Y1080282D01*
X637382Y1081218D01*
X636905Y1082187D01*
X636491Y1083185D01*
X636144Y1084208D01*
X635864Y1085251D01*
X635653Y1086311D01*
X635512Y1087382D01*
X635442Y1088460D01*
X635442Y1089540D01*
X635512Y1090618D01*
X635653Y1091689D01*
X635864Y1092749D01*
X636144Y1093792D01*
X636491Y1094815D01*
X636905Y1095813D01*
X637382Y1096782D01*
X637922Y1097718D01*
X638523Y1098616D01*
X639180Y1099473D01*
X639893Y1100285D01*
X640657Y1101049D01*
X641469Y1101762D01*
X642326Y1102419D01*
X643224Y1103019D01*
X644160Y1103560D01*
X645129Y1104037D01*
X646127Y1104451D01*
X647150Y1104798D01*
X648193Y1105078D01*
X649253Y1105288D01*
X650324Y1105429D01*
X651402Y1105500D01*
X652482Y1105500D01*
X653560Y1105429D01*
X654631Y1105288D01*
X655691Y1105078D01*
X656734Y1104798D01*
X657757Y1104451D01*
X658755Y1104037D01*
X659724Y1103560D01*
X660660Y1103019D01*
X661558Y1102419D01*
X662415Y1101762D01*
X663227Y1101049D01*
X663991Y1100285D01*
X664703Y1099473D01*
X665361Y1098616D01*
X665961Y1097718D01*
X666501Y1096782D01*
X666979Y1095813D01*
X667393Y1094815D01*
X667740Y1093792D01*
X668019Y1092749D01*
X668230Y1091689D01*
X668371Y1090618D01*
X668442Y1089540D01*
X668442Y1088460D01*
X668371Y1087382D01*
X668230Y1086311D01*
X668019Y1085251D01*
X667740Y1084208D01*
X667393Y1083185D01*
X666979Y1082187D01*
X666501Y1081218D01*
X665961Y1080282D01*
X665361Y1079384D01*
X664703Y1078527D01*
X663991Y1077715D01*
X663227Y1076951D01*
X662415Y1076239D01*
X661558Y1075581D01*
X660660Y1074981D01*
X659724Y1074441D01*
X658755Y1073963D01*
X657757Y1073549D01*
X656734Y1073202D01*
X655691Y1072922D01*
X654631Y1072712D01*
X653560Y1072571D01*
X652482Y1072500D01*
X651402Y1072500D01*
X651402Y291500D02*
X650324Y291571D01*
X649253Y291712D01*
X648193Y291922D01*
X647150Y292202D01*
X646127Y292549D01*
X645129Y292963D01*
X644160Y293441D01*
X643224Y293981D01*
X642326Y294581D01*
X641469Y295239D01*
X640657Y295951D01*
X639893Y296715D01*
X639180Y297527D01*
X638523Y298384D01*
X637922Y299282D01*
X637382Y300218D01*
X636905Y301187D01*
X636491Y302185D01*
X636144Y303208D01*
X635864Y304251D01*
X635653Y305311D01*
X635512Y306382D01*
X635442Y307460D01*
X635442Y308540D01*
X635512Y309618D01*
X635653Y310689D01*
X635864Y311749D01*
X636144Y312792D01*
X636491Y313815D01*
X636905Y314813D01*
X637382Y315782D01*
X637922Y316718D01*
X638523Y317616D01*
X639180Y318473D01*
X639893Y319285D01*
X640657Y320049D01*
X641469Y320762D01*
X642326Y321419D01*
X643224Y322019D01*
X644160Y322560D01*
X645129Y323037D01*
X646127Y323451D01*
X647150Y323798D01*
X648193Y324078D01*
X649253Y324288D01*
X650324Y324429D01*
X651402Y324500D01*
X652482Y324500D01*
X653560Y324429D01*
X654631Y324288D01*
X655691Y324078D01*
X656734Y323798D01*
X657757Y323451D01*
X658755Y323037D01*
X659724Y322560D01*
X660660Y322019D01*
X661558Y321419D01*
X662415Y320762D01*
X663227Y320049D01*
X663991Y319285D01*
X664703Y318473D01*
X665361Y317616D01*
X665961Y316718D01*
X666501Y315782D01*
X666979Y314813D01*
X667393Y313815D01*
X667740Y312792D01*
X668019Y311749D01*
X668230Y310689D01*
X668371Y309618D01*
X668442Y308540D01*
X668442Y307460D01*
X668371Y306382D01*
X668230Y305311D01*
X668019Y304251D01*
X667740Y303208D01*
X667393Y302185D01*
X666979Y301187D01*
X666501Y300218D01*
X665961Y299282D01*
X665361Y298384D01*
X664703Y297527D01*
X663991Y296715D01*
X663227Y295951D01*
X662415Y295239D01*
X661558Y294581D01*
X660660Y293981D01*
X659724Y293441D01*
X658755Y292963D01*
X657757Y292549D01*
X656734Y292202D01*
X655691Y291922D01*
X654631Y291712D01*
X653560Y291571D01*
X652482Y291500D01*
X651402Y291500D01*
X1074743Y1072500D02*
X1073665Y1072571D01*
X1072594Y1072712D01*
X1071535Y1072922D01*
X1070491Y1073202D01*
X1069468Y1073549D01*
X1068470Y1073963D01*
X1067501Y1074441D01*
X1066566Y1074981D01*
X1065668Y1075581D01*
X1064811Y1076239D01*
X1063998Y1076951D01*
X1063234Y1077715D01*
X1062522Y1078527D01*
X1061864Y1079384D01*
X1061264Y1080282D01*
X1060724Y1081218D01*
X1060246Y1082187D01*
X1059833Y1083185D01*
X1059486Y1084208D01*
X1059206Y1085251D01*
X1058995Y1086311D01*
X1058854Y1087382D01*
X1058784Y1088460D01*
X1058784Y1089540D01*
X1058854Y1090618D01*
X1058995Y1091689D01*
X1059206Y1092749D01*
X1059486Y1093792D01*
X1059833Y1094815D01*
X1060246Y1095813D01*
X1060724Y1096782D01*
X1061264Y1097718D01*
X1061864Y1098616D01*
X1062522Y1099473D01*
X1063234Y1100285D01*
X1063998Y1101049D01*
X1064811Y1101762D01*
X1065668Y1102419D01*
X1066566Y1103019D01*
X1067501Y1103560D01*
X1068470Y1104037D01*
X1069468Y1104451D01*
X1070491Y1104798D01*
X1071535Y1105078D01*
X1072594Y1105288D01*
X1073665Y1105429D01*
X1074743Y1105500D01*
X1075824Y1105500D01*
X1076902Y1105429D01*
X1077973Y1105288D01*
X1079032Y1105078D01*
X1080076Y1104798D01*
X1081099Y1104451D01*
X1082097Y1104037D01*
X1083066Y1103560D01*
X1084001Y1103019D01*
X1084900Y1102419D01*
X1085757Y1101762D01*
X1086569Y1101049D01*
X1087333Y1100285D01*
X1088045Y1099473D01*
X1088703Y1098616D01*
X1089303Y1097718D01*
X1089843Y1096782D01*
X1090321Y1095813D01*
X1090734Y1094815D01*
X1091082Y1093792D01*
X1091361Y1092749D01*
X1091572Y1091689D01*
X1091713Y1090618D01*
X1091784Y1089540D01*
X1091784Y1088460D01*
X1091713Y1087382D01*
X1091572Y1086311D01*
X1091361Y1085251D01*
X1091082Y1084208D01*
X1090734Y1083185D01*
X1090321Y1082187D01*
X1089843Y1081218D01*
X1089303Y1080282D01*
X1088703Y1079384D01*
X1088045Y1078527D01*
X1087333Y1077715D01*
X1086569Y1076951D01*
X1085757Y1076239D01*
X1084900Y1075581D01*
X1084001Y1074981D01*
X1083066Y1074441D01*
X1082097Y1073963D01*
X1081099Y1073549D01*
X1080076Y1073202D01*
X1079032Y1072922D01*
X1077973Y1072712D01*
X1076902Y1072571D01*
X1075824Y1072500D01*
X1074743Y1072500D01*
X1074743Y291500D02*
X1073665Y291571D01*
X1072594Y291712D01*
X1071535Y291922D01*
X1070491Y292202D01*
X1069468Y292549D01*
X1068470Y292963D01*
X1067501Y293441D01*
X1066566Y293981D01*
X1065668Y294581D01*
X1064811Y295239D01*
X1063998Y295951D01*
X1063234Y296715D01*
X1062522Y297527D01*
X1061864Y298384D01*
X1061264Y299282D01*
X1060724Y300218D01*
X1060246Y301187D01*
X1059833Y302185D01*
X1059486Y303208D01*
X1059206Y304251D01*
X1058995Y305311D01*
X1058854Y306382D01*
X1058784Y307460D01*
X1058784Y308540D01*
X1058854Y309618D01*
X1058995Y310689D01*
X1059206Y311749D01*
X1059486Y312792D01*
X1059833Y313815D01*
X1060246Y314813D01*
X1060724Y315782D01*
X1061264Y316718D01*
X1061864Y317616D01*
X1062522Y318473D01*
X1063234Y319285D01*
X1063998Y320049D01*
X1064811Y320762D01*
X1065668Y321419D01*
X1066566Y322019D01*
X1067501Y322560D01*
X1068470Y323037D01*
X1069468Y323451D01*
X1070491Y323798D01*
X1071535Y324078D01*
X1072594Y324288D01*
X1073665Y324429D01*
X1074743Y324500D01*
X1075824Y324500D01*
X1076902Y324429D01*
X1077973Y324288D01*
X1079032Y324078D01*
X1080076Y323798D01*
X1081099Y323451D01*
X1082097Y323037D01*
X1083066Y322560D01*
X1084001Y322019D01*
X1084900Y321419D01*
X1085757Y320762D01*
X1086569Y320049D01*
X1087333Y319285D01*
X1088045Y318473D01*
X1088703Y317616D01*
X1089303Y316718D01*
X1089843Y315782D01*
X1090321Y314813D01*
X1090734Y313815D01*
X1091082Y312792D01*
X1091361Y311749D01*
X1091572Y310689D01*
X1091713Y309618D01*
X1091784Y308540D01*
X1091784Y307460D01*
X1091713Y306382D01*
X1091572Y305311D01*
X1091361Y304251D01*
X1091082Y303208D01*
X1090734Y302185D01*
X1090321Y301187D01*
X1089843Y300218D01*
X1089303Y299282D01*
X1088703Y298384D01*
X1088045Y297527D01*
X1087333Y296715D01*
X1086569Y295951D01*
X1085757Y295239D01*
X1084900Y294581D01*
X1084001Y293981D01*
X1083066Y293441D01*
X1082097Y292963D01*
X1081099Y292549D01*
X1080076Y292202D01*
X1079032Y291922D01*
X1077973Y291712D01*
X1076902Y291571D01*
X1075824Y291500D01*
X1074743Y291500D01*
X1548885Y1072500D02*
X1547807Y1072571D01*
X1546736Y1072712D01*
X1545677Y1072922D01*
X1544633Y1073202D01*
X1543610Y1073549D01*
X1542612Y1073963D01*
X1541643Y1074441D01*
X1540708Y1074981D01*
X1539809Y1075581D01*
X1538952Y1076239D01*
X1538140Y1076951D01*
X1537376Y1077715D01*
X1536664Y1078527D01*
X1536006Y1079384D01*
X1535406Y1080282D01*
X1534866Y1081218D01*
X1534388Y1082187D01*
X1533975Y1083185D01*
X1533627Y1084208D01*
X1533348Y1085251D01*
X1533137Y1086311D01*
X1532996Y1087382D01*
X1532925Y1088460D01*
X1532925Y1089540D01*
X1532996Y1090618D01*
X1533137Y1091689D01*
X1533348Y1092749D01*
X1533627Y1093792D01*
X1533975Y1094815D01*
X1534388Y1095813D01*
X1534866Y1096782D01*
X1535406Y1097718D01*
X1536006Y1098616D01*
X1536664Y1099473D01*
X1537376Y1100285D01*
X1538140Y1101049D01*
X1538952Y1101762D01*
X1539809Y1102419D01*
X1540708Y1103019D01*
X1541643Y1103560D01*
X1542612Y1104037D01*
X1543610Y1104451D01*
X1544633Y1104798D01*
X1545677Y1105078D01*
X1546736Y1105288D01*
X1547807Y1105429D01*
X1548885Y1105500D01*
X1549966Y1105500D01*
X1551044Y1105429D01*
X1552115Y1105288D01*
X1553174Y1105078D01*
X1554218Y1104798D01*
X1555241Y1104451D01*
X1556239Y1104037D01*
X1557208Y1103560D01*
X1558143Y1103019D01*
X1559041Y1102419D01*
X1559899Y1101762D01*
X1560711Y1101049D01*
X1561475Y1100285D01*
X1562187Y1099473D01*
X1562845Y1098616D01*
X1563445Y1097718D01*
X1563985Y1096782D01*
X1564463Y1095813D01*
X1564876Y1094815D01*
X1565223Y1093792D01*
X1565503Y1092749D01*
X1565714Y1091689D01*
X1565855Y1090618D01*
X1565925Y1089540D01*
X1565925Y1088460D01*
X1565855Y1087382D01*
X1565714Y1086311D01*
X1565503Y1085251D01*
X1565223Y1084208D01*
X1564876Y1083185D01*
X1564463Y1082187D01*
X1563985Y1081218D01*
X1563445Y1080282D01*
X1562845Y1079384D01*
X1562187Y1078527D01*
X1561475Y1077715D01*
X1560711Y1076951D01*
X1559899Y1076239D01*
X1559041Y1075581D01*
X1558143Y1074981D01*
X1557208Y1074441D01*
X1556239Y1073963D01*
X1555241Y1073549D01*
X1554218Y1073202D01*
X1553174Y1072922D01*
X1552115Y1072712D01*
X1551044Y1072571D01*
X1549966Y1072500D01*
X1548885Y1072500D01*
X1548885Y291500D02*
X1547807Y291571D01*
X1546736Y291712D01*
X1545677Y291922D01*
X1544633Y292202D01*
X1543610Y292549D01*
X1542612Y292963D01*
X1541643Y293441D01*
X1540708Y293981D01*
X1539809Y294581D01*
X1538952Y295239D01*
X1538140Y295951D01*
X1537376Y296715D01*
X1536664Y297527D01*
X1536006Y298384D01*
X1535406Y299282D01*
X1534866Y300218D01*
X1534388Y301187D01*
X1533975Y302185D01*
X1533627Y303208D01*
X1533348Y304251D01*
X1533137Y305311D01*
X1532996Y306382D01*
X1532925Y307460D01*
X1532925Y308540D01*
X1532996Y309618D01*
X1533137Y310689D01*
X1533348Y311749D01*
X1533627Y312792D01*
X1533975Y313815D01*
X1534388Y314813D01*
X1534866Y315782D01*
X1535406Y316718D01*
X1536006Y317616D01*
X1536664Y318473D01*
X1537376Y319285D01*
X1538140Y320049D01*
X1538952Y320762D01*
X1539809Y321419D01*
X1540708Y322019D01*
X1541643Y322560D01*
X1542612Y323037D01*
X1543610Y323451D01*
X1544633Y323798D01*
X1545677Y324078D01*
X1546736Y324288D01*
X1547807Y324429D01*
X1548885Y324500D01*
X1549966Y324500D01*
X1551044Y324429D01*
X1552115Y324288D01*
X1553174Y324078D01*
X1554218Y323798D01*
X1555241Y323451D01*
X1556239Y323037D01*
X1557208Y322560D01*
X1558143Y322019D01*
X1559041Y321419D01*
X1559899Y320762D01*
X1560711Y320049D01*
X1561475Y319285D01*
X1562187Y318473D01*
X1562845Y317616D01*
X1563445Y316718D01*
X1563985Y315782D01*
X1564463Y314813D01*
X1564876Y313815D01*
X1565223Y312792D01*
X1565503Y311749D01*
X1565714Y310689D01*
X1565855Y309618D01*
X1565925Y308540D01*
X1565925Y307460D01*
X1565855Y306382D01*
X1565714Y305311D01*
X1565503Y304251D01*
X1565223Y303208D01*
X1564876Y302185D01*
X1564463Y301187D01*
X1563985Y300218D01*
X1563445Y299282D01*
X1562845Y298384D01*
X1562187Y297527D01*
X1561475Y296715D01*
X1560711Y295951D01*
X1559899Y295239D01*
X1559041Y294581D01*
X1558143Y293981D01*
X1557208Y293441D01*
X1556239Y292963D01*
X1555241Y292549D01*
X1554218Y292202D01*
X1553174Y291922D01*
X1552115Y291712D01*
X1551044Y291571D01*
X1549966Y291500D01*
X1548885Y291500D01*
X1972227Y1072500D02*
X1971149Y1072571D01*
X1970078Y1072712D01*
X1969018Y1072922D01*
X1967975Y1073202D01*
X1966952Y1073549D01*
X1965954Y1073963D01*
X1964985Y1074441D01*
X1964049Y1074981D01*
X1963151Y1075581D01*
X1962294Y1076239D01*
X1961482Y1076951D01*
X1960718Y1077715D01*
X1960006Y1078527D01*
X1959348Y1079384D01*
X1958748Y1080282D01*
X1958208Y1081218D01*
X1957730Y1082187D01*
X1957316Y1083185D01*
X1956969Y1084208D01*
X1956690Y1085251D01*
X1956479Y1086311D01*
X1956338Y1087382D01*
X1956267Y1088460D01*
X1956267Y1089540D01*
X1956338Y1090618D01*
X1956479Y1091689D01*
X1956690Y1092749D01*
X1956969Y1093792D01*
X1957316Y1094815D01*
X1957730Y1095813D01*
X1958208Y1096782D01*
X1958748Y1097718D01*
X1959348Y1098616D01*
X1960006Y1099473D01*
X1960718Y1100285D01*
X1961482Y1101049D01*
X1962294Y1101762D01*
X1963151Y1102419D01*
X1964049Y1103019D01*
X1964985Y1103560D01*
X1965954Y1104037D01*
X1966952Y1104451D01*
X1967975Y1104798D01*
X1969018Y1105078D01*
X1970078Y1105288D01*
X1971149Y1105429D01*
X1972227Y1105500D01*
X1973307Y1105500D01*
X1974385Y1105429D01*
X1975456Y1105288D01*
X1976516Y1105078D01*
X1977559Y1104798D01*
X1978582Y1104451D01*
X1979581Y1104037D01*
X1980549Y1103560D01*
X1981485Y1103019D01*
X1982383Y1102419D01*
X1983240Y1101762D01*
X1984053Y1101049D01*
X1984816Y1100285D01*
X1985529Y1099473D01*
X1986186Y1098616D01*
X1986787Y1097718D01*
X1987327Y1096782D01*
X1987805Y1095813D01*
X1988218Y1094815D01*
X1988565Y1093792D01*
X1988845Y1092749D01*
X1989056Y1091689D01*
X1989197Y1090618D01*
X1989267Y1089540D01*
X1989267Y1088460D01*
X1989197Y1087382D01*
X1989056Y1086311D01*
X1988845Y1085251D01*
X1988565Y1084208D01*
X1988218Y1083185D01*
X1987805Y1082187D01*
X1987327Y1081218D01*
X1986787Y1080282D01*
X1986186Y1079384D01*
X1985529Y1078527D01*
X1984816Y1077715D01*
X1984053Y1076951D01*
X1983240Y1076239D01*
X1982383Y1075581D01*
X1981485Y1074981D01*
X1980549Y1074441D01*
X1979581Y1073963D01*
X1978582Y1073549D01*
X1977559Y1073202D01*
X1976516Y1072922D01*
X1975456Y1072712D01*
X1974385Y1072571D01*
X1973307Y1072500D01*
X1972227Y1072500D01*
X1972227Y291500D02*
X1971149Y291571D01*
X1970078Y291712D01*
X1969018Y291922D01*
X1967975Y292202D01*
X1966952Y292549D01*
X1965954Y292963D01*
X1964985Y293441D01*
X1964049Y293981D01*
X1963151Y294581D01*
X1962294Y295239D01*
X1961482Y295951D01*
X1960718Y296715D01*
X1960006Y297527D01*
X1959348Y298384D01*
X1958748Y299282D01*
X1958208Y300218D01*
X1957730Y301187D01*
X1957316Y302185D01*
X1956969Y303208D01*
X1956690Y304251D01*
X1956479Y305311D01*
X1956338Y306382D01*
X1956267Y307460D01*
X1956267Y308540D01*
X1956338Y309618D01*
X1956479Y310689D01*
X1956690Y311749D01*
X1956969Y312792D01*
X1957316Y313815D01*
X1957730Y314813D01*
X1958208Y315782D01*
X1958748Y316718D01*
X1959348Y317616D01*
X1960006Y318473D01*
X1960718Y319285D01*
X1961482Y320049D01*
X1962294Y320762D01*
X1963151Y321419D01*
X1964049Y322019D01*
X1964985Y322560D01*
X1965954Y323037D01*
X1966952Y323451D01*
X1967975Y323798D01*
X1969018Y324078D01*
X1970078Y324288D01*
X1971149Y324429D01*
X1972227Y324500D01*
X1973307Y324500D01*
X1974385Y324429D01*
X1975456Y324288D01*
X1976516Y324078D01*
X1977559Y323798D01*
X1978582Y323451D01*
X1979581Y323037D01*
X1980549Y322560D01*
X1981485Y322019D01*
X1982383Y321419D01*
X1983240Y320762D01*
X1984053Y320049D01*
X1984816Y319285D01*
X1985529Y318473D01*
X1986186Y317616D01*
X1986787Y316718D01*
X1987327Y315782D01*
X1987805Y314813D01*
X1988218Y313815D01*
X1988565Y312792D01*
X1988845Y311749D01*
X1989056Y310689D01*
X1989197Y309618D01*
X1989267Y308540D01*
X1989267Y307460D01*
X1989197Y306382D01*
X1989056Y305311D01*
X1988845Y304251D01*
X1988565Y303208D01*
X1988218Y302185D01*
X1987805Y301187D01*
X1987327Y300218D01*
X1986787Y299282D01*
X1986186Y298384D01*
X1985529Y297527D01*
X1984816Y296715D01*
X1984053Y295951D01*
X1983240Y295239D01*
X1982383Y294581D01*
X1981485Y293981D01*
X1980549Y293441D01*
X1979581Y292963D01*
X1978582Y292549D01*
X1977559Y292202D01*
X1976516Y291922D01*
X1975456Y291712D01*
X1974385Y291571D01*
X1973307Y291500D01*
X1972227Y291500D01*
X2395569Y1072500D02*
X2394491Y1072571D01*
X2393420Y1072712D01*
X2392360Y1072922D01*
X2391317Y1073202D01*
X2390294Y1073549D01*
X2389296Y1073963D01*
X2388327Y1074441D01*
X2387391Y1074981D01*
X2386493Y1075581D01*
X2385636Y1076239D01*
X2384824Y1076951D01*
X2384060Y1077715D01*
X2383348Y1078527D01*
X2382690Y1079384D01*
X2382090Y1080282D01*
X2381550Y1081218D01*
X2381072Y1082187D01*
X2380658Y1083185D01*
X2380311Y1084208D01*
X2380031Y1085251D01*
X2379821Y1086311D01*
X2379680Y1087382D01*
X2379609Y1088460D01*
X2379609Y1089540D01*
X2379680Y1090618D01*
X2379821Y1091689D01*
X2380031Y1092749D01*
X2380311Y1093792D01*
X2380658Y1094815D01*
X2381072Y1095813D01*
X2381550Y1096782D01*
X2382090Y1097718D01*
X2382690Y1098616D01*
X2383348Y1099473D01*
X2384060Y1100285D01*
X2384824Y1101049D01*
X2385636Y1101762D01*
X2386493Y1102419D01*
X2387391Y1103019D01*
X2388327Y1103560D01*
X2389296Y1104037D01*
X2390294Y1104451D01*
X2391317Y1104798D01*
X2392360Y1105078D01*
X2393420Y1105288D01*
X2394491Y1105429D01*
X2395569Y1105500D01*
X2396649Y1105500D01*
X2397727Y1105429D01*
X2398798Y1105288D01*
X2399858Y1105078D01*
X2400901Y1104798D01*
X2401924Y1104451D01*
X2402922Y1104037D01*
X2403891Y1103560D01*
X2404827Y1103019D01*
X2405725Y1102419D01*
X2406582Y1101762D01*
X2407394Y1101049D01*
X2408158Y1100285D01*
X2408871Y1099473D01*
X2409528Y1098616D01*
X2410128Y1097718D01*
X2410669Y1096782D01*
X2411146Y1095813D01*
X2411560Y1094815D01*
X2411907Y1093792D01*
X2412187Y1092749D01*
X2412397Y1091689D01*
X2412538Y1090618D01*
X2412609Y1089540D01*
X2412609Y1088460D01*
X2412538Y1087382D01*
X2412397Y1086311D01*
X2412187Y1085251D01*
X2411907Y1084208D01*
X2411560Y1083185D01*
X2411146Y1082187D01*
X2410669Y1081218D01*
X2410128Y1080282D01*
X2409528Y1079384D01*
X2408871Y1078527D01*
X2408158Y1077715D01*
X2407394Y1076951D01*
X2406582Y1076239D01*
X2405725Y1075581D01*
X2404827Y1074981D01*
X2403891Y1074441D01*
X2402922Y1073963D01*
X2401924Y1073549D01*
X2400901Y1073202D01*
X2399858Y1072922D01*
X2398798Y1072712D01*
X2397727Y1072571D01*
X2396649Y1072500D01*
X2395569Y1072500D01*
X2395569Y291500D02*
X2394491Y291571D01*
X2393420Y291712D01*
X2392360Y291922D01*
X2391317Y292202D01*
X2390294Y292549D01*
X2389296Y292963D01*
X2388327Y293441D01*
X2387391Y293981D01*
X2386493Y294581D01*
X2385636Y295239D01*
X2384824Y295951D01*
X2384060Y296715D01*
X2383348Y297527D01*
X2382690Y298384D01*
X2382090Y299282D01*
X2381550Y300218D01*
X2381072Y301187D01*
X2380658Y302185D01*
X2380311Y303208D01*
X2380031Y304251D01*
X2379821Y305311D01*
X2379680Y306382D01*
X2379609Y307460D01*
X2379609Y308540D01*
X2379680Y309618D01*
X2379821Y310689D01*
X2380031Y311749D01*
X2380311Y312792D01*
X2380658Y313815D01*
X2381072Y314813D01*
X2381550Y315782D01*
X2382090Y316718D01*
X2382690Y317616D01*
X2383348Y318473D01*
X2384060Y319285D01*
X2384824Y320049D01*
X2385636Y320762D01*
X2386493Y321419D01*
X2387391Y322019D01*
X2388327Y322560D01*
X2389296Y323037D01*
X2390294Y323451D01*
X2391317Y323798D01*
X2392360Y324078D01*
X2393420Y324288D01*
X2394491Y324429D01*
X2395569Y324500D01*
X2396649Y324500D01*
X2397727Y324429D01*
X2398798Y324288D01*
X2399858Y324078D01*
X2400901Y323798D01*
X2401924Y323451D01*
X2402922Y323037D01*
X2403891Y322560D01*
X2404827Y322019D01*
X2405725Y321419D01*
X2406582Y320762D01*
X2407394Y320049D01*
X2408158Y319285D01*
X2408871Y318473D01*
X2409528Y317616D01*
X2410128Y316718D01*
X2410669Y315782D01*
X2411146Y314813D01*
X2411560Y313815D01*
X2411907Y312792D01*
X2412187Y311749D01*
X2412397Y310689D01*
X2412538Y309618D01*
X2412609Y308540D01*
X2412609Y307460D01*
X2412538Y306382D01*
X2412397Y305311D01*
X2412187Y304251D01*
X2411907Y303208D01*
X2411560Y302185D01*
X2411146Y301187D01*
X2410669Y300218D01*
X2410128Y299282D01*
X2409528Y298384D01*
X2408871Y297527D01*
X2408158Y296715D01*
X2407394Y295951D01*
X2406582Y295239D01*
X2405725Y294581D01*
X2404827Y293981D01*
X2403891Y293441D01*
X2402922Y292963D01*
X2401924Y292549D01*
X2400901Y292202D01*
X2399858Y291922D01*
X2398798Y291712D01*
X2397727Y291571D01*
X2396649Y291500D01*
X2395569Y291500D01*
X2818911Y1072500D02*
X2817833Y1072571D01*
X2816762Y1072712D01*
X2815702Y1072922D01*
X2814659Y1073202D01*
X2813636Y1073549D01*
X2812638Y1073963D01*
X2811669Y1074441D01*
X2810733Y1074981D01*
X2809835Y1075581D01*
X2808978Y1076239D01*
X2808166Y1076951D01*
X2807402Y1077715D01*
X2806689Y1078527D01*
X2806032Y1079384D01*
X2805431Y1080282D01*
X2804891Y1081218D01*
X2804414Y1082187D01*
X2804000Y1083185D01*
X2803653Y1084208D01*
X2803373Y1085251D01*
X2803162Y1086311D01*
X2803021Y1087382D01*
X2802951Y1088460D01*
X2802951Y1089540D01*
X2803021Y1090618D01*
X2803162Y1091689D01*
X2803373Y1092749D01*
X2803653Y1093792D01*
X2804000Y1094815D01*
X2804414Y1095813D01*
X2804891Y1096782D01*
X2805431Y1097718D01*
X2806032Y1098616D01*
X2806689Y1099473D01*
X2807402Y1100285D01*
X2808166Y1101049D01*
X2808978Y1101762D01*
X2809835Y1102419D01*
X2810733Y1103019D01*
X2811669Y1103560D01*
X2812638Y1104037D01*
X2813636Y1104451D01*
X2814659Y1104798D01*
X2815702Y1105078D01*
X2816762Y1105288D01*
X2817833Y1105429D01*
X2818911Y1105500D01*
X2819991Y1105500D01*
X2821069Y1105429D01*
X2822140Y1105288D01*
X2823200Y1105078D01*
X2824243Y1104798D01*
X2825266Y1104451D01*
X2826264Y1104037D01*
X2827233Y1103560D01*
X2828169Y1103019D01*
X2829067Y1102419D01*
X2829924Y1101762D01*
X2830736Y1101049D01*
X2831500Y1100285D01*
X2832212Y1099473D01*
X2832870Y1098616D01*
X2833470Y1097718D01*
X2834010Y1096782D01*
X2834488Y1095813D01*
X2834902Y1094815D01*
X2835249Y1093792D01*
X2835528Y1092749D01*
X2835739Y1091689D01*
X2835880Y1090618D01*
X2835951Y1089540D01*
X2835951Y1088460D01*
X2835880Y1087382D01*
X2835739Y1086311D01*
X2835528Y1085251D01*
X2835249Y1084208D01*
X2834902Y1083185D01*
X2834488Y1082187D01*
X2834010Y1081218D01*
X2833470Y1080282D01*
X2832870Y1079384D01*
X2832212Y1078527D01*
X2831500Y1077715D01*
X2830736Y1076951D01*
X2829924Y1076239D01*
X2829067Y1075581D01*
X2828169Y1074981D01*
X2827233Y1074441D01*
X2826264Y1073963D01*
X2825266Y1073549D01*
X2824243Y1073202D01*
X2823200Y1072922D01*
X2822140Y1072712D01*
X2821069Y1072571D01*
X2819991Y1072500D01*
X2818911Y1072500D01*
X2818911Y291500D02*
X2817833Y291571D01*
X2816762Y291712D01*
X2815702Y291922D01*
X2814659Y292202D01*
X2813636Y292549D01*
X2812638Y292963D01*
X2811669Y293441D01*
X2810733Y293981D01*
X2809835Y294581D01*
X2808978Y295239D01*
X2808166Y295951D01*
X2807402Y296715D01*
X2806689Y297527D01*
X2806032Y298384D01*
X2805431Y299282D01*
X2804891Y300218D01*
X2804414Y301187D01*
X2804000Y302185D01*
X2803653Y303208D01*
X2803373Y304251D01*
X2803162Y305311D01*
X2803021Y306382D01*
X2802951Y307460D01*
X2802951Y308540D01*
X2803021Y309618D01*
X2803162Y310689D01*
X2803373Y311749D01*
X2803653Y312792D01*
X2804000Y313815D01*
X2804414Y314813D01*
X2804891Y315782D01*
X2805431Y316718D01*
X2806032Y317616D01*
X2806689Y318473D01*
X2807402Y319285D01*
X2808166Y320049D01*
X2808978Y320762D01*
X2809835Y321419D01*
X2810733Y322019D01*
X2811669Y322560D01*
X2812638Y323037D01*
X2813636Y323451D01*
X2814659Y323798D01*
X2815702Y324078D01*
X2816762Y324288D01*
X2817833Y324429D01*
X2818911Y324500D01*
X2819991Y324500D01*
X2821069Y324429D01*
X2822140Y324288D01*
X2823200Y324078D01*
X2824243Y323798D01*
X2825266Y323451D01*
X2826264Y323037D01*
X2827233Y322560D01*
X2828169Y322019D01*
X2829067Y321419D01*
X2829924Y320762D01*
X2830736Y320049D01*
X2831500Y319285D01*
X2832212Y318473D01*
X2832870Y317616D01*
X2833470Y316718D01*
X2834010Y315782D01*
X2834488Y314813D01*
X2834902Y313815D01*
X2835249Y312792D01*
X2835528Y311749D01*
X2835739Y310689D01*
X2835880Y309618D01*
X2835951Y308540D01*
X2835951Y307460D01*
X2835880Y306382D01*
X2835739Y305311D01*
X2835528Y304251D01*
X2835249Y303208D01*
X2834902Y302185D01*
X2834488Y301187D01*
X2834010Y300218D01*
X2833470Y299282D01*
X2832870Y298384D01*
X2832212Y297527D01*
X2831500Y296715D01*
X2830736Y295951D01*
X2829924Y295239D01*
X2829067Y294581D01*
X2828169Y293981D01*
X2827233Y293441D01*
X2826264Y292963D01*
X2825266Y292549D01*
X2824243Y292202D01*
X2823200Y291922D01*
X2822140Y291712D01*
X2821069Y291571D01*
X2819991Y291500D01*
X2818911Y291500D01*
X3242252Y1072500D02*
X3241174Y1072571D01*
X3240103Y1072712D01*
X3239044Y1072922D01*
X3238000Y1073202D01*
X3236977Y1073549D01*
X3235979Y1073963D01*
X3235010Y1074441D01*
X3234075Y1074981D01*
X3233177Y1075581D01*
X3232320Y1076239D01*
X3231507Y1076951D01*
X3230743Y1077715D01*
X3230031Y1078527D01*
X3229373Y1079384D01*
X3228773Y1080282D01*
X3228233Y1081218D01*
X3227755Y1082187D01*
X3227342Y1083185D01*
X3226995Y1084208D01*
X3226715Y1085251D01*
X3226504Y1086311D01*
X3226363Y1087382D01*
X3226293Y1088460D01*
X3226293Y1089540D01*
X3226363Y1090618D01*
X3226504Y1091689D01*
X3226715Y1092749D01*
X3226995Y1093792D01*
X3227342Y1094815D01*
X3227755Y1095813D01*
X3228233Y1096782D01*
X3228773Y1097718D01*
X3229373Y1098616D01*
X3230031Y1099473D01*
X3230743Y1100285D01*
X3231507Y1101049D01*
X3232320Y1101762D01*
X3233177Y1102419D01*
X3234075Y1103019D01*
X3235010Y1103560D01*
X3235979Y1104037D01*
X3236977Y1104451D01*
X3238000Y1104798D01*
X3239044Y1105078D01*
X3240103Y1105288D01*
X3241174Y1105429D01*
X3242252Y1105500D01*
X3243333Y1105500D01*
X3244411Y1105429D01*
X3245482Y1105288D01*
X3246541Y1105078D01*
X3247585Y1104798D01*
X3248608Y1104451D01*
X3249606Y1104037D01*
X3250575Y1103560D01*
X3251510Y1103019D01*
X3252409Y1102419D01*
X3253266Y1101762D01*
X3254078Y1101049D01*
X3254842Y1100285D01*
X3255554Y1099473D01*
X3256212Y1098616D01*
X3256812Y1097718D01*
X3257352Y1096782D01*
X3257830Y1095813D01*
X3258243Y1094815D01*
X3258591Y1093792D01*
X3258870Y1092749D01*
X3259081Y1091689D01*
X3259222Y1090618D01*
X3259293Y1089540D01*
X3259293Y1088460D01*
X3259222Y1087382D01*
X3259081Y1086311D01*
X3258870Y1085251D01*
X3258591Y1084208D01*
X3258243Y1083185D01*
X3257830Y1082187D01*
X3257352Y1081218D01*
X3256812Y1080282D01*
X3256212Y1079384D01*
X3255554Y1078527D01*
X3254842Y1077715D01*
X3254078Y1076951D01*
X3253266Y1076239D01*
X3252409Y1075581D01*
X3251510Y1074981D01*
X3250575Y1074441D01*
X3249606Y1073963D01*
X3248608Y1073549D01*
X3247585Y1073202D01*
X3246541Y1072922D01*
X3245482Y1072712D01*
X3244411Y1072571D01*
X3243333Y1072500D01*
X3242252Y1072500D01*
X3242252Y291500D02*
X3241174Y291571D01*
X3240103Y291712D01*
X3239044Y291922D01*
X3238000Y292202D01*
X3236977Y292549D01*
X3235979Y292963D01*
X3235010Y293441D01*
X3234075Y293981D01*
X3233177Y294581D01*
X3232320Y295239D01*
X3231507Y295951D01*
X3230743Y296715D01*
X3230031Y297527D01*
X3229373Y298384D01*
X3228773Y299282D01*
X3228233Y300218D01*
X3227755Y301187D01*
X3227342Y302185D01*
X3226995Y303208D01*
X3226715Y304251D01*
X3226504Y305311D01*
X3226363Y306382D01*
X3226293Y307460D01*
X3226293Y308540D01*
X3226363Y309618D01*
X3226504Y310689D01*
X3226715Y311749D01*
X3226995Y312792D01*
X3227342Y313815D01*
X3227755Y314813D01*
X3228233Y315782D01*
X3228773Y316718D01*
X3229373Y317616D01*
X3230031Y318473D01*
X3230743Y319285D01*
X3231507Y320049D01*
X3232320Y320762D01*
X3233177Y321419D01*
X3234075Y322019D01*
X3235010Y322560D01*
X3235979Y323037D01*
X3236977Y323451D01*
X3238000Y323798D01*
X3239044Y324078D01*
X3240103Y324288D01*
X3241174Y324429D01*
X3242252Y324500D01*
X3243333Y324500D01*
X3244411Y324429D01*
X3245482Y324288D01*
X3246541Y324078D01*
X3247585Y323798D01*
X3248608Y323451D01*
X3249606Y323037D01*
X3250575Y322560D01*
X3251510Y322019D01*
X3252409Y321419D01*
X3253266Y320762D01*
X3254078Y320049D01*
X3254842Y319285D01*
X3255554Y318473D01*
X3256212Y317616D01*
X3256812Y316718D01*
X3257352Y315782D01*
X3257830Y314813D01*
X3258243Y313815D01*
X3258591Y312792D01*
X3258870Y311749D01*
X3259081Y310689D01*
X3259222Y309618D01*
X3259293Y308540D01*
X3259293Y307460D01*
X3259222Y306382D01*
X3259081Y305311D01*
X3258870Y304251D01*
X3258591Y303208D01*
X3258243Y302185D01*
X3257830Y301187D01*
X3257352Y300218D01*
X3256812Y299282D01*
X3256212Y298384D01*
X3255554Y297527D01*
X3254842Y296715D01*
X3254078Y295951D01*
X3253266Y295239D01*
X3252409Y294581D01*
X3251510Y293981D01*
X3250575Y293441D01*
X3249606Y292963D01*
X3248608Y292549D01*
X3247585Y292202D01*
X3246541Y291922D01*
X3245482Y291712D01*
X3244411Y291571D01*
X3243333Y291500D01*
X3242252Y291500D01*
X3665602Y1072500D02*
X3664524Y1072571D01*
X3663453Y1072712D01*
X3662393Y1072922D01*
X3661350Y1073202D01*
X3660327Y1073549D01*
X3659329Y1073963D01*
X3658360Y1074441D01*
X3657424Y1074981D01*
X3656526Y1075581D01*
X3655669Y1076239D01*
X3654857Y1076951D01*
X3654093Y1077715D01*
X3653381Y1078527D01*
X3652723Y1079384D01*
X3652123Y1080282D01*
X3651583Y1081218D01*
X3651105Y1082187D01*
X3650691Y1083185D01*
X3650344Y1084208D01*
X3650064Y1085251D01*
X3649854Y1086311D01*
X3649713Y1087382D01*
X3649642Y1088460D01*
X3649642Y1089540D01*
X3649713Y1090618D01*
X3649854Y1091689D01*
X3650064Y1092749D01*
X3650344Y1093792D01*
X3650691Y1094815D01*
X3651105Y1095813D01*
X3651583Y1096782D01*
X3652123Y1097718D01*
X3652723Y1098616D01*
X3653381Y1099473D01*
X3654093Y1100285D01*
X3654857Y1101049D01*
X3655669Y1101762D01*
X3656526Y1102419D01*
X3657424Y1103019D01*
X3658360Y1103560D01*
X3659329Y1104037D01*
X3660327Y1104451D01*
X3661350Y1104798D01*
X3662393Y1105078D01*
X3663453Y1105288D01*
X3664524Y1105429D01*
X3665602Y1105500D01*
X3666682Y1105500D01*
X3667760Y1105429D01*
X3668831Y1105288D01*
X3669891Y1105078D01*
X3670934Y1104798D01*
X3671957Y1104451D01*
X3672955Y1104037D01*
X3673924Y1103560D01*
X3674860Y1103019D01*
X3675758Y1102419D01*
X3676615Y1101762D01*
X3677427Y1101049D01*
X3678191Y1100285D01*
X3678904Y1099473D01*
X3679561Y1098616D01*
X3680161Y1097718D01*
X3680702Y1096782D01*
X3681179Y1095813D01*
X3681593Y1094815D01*
X3681940Y1093792D01*
X3682220Y1092749D01*
X3682430Y1091689D01*
X3682571Y1090618D01*
X3682642Y1089540D01*
X3682642Y1088460D01*
X3682571Y1087382D01*
X3682430Y1086311D01*
X3682220Y1085251D01*
X3681940Y1084208D01*
X3681593Y1083185D01*
X3681179Y1082187D01*
X3680702Y1081218D01*
X3680161Y1080282D01*
X3679561Y1079384D01*
X3678904Y1078527D01*
X3678191Y1077715D01*
X3677427Y1076951D01*
X3676615Y1076239D01*
X3675758Y1075581D01*
X3674860Y1074981D01*
X3673924Y1074441D01*
X3672955Y1073963D01*
X3671957Y1073549D01*
X3670934Y1073202D01*
X3669891Y1072922D01*
X3668831Y1072712D01*
X3667760Y1072571D01*
X3666682Y1072500D01*
X3665602Y1072500D01*
X3665602Y291500D02*
X3664524Y291571D01*
X3663453Y291712D01*
X3662393Y291922D01*
X3661350Y292202D01*
X3660327Y292549D01*
X3659329Y292963D01*
X3658360Y293441D01*
X3657424Y293981D01*
X3656526Y294581D01*
X3655669Y295239D01*
X3654857Y295951D01*
X3654093Y296715D01*
X3653381Y297527D01*
X3652723Y298384D01*
X3652123Y299282D01*
X3651583Y300218D01*
X3651105Y301187D01*
X3650691Y302185D01*
X3650344Y303208D01*
X3650064Y304251D01*
X3649854Y305311D01*
X3649713Y306382D01*
X3649642Y307460D01*
X3649642Y308540D01*
X3649713Y309618D01*
X3649854Y310689D01*
X3650064Y311749D01*
X3650344Y312792D01*
X3650691Y313815D01*
X3651105Y314813D01*
X3651583Y315782D01*
X3652123Y316718D01*
X3652723Y317616D01*
X3653381Y318473D01*
X3654093Y319285D01*
X3654857Y320049D01*
X3655669Y320762D01*
X3656526Y321419D01*
X3657424Y322019D01*
X3658360Y322560D01*
X3659329Y323037D01*
X3660327Y323451D01*
X3661350Y323798D01*
X3662393Y324078D01*
X3663453Y324288D01*
X3664524Y324429D01*
X3665602Y324500D01*
X3666682Y324500D01*
X3667760Y324429D01*
X3668831Y324288D01*
X3669891Y324078D01*
X3670934Y323798D01*
X3671957Y323451D01*
X3672955Y323037D01*
X3673924Y322560D01*
X3674860Y322019D01*
X3675758Y321419D01*
X3676615Y320762D01*
X3677427Y320049D01*
X3678191Y319285D01*
X3678904Y318473D01*
X3679561Y317616D01*
X3680161Y316718D01*
X3680702Y315782D01*
X3681179Y314813D01*
X3681593Y313815D01*
X3681940Y312792D01*
X3682220Y311749D01*
X3682430Y310689D01*
X3682571Y309618D01*
X3682642Y308540D01*
X3682642Y307460D01*
X3682571Y306382D01*
X3682430Y305311D01*
X3682220Y304251D01*
X3681940Y303208D01*
X3681593Y302185D01*
X3681179Y301187D01*
X3680702Y300218D01*
X3680161Y299282D01*
X3679561Y298384D01*
X3678904Y297527D01*
X3678191Y296715D01*
X3677427Y295951D01*
X3676615Y295239D01*
X3675758Y294581D01*
X3674860Y293981D01*
X3673924Y293441D01*
X3672955Y292963D01*
X3671957Y292549D01*
X3670934Y292202D01*
X3669891Y291922D01*
X3668831Y291712D01*
X3667760Y291571D01*
X3666682Y291500D01*
X3665602Y291500D01*
X4088936Y1072500D02*
X4087858Y1072571D01*
X4086787Y1072712D01*
X4085727Y1072922D01*
X4084684Y1073202D01*
X4083661Y1073549D01*
X4082663Y1073963D01*
X4081694Y1074441D01*
X4080758Y1074981D01*
X4079860Y1075581D01*
X4079003Y1076239D01*
X4078191Y1076951D01*
X4077427Y1077715D01*
X4076715Y1078527D01*
X4076057Y1079384D01*
X4075457Y1080282D01*
X4074917Y1081218D01*
X4074439Y1082187D01*
X4074025Y1083185D01*
X4073678Y1084208D01*
X4073399Y1085251D01*
X4073188Y1086311D01*
X4073047Y1087382D01*
X4072976Y1088460D01*
X4072976Y1089540D01*
X4073047Y1090618D01*
X4073188Y1091689D01*
X4073399Y1092749D01*
X4073678Y1093792D01*
X4074025Y1094815D01*
X4074439Y1095813D01*
X4074917Y1096782D01*
X4075457Y1097718D01*
X4076057Y1098616D01*
X4076715Y1099473D01*
X4077427Y1100285D01*
X4078191Y1101049D01*
X4079003Y1101762D01*
X4079860Y1102419D01*
X4080758Y1103019D01*
X4081694Y1103560D01*
X4082663Y1104037D01*
X4083661Y1104451D01*
X4084684Y1104798D01*
X4085727Y1105078D01*
X4086787Y1105288D01*
X4087858Y1105429D01*
X4088936Y1105500D01*
X4090016Y1105500D01*
X4091094Y1105429D01*
X4092165Y1105288D01*
X4093225Y1105078D01*
X4094268Y1104798D01*
X4095291Y1104451D01*
X4096290Y1104037D01*
X4097258Y1103560D01*
X4098194Y1103019D01*
X4099092Y1102419D01*
X4099949Y1101762D01*
X4100762Y1101049D01*
X4101525Y1100285D01*
X4102238Y1099473D01*
X4102895Y1098616D01*
X4103496Y1097718D01*
X4104036Y1096782D01*
X4104514Y1095813D01*
X4104927Y1094815D01*
X4105274Y1093792D01*
X4105554Y1092749D01*
X4105765Y1091689D01*
X4105906Y1090618D01*
X4105976Y1089540D01*
X4105976Y1088460D01*
X4105906Y1087382D01*
X4105765Y1086311D01*
X4105554Y1085251D01*
X4105274Y1084208D01*
X4104927Y1083185D01*
X4104514Y1082187D01*
X4104036Y1081218D01*
X4103496Y1080282D01*
X4102895Y1079384D01*
X4102238Y1078527D01*
X4101525Y1077715D01*
X4100762Y1076951D01*
X4099949Y1076239D01*
X4099092Y1075581D01*
X4098194Y1074981D01*
X4097258Y1074441D01*
X4096290Y1073963D01*
X4095291Y1073549D01*
X4094268Y1073202D01*
X4093225Y1072922D01*
X4092165Y1072712D01*
X4091094Y1072571D01*
X4090016Y1072500D01*
X4088936Y1072500D01*
X4088936Y291500D02*
X4087858Y291571D01*
X4086787Y291712D01*
X4085727Y291922D01*
X4084684Y292202D01*
X4083661Y292549D01*
X4082663Y292963D01*
X4081694Y293441D01*
X4080758Y293981D01*
X4079860Y294581D01*
X4079003Y295239D01*
X4078191Y295951D01*
X4077427Y296715D01*
X4076715Y297527D01*
X4076057Y298384D01*
X4075457Y299282D01*
X4074917Y300218D01*
X4074439Y301187D01*
X4074025Y302185D01*
X4073678Y303208D01*
X4073399Y304251D01*
X4073188Y305311D01*
X4073047Y306382D01*
X4072976Y307460D01*
X4072976Y308540D01*
X4073047Y309618D01*
X4073188Y310689D01*
X4073399Y311749D01*
X4073678Y312792D01*
X4074025Y313815D01*
X4074439Y314813D01*
X4074917Y315782D01*
X4075457Y316718D01*
X4076057Y317616D01*
X4076715Y318473D01*
X4077427Y319285D01*
X4078191Y320049D01*
X4079003Y320762D01*
X4079860Y321419D01*
X4080758Y322019D01*
X4081694Y322560D01*
X4082663Y323037D01*
X4083661Y323451D01*
X4084684Y323798D01*
X4085727Y324078D01*
X4086787Y324288D01*
X4087858Y324429D01*
X4088936Y324500D01*
X4090016Y324500D01*
X4091094Y324429D01*
X4092165Y324288D01*
X4093225Y324078D01*
X4094268Y323798D01*
X4095291Y323451D01*
X4096290Y323037D01*
X4097258Y322560D01*
X4098194Y322019D01*
X4099092Y321419D01*
X4099949Y320762D01*
X4100762Y320049D01*
X4101525Y319285D01*
X4102238Y318473D01*
X4102895Y317616D01*
X4103496Y316718D01*
X4104036Y315782D01*
X4104514Y314813D01*
X4104927Y313815D01*
X4105274Y312792D01*
X4105554Y311749D01*
X4105765Y310689D01*
X4105906Y309618D01*
X4105976Y308540D01*
X4105976Y307460D01*
X4105906Y306382D01*
X4105765Y305311D01*
X4105554Y304251D01*
X4105274Y303208D01*
X4104927Y302185D01*
X4104514Y301187D01*
X4104036Y300218D01*
X4103496Y299282D01*
X4102895Y298384D01*
X4102238Y297527D01*
X4101525Y296715D01*
X4100762Y295951D01*
X4099949Y295239D01*
X4099092Y294581D01*
X4098194Y293981D01*
X4097258Y293441D01*
X4096290Y292963D01*
X4095291Y292549D01*
X4094268Y292202D01*
X4093225Y291922D01*
X4092165Y291712D01*
X4091094Y291571D01*
X4090016Y291500D01*
X4088936Y291500D01*
M02*
