G04 EAGLE Gerber RS-274X export*
G75*
%MOMM*%
%FSLAX34Y34*%
%LPD*%
%INSoldermask Bottom*%
%IPPOS*%
%AMOC8*
5,1,8,0,0,1.08239X$1,22.5*%
G01*
%ADD10C,3.860800*%
%ADD11R,1.853200X1.853200*%
%ADD12C,1.853200*%
%ADD13C,3.503200*%
%ADD14R,1.133200X1.213200*%
%ADD15C,2.374900*%
%ADD16C,1.711200*%
%ADD17R,1.973200X1.433200*%
%ADD18C,1.473200*%
%ADD19C,2.146300*%
%ADD20C,2.451100*%
%ADD21C,0.959600*%


D10*
X127000Y1334008D03*
X1905000Y1334008D03*
X1016000Y1334008D03*
X2794000Y1334008D03*
X1016000Y62992D03*
X3683000Y1334008D03*
X127000Y62992D03*
X1905000Y62992D03*
X2794000Y62992D03*
X3683000Y62992D03*
D11*
X204350Y1003300D03*
D12*
X252850Y1003300D03*
X204350Y977900D03*
X252850Y977900D03*
X204350Y952500D03*
X252850Y952500D03*
X204350Y927100D03*
X252850Y927100D03*
X204350Y901700D03*
X252850Y901700D03*
X204350Y876300D03*
X252850Y876300D03*
X204350Y850900D03*
X252850Y850900D03*
X204350Y825500D03*
X252850Y825500D03*
X204350Y800100D03*
X252850Y800100D03*
X204350Y774700D03*
X252850Y774700D03*
X204350Y749300D03*
X252850Y749300D03*
X204350Y723900D03*
X252850Y723900D03*
X204350Y698500D03*
X252850Y698500D03*
X204350Y673100D03*
X252850Y673100D03*
X204350Y647700D03*
X252850Y647700D03*
X204350Y622300D03*
X252850Y622300D03*
X204350Y596900D03*
X252850Y596900D03*
X204350Y571500D03*
X252850Y571500D03*
X204350Y546100D03*
X252850Y546100D03*
X204350Y520700D03*
X252850Y520700D03*
X204350Y495300D03*
X252850Y495300D03*
X204350Y469900D03*
X252850Y469900D03*
X204350Y444500D03*
X252850Y444500D03*
X204350Y419100D03*
X252850Y419100D03*
X204350Y393700D03*
X252850Y393700D03*
D13*
X228600Y1089000D03*
X228600Y308000D03*
D11*
X627692Y1003300D03*
D12*
X676192Y1003300D03*
X627692Y977900D03*
X676192Y977900D03*
X627692Y952500D03*
X676192Y952500D03*
X627692Y927100D03*
X676192Y927100D03*
X627692Y901700D03*
X676192Y901700D03*
X627692Y876300D03*
X676192Y876300D03*
X627692Y850900D03*
X676192Y850900D03*
X627692Y825500D03*
X676192Y825500D03*
X627692Y800100D03*
X676192Y800100D03*
X627692Y774700D03*
X676192Y774700D03*
X627692Y749300D03*
X676192Y749300D03*
X627692Y723900D03*
X676192Y723900D03*
X627692Y698500D03*
X676192Y698500D03*
X627692Y673100D03*
X676192Y673100D03*
X627692Y647700D03*
X676192Y647700D03*
X627692Y622300D03*
X676192Y622300D03*
X627692Y596900D03*
X676192Y596900D03*
X627692Y571500D03*
X676192Y571500D03*
X627692Y546100D03*
X676192Y546100D03*
X627692Y520700D03*
X676192Y520700D03*
X627692Y495300D03*
X676192Y495300D03*
X627692Y469900D03*
X676192Y469900D03*
X627692Y444500D03*
X676192Y444500D03*
X627692Y419100D03*
X676192Y419100D03*
X627692Y393700D03*
X676192Y393700D03*
D13*
X651942Y1089000D03*
X651942Y308000D03*
D11*
X1051034Y1003300D03*
D12*
X1099534Y1003300D03*
X1051034Y977900D03*
X1099534Y977900D03*
X1051034Y952500D03*
X1099534Y952500D03*
X1051034Y927100D03*
X1099534Y927100D03*
X1051034Y901700D03*
X1099534Y901700D03*
X1051034Y876300D03*
X1099534Y876300D03*
X1051034Y850900D03*
X1099534Y850900D03*
X1051034Y825500D03*
X1099534Y825500D03*
X1051034Y800100D03*
X1099534Y800100D03*
X1051034Y774700D03*
X1099534Y774700D03*
X1051034Y749300D03*
X1099534Y749300D03*
X1051034Y723900D03*
X1099534Y723900D03*
X1051034Y698500D03*
X1099534Y698500D03*
X1051034Y673100D03*
X1099534Y673100D03*
X1051034Y647700D03*
X1099534Y647700D03*
X1051034Y622300D03*
X1099534Y622300D03*
X1051034Y596900D03*
X1099534Y596900D03*
X1051034Y571500D03*
X1099534Y571500D03*
X1051034Y546100D03*
X1099534Y546100D03*
X1051034Y520700D03*
X1099534Y520700D03*
X1051034Y495300D03*
X1099534Y495300D03*
X1051034Y469900D03*
X1099534Y469900D03*
X1051034Y444500D03*
X1099534Y444500D03*
X1051034Y419100D03*
X1099534Y419100D03*
X1051034Y393700D03*
X1099534Y393700D03*
D13*
X1075284Y1089000D03*
X1075284Y308000D03*
D11*
X1525175Y1003300D03*
D12*
X1573675Y1003300D03*
X1525175Y977900D03*
X1573675Y977900D03*
X1525175Y952500D03*
X1573675Y952500D03*
X1525175Y927100D03*
X1573675Y927100D03*
X1525175Y901700D03*
X1573675Y901700D03*
X1525175Y876300D03*
X1573675Y876300D03*
X1525175Y850900D03*
X1573675Y850900D03*
X1525175Y825500D03*
X1573675Y825500D03*
X1525175Y800100D03*
X1573675Y800100D03*
X1525175Y774700D03*
X1573675Y774700D03*
X1525175Y749300D03*
X1573675Y749300D03*
X1525175Y723900D03*
X1573675Y723900D03*
X1525175Y698500D03*
X1573675Y698500D03*
X1525175Y673100D03*
X1573675Y673100D03*
X1525175Y647700D03*
X1573675Y647700D03*
X1525175Y622300D03*
X1573675Y622300D03*
X1525175Y596900D03*
X1573675Y596900D03*
X1525175Y571500D03*
X1573675Y571500D03*
X1525175Y546100D03*
X1573675Y546100D03*
X1525175Y520700D03*
X1573675Y520700D03*
X1525175Y495300D03*
X1573675Y495300D03*
X1525175Y469900D03*
X1573675Y469900D03*
X1525175Y444500D03*
X1573675Y444500D03*
X1525175Y419100D03*
X1573675Y419100D03*
X1525175Y393700D03*
X1573675Y393700D03*
D13*
X1549425Y1089000D03*
X1549425Y308000D03*
D11*
X1948517Y1003300D03*
D12*
X1997017Y1003300D03*
X1948517Y977900D03*
X1997017Y977900D03*
X1948517Y952500D03*
X1997017Y952500D03*
X1948517Y927100D03*
X1997017Y927100D03*
X1948517Y901700D03*
X1997017Y901700D03*
X1948517Y876300D03*
X1997017Y876300D03*
X1948517Y850900D03*
X1997017Y850900D03*
X1948517Y825500D03*
X1997017Y825500D03*
X1948517Y800100D03*
X1997017Y800100D03*
X1948517Y774700D03*
X1997017Y774700D03*
X1948517Y749300D03*
X1997017Y749300D03*
X1948517Y723900D03*
X1997017Y723900D03*
X1948517Y698500D03*
X1997017Y698500D03*
X1948517Y673100D03*
X1997017Y673100D03*
X1948517Y647700D03*
X1997017Y647700D03*
X1948517Y622300D03*
X1997017Y622300D03*
X1948517Y596900D03*
X1997017Y596900D03*
X1948517Y571500D03*
X1997017Y571500D03*
X1948517Y546100D03*
X1997017Y546100D03*
X1948517Y520700D03*
X1997017Y520700D03*
X1948517Y495300D03*
X1997017Y495300D03*
X1948517Y469900D03*
X1997017Y469900D03*
X1948517Y444500D03*
X1997017Y444500D03*
X1948517Y419100D03*
X1997017Y419100D03*
X1948517Y393700D03*
X1997017Y393700D03*
D13*
X1972767Y1089000D03*
X1972767Y308000D03*
D11*
X2371859Y1003300D03*
D12*
X2420359Y1003300D03*
X2371859Y977900D03*
X2420359Y977900D03*
X2371859Y952500D03*
X2420359Y952500D03*
X2371859Y927100D03*
X2420359Y927100D03*
X2371859Y901700D03*
X2420359Y901700D03*
X2371859Y876300D03*
X2420359Y876300D03*
X2371859Y850900D03*
X2420359Y850900D03*
X2371859Y825500D03*
X2420359Y825500D03*
X2371859Y800100D03*
X2420359Y800100D03*
X2371859Y774700D03*
X2420359Y774700D03*
X2371859Y749300D03*
X2420359Y749300D03*
X2371859Y723900D03*
X2420359Y723900D03*
X2371859Y698500D03*
X2420359Y698500D03*
X2371859Y673100D03*
X2420359Y673100D03*
X2371859Y647700D03*
X2420359Y647700D03*
X2371859Y622300D03*
X2420359Y622300D03*
X2371859Y596900D03*
X2420359Y596900D03*
X2371859Y571500D03*
X2420359Y571500D03*
X2371859Y546100D03*
X2420359Y546100D03*
X2371859Y520700D03*
X2420359Y520700D03*
X2371859Y495300D03*
X2420359Y495300D03*
X2371859Y469900D03*
X2420359Y469900D03*
X2371859Y444500D03*
X2420359Y444500D03*
X2371859Y419100D03*
X2420359Y419100D03*
X2371859Y393700D03*
X2420359Y393700D03*
D13*
X2396109Y1089000D03*
X2396109Y308000D03*
D11*
X2795201Y1003300D03*
D12*
X2843701Y1003300D03*
X2795201Y977900D03*
X2843701Y977900D03*
X2795201Y952500D03*
X2843701Y952500D03*
X2795201Y927100D03*
X2843701Y927100D03*
X2795201Y901700D03*
X2843701Y901700D03*
X2795201Y876300D03*
X2843701Y876300D03*
X2795201Y850900D03*
X2843701Y850900D03*
X2795201Y825500D03*
X2843701Y825500D03*
X2795201Y800100D03*
X2843701Y800100D03*
X2795201Y774700D03*
X2843701Y774700D03*
X2795201Y749300D03*
X2843701Y749300D03*
X2795201Y723900D03*
X2843701Y723900D03*
X2795201Y698500D03*
X2843701Y698500D03*
X2795201Y673100D03*
X2843701Y673100D03*
X2795201Y647700D03*
X2843701Y647700D03*
X2795201Y622300D03*
X2843701Y622300D03*
X2795201Y596900D03*
X2843701Y596900D03*
X2795201Y571500D03*
X2843701Y571500D03*
X2795201Y546100D03*
X2843701Y546100D03*
X2795201Y520700D03*
X2843701Y520700D03*
X2795201Y495300D03*
X2843701Y495300D03*
X2795201Y469900D03*
X2843701Y469900D03*
X2795201Y444500D03*
X2843701Y444500D03*
X2795201Y419100D03*
X2843701Y419100D03*
X2795201Y393700D03*
X2843701Y393700D03*
D13*
X2819451Y1089000D03*
X2819451Y308000D03*
D11*
X3218543Y1003300D03*
D12*
X3267043Y1003300D03*
X3218543Y977900D03*
X3267043Y977900D03*
X3218543Y952500D03*
X3267043Y952500D03*
X3218543Y927100D03*
X3267043Y927100D03*
X3218543Y901700D03*
X3267043Y901700D03*
X3218543Y876300D03*
X3267043Y876300D03*
X3218543Y850900D03*
X3267043Y850900D03*
X3218543Y825500D03*
X3267043Y825500D03*
X3218543Y800100D03*
X3267043Y800100D03*
X3218543Y774700D03*
X3267043Y774700D03*
X3218543Y749300D03*
X3267043Y749300D03*
X3218543Y723900D03*
X3267043Y723900D03*
X3218543Y698500D03*
X3267043Y698500D03*
X3218543Y673100D03*
X3267043Y673100D03*
X3218543Y647700D03*
X3267043Y647700D03*
X3218543Y622300D03*
X3267043Y622300D03*
X3218543Y596900D03*
X3267043Y596900D03*
X3218543Y571500D03*
X3267043Y571500D03*
X3218543Y546100D03*
X3267043Y546100D03*
X3218543Y520700D03*
X3267043Y520700D03*
X3218543Y495300D03*
X3267043Y495300D03*
X3218543Y469900D03*
X3267043Y469900D03*
X3218543Y444500D03*
X3267043Y444500D03*
X3218543Y419100D03*
X3267043Y419100D03*
X3218543Y393700D03*
X3267043Y393700D03*
D13*
X3242793Y1089000D03*
X3242793Y308000D03*
D14*
X787400Y1085110D03*
X787400Y1099290D03*
D15*
X1219200Y711200D03*
X1219200Y866140D03*
X508000Y711200D03*
X508000Y866140D03*
X939800Y711200D03*
X939800Y866140D03*
D16*
X851129Y1065225D03*
X851129Y963625D03*
X952729Y1065225D03*
X952729Y963625D03*
D17*
X995477Y1034521D03*
X995477Y1005201D03*
D11*
X3641892Y1003300D03*
D12*
X3690392Y1003300D03*
X3641892Y977900D03*
X3690392Y977900D03*
X3641892Y952500D03*
X3690392Y952500D03*
X3641892Y927100D03*
X3690392Y927100D03*
X3641892Y901700D03*
X3690392Y901700D03*
X3641892Y876300D03*
X3690392Y876300D03*
X3641892Y850900D03*
X3690392Y850900D03*
X3641892Y825500D03*
X3690392Y825500D03*
X3641892Y800100D03*
X3690392Y800100D03*
X3641892Y774700D03*
X3690392Y774700D03*
X3641892Y749300D03*
X3690392Y749300D03*
X3641892Y723900D03*
X3690392Y723900D03*
X3641892Y698500D03*
X3690392Y698500D03*
X3641892Y673100D03*
X3690392Y673100D03*
X3641892Y647700D03*
X3690392Y647700D03*
X3641892Y622300D03*
X3690392Y622300D03*
X3641892Y596900D03*
X3690392Y596900D03*
X3641892Y571500D03*
X3690392Y571500D03*
X3641892Y546100D03*
X3690392Y546100D03*
X3641892Y520700D03*
X3690392Y520700D03*
X3641892Y495300D03*
X3690392Y495300D03*
X3641892Y469900D03*
X3690392Y469900D03*
X3641892Y444500D03*
X3690392Y444500D03*
X3641892Y419100D03*
X3690392Y419100D03*
X3641892Y393700D03*
X3690392Y393700D03*
D13*
X3666142Y1089000D03*
X3666142Y308000D03*
D11*
X4065226Y1003300D03*
D12*
X4113726Y1003300D03*
X4065226Y977900D03*
X4113726Y977900D03*
X4065226Y952500D03*
X4113726Y952500D03*
X4065226Y927100D03*
X4113726Y927100D03*
X4065226Y901700D03*
X4113726Y901700D03*
X4065226Y876300D03*
X4113726Y876300D03*
X4065226Y850900D03*
X4113726Y850900D03*
X4065226Y825500D03*
X4113726Y825500D03*
X4065226Y800100D03*
X4113726Y800100D03*
X4065226Y774700D03*
X4113726Y774700D03*
X4065226Y749300D03*
X4113726Y749300D03*
X4065226Y723900D03*
X4113726Y723900D03*
X4065226Y698500D03*
X4113726Y698500D03*
X4065226Y673100D03*
X4113726Y673100D03*
X4065226Y647700D03*
X4113726Y647700D03*
X4065226Y622300D03*
X4113726Y622300D03*
X4065226Y596900D03*
X4113726Y596900D03*
X4065226Y571500D03*
X4113726Y571500D03*
X4065226Y546100D03*
X4113726Y546100D03*
X4065226Y520700D03*
X4113726Y520700D03*
X4065226Y495300D03*
X4113726Y495300D03*
X4065226Y469900D03*
X4113726Y469900D03*
X4065226Y444500D03*
X4113726Y444500D03*
X4065226Y419100D03*
X4113726Y419100D03*
X4065226Y393700D03*
X4113726Y393700D03*
D13*
X4089476Y1089000D03*
X4089476Y308000D03*
D18*
X813054Y1168400D03*
X762254Y1168400D03*
X736854Y1168400D03*
X711454Y1168400D03*
X711454Y1219200D03*
X736854Y1219200D03*
X762254Y1219200D03*
X813054Y1219200D03*
X609854Y1168400D03*
X559054Y1168400D03*
X533654Y1168400D03*
X508254Y1168400D03*
X508254Y1219200D03*
X533654Y1219200D03*
X559054Y1219200D03*
X609854Y1219200D03*
D19*
X1676451Y848411D03*
D20*
X1644701Y880161D03*
X1708201Y880161D03*
X1644701Y816661D03*
X1708201Y816661D03*
D19*
X1682242Y727253D03*
D20*
X1650492Y759003D03*
X1713992Y759003D03*
X1650492Y695503D03*
X1713992Y695503D03*
D19*
X1835099Y853034D03*
D20*
X1803349Y884784D03*
X1866849Y884784D03*
X1803349Y821284D03*
X1866849Y821284D03*
D19*
X1828698Y728523D03*
D20*
X1796948Y760273D03*
X1860448Y760273D03*
X1796948Y696773D03*
X1860448Y696773D03*
D15*
X787400Y711200D03*
X787400Y866140D03*
X381000Y711200D03*
X381000Y866140D03*
X558800Y965200D03*
X558800Y558800D03*
D21*
X1690167Y635051D03*
X1715326Y609854D03*
X1619961Y647446D03*
X1733804Y583814D03*
M02*
